<svg xmlns="http://www.w3.org/2000/svg" fill="none" version="1.1" width="64" height="64" viewBox="0 0 64 64"><path d="M16.011564254260254,24.651044499999998C14.199108154260253,26.0486085,12.604812654260254,27.6949085,11.290275574260255,29.5567475C11.202753064260254,29.6807115,10.984476089260253,29.5737765,11.051337242260255,29.4375555C12.365951554260254,26.7591665,14.005819354260254,24.3629835,15.886684454260255,22.313341100000002L15.886684454260255,14.091053C15.886684454260255,13.28568935,16.539560354260253,12.6328125,17.344924954260254,12.6328125L46.644013054260256,12.6328125C47.449376054260256,12.6328125,48.10225405426026,13.28568935,48.10225405426026,14.091054L48.10225405426026,24.7461315C43.604340054260255,21.2891407,37.94170905426026,19.4149723,31.994634054260253,19.4149723C26.104784054260254,19.4149723,20.491794554260252,21.2537956,16.011564254260254,24.651044499999998ZM31.994557054260255,36.8882445C35.14015305426025,36.8882445,37.690160054260254,34.3323665,37.690160054260254,31.1795235C37.690160054260254,30.5937725,37.60022405426025,30.0115585,37.423505054260254,29.4532315C36.96355905426026,30.4290525,35.98299105426025,31.0517195,34.906236054260255,31.0517195C33.36864905426025,31.0517195,32.122189054260254,29.8023895,32.122189054260254,28.2612605C32.122189054260254,27.1816535,32.74318005426025,26.199264499999998,33.71711105426026,25.738142500000002C33.160027054260254,25.5609745,32.57901505426025,25.4708005,31.994557054260255,25.4708005C28.848966054260252,25.4708005,26.298958054260254,28.026681500000002,26.298958054260254,31.1795235C26.298958054260254,34.3323665,28.848966054260252,36.8882445,31.994557054260255,36.8882445ZM47.15295105426026,40.7200085C49.430203054260254,38.5980795,51.40581205426025,36.0023425,52.94698805426025,33.029174499999996C53.01721305426025,32.8936925,52.805627054260256,32.7626725,52.716546054260256,32.8865775C51.36659305426026,34.7642635,49.73017205426025,36.4189305,47.87169405426025,37.8158765C47.87339505426026,37.8053205,47.87509205426026,37.7947615,47.87677505426026,37.7842025C43.46611505426026,41.092453500000005,37.971620054260256,42.9006615,32.199830054260254,42.9434055C32.19153705426025,42.9434665,32.18324405426026,42.9435235,32.174951054260255,42.9435765C32.11482705426025,42.943946499999996,32.054662054260255,42.9441415,31.994454054260252,42.9441415C26.150606054260255,42.9441185,20.577615754260254,41.1334415,16.112119654260255,37.7839245C17.329820654260253,45.4193075,23.367437054260254,51.7093845,31.457871054260252,54.2405735C31.808347054260253,54.3502275,32.18059205426025,54.3502275,32.53106805426025,54.2405775C39.557904054260256,52.0421445,45.03618705426025,47.0081745,47.15295105426026,40.7200085Z" fill-rule="evenodd" fill="#2BDE5E"/></svg>
