<svg xmlns="http://www.w3.org/2000/svg" xmlns:xlink="http://www.w3.org/1999/xlink" fill="none" version="1.1" width="24" height="24" viewBox="0 0 24 24"><defs><clipPath id="master_svg0_6_8167"><rect x="0" y="0" width="24" height="24" rx="0"/></clipPath></defs><g clip-path="url(#master_svg0_6_8167)"><path d="M20.287577,9.0722227L20.28758,3.9065542C20.28758,3.6710119,20.134434,3.4619329,19.907469,3.3876216L13.041644,1.1396434C12.472977,0.953452196,11.8584,0.953452196,11.289733,1.1396434L4.4239118,3.3876216C4.19695,3.4619329,4.0438030000000005,3.6710119,4.0438030000000005,3.9065535L4.0438030000000005,7.7604537Q2.3076353999999997,9.0196009,1.026897125,10.7215605C0.981247211,10.7822237,0.9952332932,10.8675222,1.057262439,10.9119024L1.6807546599999998,11.35799C1.74278384,11.40237,1.83015472,11.387957,1.8758581300000001,11.327333Q2.8244369000000003,10.0690641,4.0438030000000005,9.0711317L4.0438030000000005,9.0721369C4.0473871,9.0688677,4.0509734,9.0656004,4.0545615999999995,9.062336Q5.108624,8.201524299999999,6.3646379,7.5348673Q9.1697483,6.0459933,12.104564,6.011796C12.110984,6.0117211,12.117295,6.0112243,12.123474,6.0103316C12.137527,6.0102854,12.151583,6.0102625,12.165643,6.0102625C15.228951,6.0102625,18.129648,7.1038213,20.287577,9.0722227ZM12.165698,15.104443C14.020872,15.104443,15.524788,13.623384,15.524788,11.796405C15.524788,11.330915,15.425033,10.8706665,15.23204,10.4457445C15.100386,11.029442,14.606606,11.466221,14.003221,11.532711C14.015849,11.618814,14.022385,11.706857,14.022385,11.796404C14.022385,12.806244,13.191113,13.624882,12.165689,13.624882C11.140264,13.624882,10.3089924,12.806244,10.3089924,11.796404C10.3089924,10.7865648,11.140264,9.967927,12.165689,9.967927C12.25662,9.967927,12.346026,9.9743633,12.43346,9.9868021C12.500981,9.3925896,12.944499,8.9063196,13.5372,8.7766652C13.105721,8.5866084,12.638371,8.4883685,12.165698,8.4883685C10.310524,8.4883685,8.8066077,9.9694271,8.8066077,11.796405C8.8066077,13.623384,10.310524,15.104443,12.165698,15.104443ZM13.722724,11.536176C13.034907,11.477537,12.489482,10.9403973,12.429942,10.2630358C12.344015,10.2487793,12.255732,10.2413578,12.165689,10.2413578C11.293605,10.2413578,10.5866423,10.9375753,10.5866423,11.796404C10.5866423,12.655233,11.293605,13.351451,12.165689,13.351451C13.037772,13.351451,13.744734,12.655233,13.744734,11.796404C13.744734,11.707732,13.737199,11.620793,13.722724,11.536176ZM16.441596,20.412554C18.213472,19.298075,19.468004,17.582354,20.001341,15.631823Q21.701345,14.426475,22.972771,12.737899C23.01844,12.677246,23.005356,12.590735,22.943325,12.546355L22.319834,12.100267C22.257805,12.055888,22.171682,12.068628,22.125975,12.12925Q21.294405,13.232175,20.264395,14.111691L20.264425,14.111281L20.257177,14.117849Q19.129091,15.079604,17.763298,15.773732Q15.238562,17.056862,12.433695,17.149387C12.344492,17.151249,12.255136,17.152182,12.165643,17.152182C9.1138735,17.152182,6.2229958,16.066744999999997,4.0669618,14.111374C4.2613864,16.675204,5.6693788,19.015959,7.8897829,20.412554L11.866787,22.914019C12.049053,23.02866,12.282323,23.02866,12.46459,22.914019L16.441596,20.412554Z" fill-rule="evenodd" fill="#FFFFFF" fill-opacity="1"/></g></svg>