<svg xmlns="http://www.w3.org/2000/svg" xmlns:xlink="http://www.w3.org/1999/xlink" fill="none" version="1.1" width="57" height="60" viewBox="0 0 57 60"><defs><clipPath id="master_svg0_6_15821"><rect x="0" y="0" width="57" height="60" rx="0"/></clipPath></defs><g clip-path="url(#master_svg0_6_15821)"><path d="M32.933578,1.3575344C35.639614,2.7966926,37.587963,6.5857606,37.239429,9.665988C37.202621,9.9967794,37.059742,10.467191,36.886551,10.759318C37.70919,11.102999,38.653065,11.193214,39.523323,11.483194C42.673149,12.533566,45.623814,14.907103,47.39465,17.678019C48.879723,20.000004,49.669891,22.515306,50.377789,25.153049C52.386745,25.322742,54.488804,26.231342,55.584206,27.981962C58.428791,32.527126,56.699093,38.68758,52.9128,42.111488C52.819721,42.195259,51.947289,42.805294,52.001408,42.876179C53.081661,43.035133,54.283131,43.529163,55.008354,44.36689C57.707909,47.477184,55.389374,51.272705,51.89101,52.301586C49.845238,52.90303,47.799477,52.434761,45.807823,51.912804C46.533047,53.452919,46.539543,55.542915,45.610825,57.001404C44.359554,58.968971,42.173073,59.755142,39.910831,59.25251C37.994953,58.825058,35.730537,57.559883,34.453285,56.079918C34.141552,56.000446,34.083096,56.294724,34.03764,56.318344C33.979187,56.348423,33.875278,56.281822,33.793011,56.309746C29.9526,57.68232,26.185795,57.495438,22.548878,55.611652C22.241472,56.326931,22.027153,56.962742,21.496769,57.559883C19.799543,59.465153,17.807898,60.262066,15.194947,59.924835C13.095061,59.654179,11.151043,58.137699,10.555714,56.129314C10.22666,55.02095,10.222329,53.861027,10.752714,52.817108C8.6961231,53.530243,6.3407884,53.633347,4.3166699,52.741932C0.3983261,51.012787,-1.7773291,44.863064,2.7514977,42.485241C3.3706391,42.160889,4.1434841,41.866615,4.8319006,41.883793C4.8838563,41.675442,4.7929339,41.735584,4.717164,41.677586C3.3533208,40.629364,2.1864769,39.402863,1.3530167,37.884228C-0.70573771,34.131672,-0.86593509,28.050694,4.104517,26.615831C4.1499786,26.214151,3.6910346,25.956398,3.565474,25.730858C2.4873884,23.784769,1.8617522,21.720545,1.9699937,19.493071C2.0132902,18.608093,2.1929712,16.816666,2.8294318,16.183008C3.3706393,15.64386,3.3792994,16.314035,3.5871227,16.561056C5.4488778,18.784233,8.929925,20.938675,11.707403,18.936739C14.634257,16.829556,15.617087,10.063363,17.381426,6.7683353C20.453323,1.0310388,26.800611,-1.9031254,32.933578,1.3575344ZM41.222717,13.371284C40.157612,12.814953,38.256897,12.099669,37.092213,11.820429C36.572659,11.695845,35.488075,11.945012,35.613636,11.040706C35.711052,10.323275,36.079075,9.7669439,36.072575,8.8604879C36.0098,1.8558695,27.662212,-0.72817099,22.286932,2.8718727C16.805584,6.5427995,17.338129,12.956719,14.235928,17.828379C11.62514,21.926758,6.8170524,21.722696,3.7040248,18.29879C3.5156839,18.092581,3.4161017,17.748903,3.1952889,17.585655C2.6107848,21.593817,4.2127595,25.866184,7.7197862,28.04855C8.1397629,28.308458,10.724572,29.515633,10.65746,29.908716C10.629319,30.071962,10.243979,30.237358,10.072957,30.237358C8.7805529,30.237358,6.6287112,28.965744,5.6112399,28.153803C5.3449659,27.941151,5.0267358,27.429928,4.7020111,27.42778C3.68887,27.417038,2.086895,28.765985,1.6322803,29.631624C-0.31606764,33.330475,2.6562452,38.831497,5.8450408,40.934387C6.2108994,41.174961,8.0748177,42.081417,8.0142021,42.465912C7.9297743,43.00935,6.4078984,42.607677,6.0745139,42.622715C2.229774,42.7967,-0.047628611,45.402225,1.9072138,49.088184C3.3273432,51.768883,6.9166327,52.709705,9.7114305,51.833328C10.192023,51.682972,12.826623,50.179371,13.030114,50.383427C13.071246,51.176041,12.244283,51.657188,11.89791,52.286549C10.157385,55.446259,12.359018,59.022678,15.974285,58.842239C17.814392,58.749874,18.866501,58.313831,20.078806,56.969185C20.630838,56.354858,21.267298,55.618095,21.208847,54.737411C16.820734,52.02235,13.952332,47.320381,12.491072,42.472351C11.700909,39.853943,11.350206,37.134583,11.241965,34.398033C11.213823,33.676304,11.432469,32.879398,11.170527,32.129745C9.7287474,31.665781,8.2436733,32.129745,7.6180367,33.581791C6.604897,35.936001,7.6699934,38.582325,9.5815392,40.122444C10.101098,40.541302,11.0428,40.743214,10.655294,41.518642C10.010176,41.65612,9.5230885,41.286655,9.0338354,40.934387C6.3754239,39.016224,5.0483823,35.446251,6.7607636,32.456242C6.8148842,32.359581,6.9685869,32.342396,7.0010595,32.2887C7.0508504,32.202778,6.994565,32.052418,7.048687,31.977238C7.5963883,31.223291,9.1658907,30.662668,10.07512,30.679848C11.086097,30.699181,11.848118,31.019234,12.77683,31.165297C13.909038,31.341433,16.260044,31.122335,17.351116,30.770065C17.84037,30.611113,18.474665,30.020412,19.072157,29.766953C19.392551,29.631624,20.11344,29.494156,20.295284,29.397493C20.321264,29.384605,20.589705,29.034485,20.682791,28.970041C19.933758,28.897013,19.113289,28.875528,18.362093,28.970041C17.920465,29.025888,16.610744,29.438303,16.350965,29.247133C16.247051,29.171951,16.063042,28.819679,16.08036,28.686506C16.106339,28.484592,16.493843,28.351418,16.673523,28.28698C18.292818,27.702721,20.070145,27.928263,21.758711,27.865969C22.873602,26.100313,23.687574,24.033941,24.029621,21.94179C24.765657,17.450329,22.780514,11.045002,27.149145,7.9626245C27.928484,7.4127369,30.201555,6.7876701,30.978725,7.5051007C31.184385,7.6941247,31.138929,8.035656,30.952751,8.1666832C30.814205,8.2633429,29.716631,8.2590475,29.420053,8.319191C25.962814,9.0215864,25.222441,12.952421,25.438929,15.938138C26.911009,17.39448,29.006563,16.889702,30.677818,16.069164L34.524723,13.156481L34.386173,13.970571C36.45142,14.438835,38.196278,15.69756,39.096844,17.60928C39.36961,18.189238,39.87402,19.551071,39.984425,20.1611C40.434715,22.648481,39.536304,27.904633,42.424194,29.124689C44.084621,29.827087,44.01968,28.37719,45.491756,28.237566L45.545879,28.96574C47.171669,28.798195,48.598289,29.391039,49.689373,30.591776C53.579567,34.870583,50.040073,40.421009,45.474438,42.268288C44.699432,44.759964,43.798855,47.144245,42.339767,49.324463C41.428368,50.688438,39.677025,52.804211,38.30452,53.73C37.912689,53.994202,37.436417,54.460312,36.921192,54.788956C36.804298,54.86414,35.886402,55.409725,35.82362,55.422619C35.704556,55.448391,35.540028,55.336697,35.529205,55.347443C35.516216,55.360325,35.542191,55.523575,35.475082,55.613789C35.418797,55.688961,35.265091,55.710449,35.252102,55.753407C35.154686,56.064865,35.384159,55.929543,35.494564,56.009018C36.691719,56.857479,37.769802,57.727417,39.261372,58.103317C43.435162,59.155827,46.29274,55.856506,44.498096,51.91494C44.357384,51.605621,43.363724,50.106323,43.541248,49.92804C44.331402,49.78627,44.870449,50.400593,45.552368,50.688427C48.362324,51.86768,53.131435,51.839756,54.633835,48.69294C55.41534,47.058311,54.391373,44.74707,52.650848,44.188591C51.730797,43.894314,50.366951,43.870689,49.412262,43.881432C49.329994,43.881432,48.723846,43.868538,48.73251,43.739658C49.488033,42.700027,50.806408,42.169468,51.756775,41.34679C53.997375,39.413593,55.668625,35.946724,55.659969,32.986782C55.655632,31.227573,54.915268,28.340666,53.356583,27.316071C52.447357,26.718927,50.403751,26.044456,49.321339,26.076679C48.561474,26.100306,47.953167,26.433243,47.247425,26.51272C46.868587,26.233477,46.805805,26.059488,47.18898,25.765217C47.68689,25.382874,48.314693,25.299103,48.912186,25.170219C48.771477,24.472124,48.632927,23.756838,48.429432,23.073774C47.271248,19.194492,44.933228,15.304471,41.229202,13.371273L41.222717,13.371284ZM37.126854,16.438622C36.825943,16.152939,36.154839,15.704007,35.784664,15.46558C35.555187,15.317368,34.161034,14.483947,34.026817,14.516167C33.407677,15.319518,32.747402,16.163679,31.922602,16.769415C30.426702,17.86919,28.043222,18.550106,26.233425,17.993773C26.016941,17.927185,25.724691,17.647945,25.549337,17.491144C25.391306,17.592098,25.43244,17.65439,25.423779,17.798306C25.393471,18.333157,25.58181,19.15369,25.594799,19.705727C25.664072,22.69574,24.73103,25.649233,23.237299,28.211794C23.20266,28.55118,24.908548,28.654284,24.133537,29.184839C23.678923,29.4963,23.165857,29.131136,22.722069,29.141878C22.559708,29.146175,22.410332,29.174099,22.408169,29.371717C22.579191,29.474819,22.758871,29.307276,22.977518,29.341644C23.064112,29.356682,23.6681,29.644512,23.795826,29.7111C25.109877,30.407053,26.194456,31.773178,26.408775,33.261738L28.584433,33.285366C28.863695,31.618525,29.848692,29.88294,31.513449,29.324459L31.470152,29.146175L30.294653,29.485558C30.028376,29.296534,29.831375,29.062405,30.158266,28.836864C31.394388,27.979815,34.247631,27.65332,35.745697,27.603914C36.254425,27.586729,37.67672,27.541622,38.068558,27.745682C38.518841,27.979815,38.222263,28.402969,37.823925,28.493181C37.040264,28.669321,35.353855,28.510368,34.384014,28.60273C33.511585,28.686504,32.63916,28.858341,31.788382,29.055956L32.110939,29.599401C30.928944,30.430674,29.469849,31.680811,29.42222,33.25959C29.417892,33.407799,29.35511,33.504463,29.554277,33.482979C29.840034,33.45076,30.210222,33.233814,30.511133,33.165081C31.823017,32.862209,36.267414,32.3381,37.373646,33.046936C38.007938,33.455055,37.481888,33.674149,37.13768,33.931911C37.046757,34.000648,37.042419,34.135971,36.925526,34.183228C36.596474,34.314251,36.185154,34.067234,35.925369,34.032867C35.234795,33.94265,34.544212,33.901836,33.85363,33.83955C33.624161,34.552689,33.08728,35.038128,32.336082,35.160564C31.85549,35.237896,31.091303,35.029537,31.006878,34.483948C30.944098,34.080124,32.041668,34.359364,31.972395,33.936207C31.593548,33.88895,29.528301,34.211155,29.433048,34.537647C29.913639,37.480404,33.063473,39.018372,35.821461,37.980888C38.841404,36.844593,39.817741,32.872948,37.297882,30.686289C36.644104,30.119215,35.832291,29.908712,35.254276,29.283646C35.897232,28.755236,36.260925,28.707985,36.975319,29.109657C40.465027,31.07937,40.683681,36.122871,37.284889,38.255829C33.825489,40.427452,29.368101,38.582325,28.608248,34.61068C28.385269,34.460323,26.501863,34.49469,26.430428,34.578461C26.09704,39.497372,19.314627,41.205032,16.638895,37.0014C16.032742,36.047688,15.662556,34.709488,16.037071,33.620453L15.948315,33.528091C15.387624,33.727852,12.659934,32.323063,12.395826,32.580822C12.071101,38.08614,13.268252,43.426064,16.205929,48.089359C22.873613,58.674686,35.0746,58.367523,41.569096,47.840191C42.259678,46.721085,43.171066,44.927509,43.604031,43.716038C43.733921,43.355175,44.179874,41.181404,44.27729,41.08474C44.305439,41.056816,44.690781,41.039631,44.833664,40.977341C44.896435,40.949413,45.058796,40.732471,45.238476,40.64011C47.624126,39.40715,49.931835,37.8563,50.09203,34.883476C50.278206,31.4209,46.877258,28.800346,43.636497,30.647623C42.725105,31.167435,41.748772,32.134037,40.867683,32.598003C40.77243,32.647408,40.488838,32.763401,40.404415,32.746216C40.068863,32.464828,39.826405,32.237141,40.168446,31.816133C40.51049,31.395121,41.350441,30.963377,41.744438,30.578888C41.80722,30.516596,41.930618,30.501558,41.895981,30.368387C39.787437,29.442598,38.912842,27.017506,38.795944,24.858772C38.653065,22.193106,39.283031,18.496403,37.129021,16.43862L37.126854,16.438622ZM22.15921,30.202988C21.986023,30.007521,22.15921,29.87649,22.087769,29.687471C21.760881,30.082705,21.169884,29.958118,20.745575,30.071962C18.396736,30.692734,16.695179,32.275806,16.853212,34.838367C18.305813,33.61401,20.596205,33.45076,22.455795,33.478683C23.007828,33.487278,23.966846,33.504463,24.48424,33.63549C24.78299,33.712818,24.947515,33.867474,25.228943,33.934059L25.228943,34.112343C24.945351,34.086571,25.027615,34.402328,24.906385,34.561272C24.780823,34.728821,24.430122,34.707336,24.397646,35.003757L22.109426,34.668674C21.622335,35.145531,21.618008,35.618088,20.860313,35.875847C19.390394,36.376331,17.931299,34.739563,20.130766,34.926434L20.130766,34.655792C19.5809,34.778225,19.015879,34.810444,18.470343,34.956505C17.924805,35.10257,17.476685,35.493507,16.944136,35.289448C17.950785,39.080658,22.962368,39.280426,24.847935,36.039101C25.932516,34.172485,25.302547,31.689402,23.343376,30.701324C23.059784,30.557407,22.390852,30.462898,22.161383,30.202986L22.15921,30.202988ZM16.305508,32.398243L15.941817,32.531422L16.078201,32.664597L16.305508,32.396095L16.305508,32.398243Z" fill="#FFFFFF" fill-opacity="0.800000011920929"/><path d="M26.778834303125,46.581483878125L26.869757203125,46.310837478125C26.657602803125002,46.038040878125,25.858781603125,46.766211778125,25.618485003125,46.830652478125C24.992848603125,46.993899378125,24.880276703125,46.703921278125,24.531740403125,46.308690578125C23.986203703125,46.370981478125,23.341083233125,46.991752578125,22.862655823125,46.448309178125C22.533602233125,46.076706578125,22.557413846125,45.668585178125,22.949249413125,45.357126078125C23.228512763125,45.133735958125,24.934399403125,44.375489848125,25.285102403125,44.332530565125C25.635805803125,44.289571266125,26.503902003125,44.336827468125,26.882747203125,44.373343018125C27.162010703125,44.401268068125,27.571164103125,44.609624058125,27.729194603125002,44.594586488125C27.913207503125,44.575255308125,28.473897903125,44.298161812125,28.716357203125,44.259499438125C29.662387803125,44.113437188125,31.859693503125,44.613917708125,32.723459203125,45.064998448125C33.143436203125,45.286241878125,33.271161203125004,45.705100578125,33.134774203125,46.156181378125C32.952931203125004,46.766211778125,31.363941203125002,46.293653278125,31.008913003125002,46.347352978125C30.881188403125,46.366684478125,30.586772403125,46.796283978125,30.279366503125,46.849983478125C29.610433603125,46.965974078125,29.502193003125,46.471937378125,28.993456403125002,46.233509578125C28.738008003125,46.212028278125,28.244423903125,47.258105278125,27.391480403125,46.832799178125C27.140359403125,46.708214978125,27.116548103124998,46.422530878125,26.778834303125,46.581483878125Z" fill="#FFFFFF" fill-opacity="0.800000011920929"/><path d="M27.668802040625,43.07811161054688C27.874460440625,43.43682721054687,27.623340640625,43.87072321054688,27.188209040625,43.834207010546876C26.807198140625,43.804135310546876,25.902298870625,42.889090110546874,25.698805840625,42.54970601054688C24.975753070625,41.342532610546876,25.378410115625,40.02366261054687,26.157750670625,38.966845150546874C26.378562640625,38.668273690546876,26.943583640625,37.87566222054687,27.328925140625,38.13127440254687C27.424178140625,38.200011890546875,27.422013040625,38.29452099054687,27.415518540625,38.39977404054687C27.387376540625,38.786414150546875,26.711948540625,39.85826291054688,26.616695240625,40.41674351054687C26.499794340625,41.106251510546876,26.525773040625,41.90315701054688,26.960902840625,42.47022771054687C27.108111340625,42.661399810546875,27.644990440625,43.037299110546876,27.666638140625,43.07811161054688L27.668802040625,43.07811161054688Z" fill="#FFFFFF" fill-opacity="0.800000011920929"/><path d="M26.441471125,48.866886105703124C26.694756005,48.677861258703125,27.835622825,48.95924839570313,28.279413925,48.92917656570312C28.954839925,48.88406717570312,30.227762225,48.22033673570313,30.418268225,49.159013895703126C30.396618325,50.024656645703125,27.129889135,50.01391604570313,26.469616625,49.64231330570313C26.142726667,49.45758539570313,26.183858983,49.058057755703125,26.441471125,48.866886105703124Z" fill="#FFFFFF" fill-opacity="0.800000011920929"/></g></svg>