<svg xmlns="http://www.w3.org/2000/svg" xmlns:xlink="http://www.w3.org/1999/xlink" fill="none" version="1.1" width="44" height="40" viewBox="0 0 44 40"><defs><clipPath id="master_svg0_6_15697"><rect x="0" y="0" width="44" height="40" rx="0"/></clipPath></defs><g clip-path="url(#master_svg0_6_15697)"><path d="M34.436826448477746,20.5368457673172C36.46190044847775,20.5861276673172,38.086755448477746,22.6365281673172,38.01480444847775,24.5868731673172C37.92486744847774,27.0703536673172,36.10664944847775,28.745918367317202,34.017118448477746,29.7748523673172C34.009626448477746,30.316947367317198,33.71733444847774,30.7485323673172,33.513477448477744,31.2204363673172C33.01882344847775,32.364360367317204,32.64858444847775,33.6158083673172,31.809177448477744,34.7358393673172C31.705749448477746,34.874720367317195,31.480909448477746,34.9807523673172,31.470418448477744,34.9986713673172C31.458425448477744,35.019580367317204,31.503395448477747,35.182357367317195,31.343006448477745,35.4003893673172C28.490514448477747,39.2622543673172,23.368625448477744,41.2454523673172,18.750377448477746,39.1472633673172C13.754397348477745,36.8773353673172,11.083280048477745,31.0681133673172,10.660577548477745,25.8487759673172C10.576637448477745,24.8108812673172,10.633596148477745,23.7774678673172,10.527171348477745,22.7470389673172C9.287544948477745,22.4379092673172,8.302738848477745,22.8889084673172,7.938495498477745,24.1433435673172C7.4378482884777455,25.8696824673172,8.409163848477744,27.5586882673172,9.779198848477744,28.5487943673172C9.968066248477745,28.6846913673172,10.269353148477744,28.6324233673172,10.219888948477745,28.9878463673172C10.177918448477746,29.2880133673172,9.819671148477745,29.2297723673172,9.605322148477745,29.1625713673172C8.972767448477745,28.9624583673172,7.959481758477745,27.8827506673172,7.622219428477745,27.3063078673172C6.818785448477745,25.9309083673172,6.670390318477745,23.8745356673172,7.790100978477745,22.6156216673172C8.523084548477746,21.7912784673172,9.612816048477745,21.6733032673172,10.651585548477744,21.8540001673172C10.765505548477744,21.2282761673172,10.770002148477746,20.5443111673172,11.606412848477746,20.6070326673172C11.564443048477745,21.2671032673172,11.398059848477745,21.9271734673172,11.354590448477744,22.5857521673172C10.960369048477745,28.6996213673172,13.695941448477745,37.2745693673172,20.430696448477747,38.8560553673172C26.984079448477743,40.394229367317195,31.860143448477746,34.6850653673172,33.20020144847774,28.9594713673172C33.275148448477744,28.8728553673172,33.434032448477744,28.9027233673172,33.529966448477744,28.8489613673172C35.41563944847775,27.799121067317202,37.499172448477744,26.477483867317197,37.13342644847775,23.9730969673172C36.854623448477746,22.0600868673172,35.13983144847775,21.0162175673172,33.270647448477746,21.4911113673172C32.954370448477746,21.5717526673172,32.44023544847774,22.0078197673172,32.251367448477744,21.4254025673172C32.05050644847775,20.8056534673172,33.32161344847775,20.8340259673172,33.362087448477745,20.5099640673172C33.371078448477746,20.4412680673172,33.10576244847775,19.3033184673172,33.06079444847774,19.1614484673172C33.006835448477744,18.9882166373172,32.56764444847774,18.1877696773172,32.66357844847775,18.0921927693172C32.95737244847774,18.144460587317198,33.58842844847774,17.8816266173172,33.80277444847775,18.119073527317198L34.43533144847774,20.5353511673172L34.436826448477746,20.5368457673172Z" fill="#FFFFFF" fill-opacity="0.800000011920929"/><path d="M30.562226298477746,1.9772199402078248C30.691135398477744,2.0190343302078246,30.701626798477747,2.0070872902078247,30.796061498477744,2.0339680302078245C31.050881398477745,2.105649950207825,31.232255198477745,2.325175780207825,31.260735198477747,2.3311493802078247C31.971235198477743,2.4685393802078246,33.024993198477745,3.053941880207825,33.684527198477745,3.4810465802078245C38.508127198477744,6.605182780207825,41.70987519847775,14.785879580207824,42.80110319847775,20.277012580207824C43.44564819847774,23.523604580207824,43.93880119847775,27.461628580207826,43.99426219847774,30.739581580207826C43.99876019847774,30.996439580207824,44.039228198477744,31.801369580207826,43.89383119847774,31.946227580207825C43.54607619847775,31.970122580207825,43.276268198477744,32.101532580207824,43.00645419847774,31.807343580207824L42.82508419847775,30.307999580207824L42.94949319847775,30.245276580207825C42.70516619847774,29.774867580207825,42.892532198477745,29.010256580207823,42.81908819847774,28.557766580207826C42.802601198477745,28.456219580207826,42.691675198477746,28.381547580207826,42.691675198477746,28.300904580207824C42.691675198477746,28.162022580207825,42.97497919847774,28.073912580207825,42.68867919847774,27.979830580207825C42.84157019847774,27.655770580207825,42.63621519847774,27.636355580207823,42.627222198477746,27.599020580207824C42.588247198477745,27.422804580207824,42.75913019847775,27.121142580207824,42.567264198477744,26.952389580207825L42.691675198477746,26.919533580207826L42.50880419847775,26.722409580207824C42.703665198477744,26.473015580207825,42.49531519847774,26.260956580207825,42.45484319847775,25.956305580207825C42.376901198477746,25.369414580207824,42.34841919847774,24.706355580207823,42.355913198477744,24.155303580207825C42.355913198477744,24.107512580207825,42.20601819847775,23.982068580207823,42.188034198477744,23.835717580207824C42.17004619847775,23.689368580207823,42.23899619847775,23.607234580207823,42.243492198477746,23.522109580207825C42.244993198477744,23.487761580207824,42.13406919847775,23.124873580207826,42.09959619847774,22.908333580207824C41.94070819847774,21.933161580207823,41.763834198477745,20.778782580207825,41.60044819847775,19.955931580207825C40.010071198477746,11.964897580207825,35.06355619847774,1.1454098102078247,24.873734898477746,2.3072536802078245C23.876938598477746,2.211677850207825,22.781208698477744,2.5954746802078246,21.952292908477745,2.9852451802078246C21.856360598477746,3.030046380207825,21.821885448477744,3.1883437802078247,21.661497398477746,3.2092510802078245C21.334728748477744,3.2540518802078244,20.961490898477745,2.8553219802078247,21.228302717477746,2.5193128802078246C21.306248438477745,2.4207503802078247,21.815888448477747,2.1175955502078248,21.953790948477746,2.048900540207825C24.290643898477747,0.8975100802078246,28.136934298477744,1.1737840502078247,30.565223698477745,1.9772187502078247L30.562226298477746,1.9772199402078248Z" fill="#FFFFFF" fill-opacity="0.800000011920929"/><path d="M12.831073448477746,7.002402176301574C10.371307448477745,9.252915476301574,8.398697848477745,12.862398276301574,7.022666448477745,15.881997576301575C4.207650148477745,22.058587576301576,2.4973552484777453,28.735457576301574,0.939952418477745,35.324221576301575C0.8515146784777451,35.498944576301575,0.22045933847774504,35.357075576301575,0.006110412077745056,35.43024957630158C-0.025367405522254943,35.39889257630158,0.08705338047774505,34.79108757630158,0.10803858847774506,34.685057576301574C0.21296465847774507,34.17731357630157,0.5382354684777451,33.456009576301575,0.6101847784777451,32.921385576301574C0.6251741484777451,32.81087257630158,0.5607195984777451,32.70484657630158,0.569713218477745,32.64511257630157C0.5802058384777451,32.576413576301576,0.7585801884777451,32.564469576301576,0.761578008477745,32.509213576301576C0.761578008477745,32.49726257630158,0.6551530184777451,32.443505576301575,0.6641466484777451,32.34792857630157C0.686630828477745,32.08957557630157,0.8739987484777451,31.575858576301574,0.938453358477745,31.301077576301573C0.993914228477745,31.063628576301575,1.016398448477745,30.672360576301575,1.094343548477745,30.452841576301573C1.322182948477745,29.806206576301573,1.529037348477745,29.038617576301576,1.704413748477745,28.296408576301573C1.839318548477745,27.722954576301575,2.056665448477745,27.203259576301576,2.196067048477745,26.649220576301573C2.248530148477745,26.441638576301575,2.1121263484777453,26.042910576301576,2.464378148477745,25.912985576301576L2.342963648477745,25.795008576301576C2.456883148477745,25.657622576301574,2.449388448477745,25.478415576301575,2.507847248477745,25.330573576301575C2.5663058484777452,25.182726576301576,2.5678050484777453,25.381348576301576,2.614272148477745,25.046832576301576C2.663737248477745,24.689915576301576,2.746179048477745,24.798934576301576,2.833118148477745,24.680953576301576C2.842111548477745,24.667515576301575,2.770162348477745,24.498763576301574,2.791147448477745,24.359881576301575C2.812132848477745,24.220997576301574,3.2153484484777453,22.966567576301575,3.275306248477745,22.827683576301574C3.335263948477745,22.688799576301573,3.507642448477745,22.458817576301573,3.5705983484777453,22.242281576301576C3.638050748477745,22.004834576301576,3.626059048477745,21.715119576301575,3.756467048477745,21.479167576301574L3.913856248477745,21.485140576301575C3.772955448477745,21.174515576301573,4.062251548477745,20.816109576301574,4.149190448477745,20.557753576301575C4.413004348477745,19.779706576301574,4.684313248477745,18.918030576301575,5.014080548477745,18.183289576301576C5.807022048477745,16.412150576301574,6.692897348477745,14.343829576301575,7.706183848477745,12.539834176301575C9.753741248477745,8.896003376301575,13.237286448477745,4.305375696301574,17.768592448477744,3.5347952963015747C18.066883448477746,3.4840205833015747,18.994730448477746,3.3675373943015745,19.251050448477745,3.407858532901575C19.525358448477746,3.4511664803015747,19.703731448477747,3.6303710763015746,19.604803448477746,3.9185920963015746C19.517864448477745,4.167985436301574,18.976741448477746,4.060462596301575,18.763893448477745,4.087343036301575C16.359586448477746,4.3800443963015745,14.587835448477746,5.397030876301574,12.831073448477746,7.002402176301574Z" fill="#FFFFFF" fill-opacity="0.800000011920929"/><path d="M21.437876173477747,11.9395036558172C21.533808673477743,12.162015902317199,21.575778473477744,12.278498832317199,21.562288773477746,12.5249055623172C21.433380073477746,14.7679528423172,20.028870073477744,17.4605041423172,18.759263973477744,19.2824188423172C18.684316573477744,19.3914338423172,18.565899873477747,19.4705826423172,18.480460673477744,19.5691462423172C19.017082673477745,19.8110715423172,19.622654873477746,20.0350781423172,20.057350173477744,20.447249542317202C20.315168373477746,20.690670142317202,20.833802173477746,21.379115242317198,20.190755873477745,21.4537850423172C19.837005173477746,21.4941064423172,19.601672173477745,21.0699874423172,19.358841373477745,20.8922768423172C18.126709473477746,19.990280242317198,16.299496373477744,19.8558751423172,14.872502273477744,20.3098622423172C14.619180473477744,20.3905040423172,13.382551613477744,21.1043387423172,13.638870906477745,20.2740203423172C13.724310673477746,19.9962531423172,14.302903163477746,19.7364040423172,14.571214243477746,19.6318699423172C15.608483273477745,19.2301517423172,16.689221873477745,19.2674866423172,17.786448973477746,19.3481293423172C17.665034273477744,18.9195314423172,18.026279473477743,18.5954691423172,18.237631273477746,18.2564741423172C19.267405973477743,16.6018167423172,20.121803773477744,14.8545707423172,20.607462373477745,12.8937711123172C20.671915473477746,12.6324308523172,20.607462373477745,12.0544951523172,20.937230073477746,11.9604130663172C21.081129073477747,11.9200924953172,21.268496973477745,12.0320954693172,21.439376773477747,11.9380122423172L21.437876173477747,11.9395036558172Z" fill="#FFFFFF" fill-opacity="0.800000011920929"/><path d="M19.126518273477746,1.2424650188796997C19.457784673477747,1.4545240188796997,19.706609673477743,1.5620471188796996,19.998903773477746,1.8502679188796998C20.235737773477744,2.0847274188797,20.656939473477745,2.5028719188796997,20.737881673477744,2.8134934188796996C20.755868873477745,2.8836816188796996,20.686918273477744,2.9658176188797,20.703406273477746,3.0091251188797C20.707903873477747,3.0195788188796997,20.794842673477746,3.0180853188796997,20.799339273477745,3.0479530188796997C20.818825673477747,3.1913165188796997,20.832316373477745,3.5318061188797,20.734886173477747,3.6318615188797C20.568502373477745,3.8050932188796995,20.033380973477744,3.4959651188797,19.886483173477746,3.3764952188796995C19.790550173477744,3.2988397188797,19.636159373477746,3.0165924188796995,19.529733673477743,2.9150427188797C18.012801673477746,1.4619913188796998,16.336982673477745,0.6033017088796997,14.177004773477744,1.2140910188796996C14.028609573477745,1.2559054188796996,13.923683073477745,1.3947893188796998,13.821754773477744,1.4171898188796996C13.742310773477746,1.4351102188796998,13.652374373477745,1.3634285188796997,13.575927973477745,1.3992692188796998C13.554942673477745,1.4097228188796997,13.349587073477744,1.6591162188796997,13.238665573477745,1.7248248188796997C12.618102893477745,2.0877145188796997,12.655576453477746,1.7576788188796997,12.174415573477745,1.4814049188796996C12.385767193477745,1.4366038188796997,12.259855330477745,1.2932398188796996,12.303324833477745,1.1842236188796997C12.463711813477746,0.7839996788796997,13.465006373477745,0.3494281488796997,13.877215873477745,0.22697156887969971C15.615990373477745,-0.2912288911203003,17.468685573477746,0.1343824388796997,18.979621373477745,1.0483267188796996C19.074053773477743,1.1065682188796997,19.083048773477746,1.2185712188796998,19.126518273477746,1.2469454188796998L19.126518273477746,1.2424650188796997Z" fill="#FFFFFF" fill-opacity="0.800000011920929"/><path d="M16.019159317227746,23.3712871026297C15.965197317227744,23.1652008026297,15.909735917227746,23.0039162826297,16.082114717227746,22.8336718376297C16.299461117227747,22.6992691756297,16.752142917227744,23.1218917326297,16.945506517227745,23.2338947326297C17.552578917227745,23.5863308326297,18.167146217227746,24.0029808626297,18.888137317227745,24.0612223626297C19.301846017227746,24.0955693626297,19.700565817227744,23.9432468626297,20.111274717227744,24.1299184626297C20.123266717227743,24.7735619626297,19.262872717227744,24.7422023626297,18.789206917227744,24.8437505626297C18.489418017227745,26.5372351626297,16.717666617227746,26.3311513626297,16.642719217227746,24.6959059626297C15.956202717227745,24.6092899626297,15.271185617227745,24.4659273626297,14.661115517227746,24.1269310626297C14.440770577227745,24.0044733626297,13.799222867227744,23.5908107726297,13.970102362227745,23.3100559126297C14.166463627227746,22.9859942526297,14.461755737227746,23.1920804426297,14.757047817227745,23.2458419526297C14.700088367227744,23.0890373926297,14.745056017227745,22.9232728326297,14.861973387227746,22.8023099992297C15.203732517227746,22.7186814696297,15.696885017227745,23.2622691726297,16.017658917227745,23.3712847826297L16.019159317227746,23.3712871026297Z" fill="#FFFFFF" fill-opacity="0.800000011920929"/><path d="M14.530846082852745,18.997199168489075C14.132126482852746,19.473584768489076,13.304709982852746,20.566735868489076,12.765090392852745,20.789246668489074C12.595710172852746,20.859435168489075,12.415836212852746,20.881835068489075,12.238960787852745,20.922156468489074C12.117546707852744,20.834048368489075,12.271937735852745,20.238191768489074,12.334893092852745,20.108268368489075C12.406842912852746,19.958931568489074,12.896997022852744,19.557213468489074,13.034899572852744,19.392943968489075C13.526552982852746,18.809033968489075,14.012210582852745,18.216165668489076,14.482878682852744,17.632257068489075C14.599796282852745,17.485905768489076,14.691231982852745,17.102109068489074,14.949050382852745,17.154378068489073C14.847122182852745,17.033414468489074,14.980527882852744,16.887063668489077,15.073462982852746,16.748180068489074C15.656551782852745,15.868583068489075,16.413519382852744,14.887436768489074,16.834721982852745,13.901810768489074C17.083547082852746,13.319395008489074,16.914165982852744,12.544333908489074,17.854003882852744,12.723539395489075C17.993406282852746,12.952025328489075,17.963427982852746,13.167071428489075,17.906466982852745,13.410490928489075C17.464279182852746,15.260779968489075,15.747987482852745,17.547134568489074,14.532344282852744,19.000187068489076L14.530846082852745,18.997199168489075Z" fill="#FFFFFF" fill-opacity="0.800000011920929"/><path d="M27.864053217227745,22.62608865903595L27.811589217227745,22.99345933903595C27.979469717227744,23.11442219903595,28.552067717227743,22.51856788103595,28.787400717227744,22.99644672903595C28.898323517227745,23.22344016903595,28.595536217227746,23.41608422903595,28.400672917227745,23.55048922903595C27.897027517227745,23.89396532903595,27.221004917227745,24.13290372903595,26.640912017227745,24.30912292903595C26.488019017227746,24.55254352903595,26.589948417227745,24.76609482903595,26.459538917227746,25.07074392903595C25.958892117227744,26.23856292903595,24.474936517227746,26.25498782903595,24.461446417227744,24.82583102903595C23.993776727227743,24.69889322903595,23.124388817227747,25.01399502903595,23.280277962227746,24.195627429035948C24.091207127227744,24.08511702903595,24.783718417227746,24.11498632903595,25.449250017227744,23.562436429035948C25.879446017227746,23.20552044903595,25.972382317227744,22.53648990403595,26.606434617227745,22.814257349035948L26.519495717227745,23.43550109903595C26.774315617227746,23.29064380903595,27.342416717227746,22.46928857303595,27.576251517227746,22.50214296445595C27.657193617227744,22.51409022203595,27.771114817227744,22.60817344903595,27.865546717227744,22.62758573903595L27.864053217227745,22.62608865903595Z" fill="#FFFFFF" fill-opacity="0.800000011920929"/><path d="M25.023509495352744,11.8230493735047C25.357773495352745,12.0216682745047,25.141925095352747,14.009347584504699,25.071476895352745,14.3916505845047C24.843636695352746,15.6206954845047,23.993735995352743,17.7562204845047,23.238269255352744,18.7209387845047C23.040407525352744,18.9733191845047,22.727128815352746,19.251085384504698,22.389866463352746,19.2256985845047C22.403356403352745,19.0838280845047,22.335904391352745,18.9524112845047,22.325412973552744,18.8135271845047C22.281944610352745,18.211698184504698,23.025419455352743,17.2410055845047,23.296727945352746,16.643656384504702C23.800373095352747,15.534080184504699,24.224574395352747,14.2199111845047,24.378965595352746,13.010279384504699C24.446417595352745,12.483118894504699,24.151125495352744,11.6990979945047,25.025010095352744,11.8230482345047L25.023509495352744,11.8230493735047Z" fill="#FFFFFF" fill-opacity="0.800000011920929"/><path d="M21.058695957852745,22.56039989782345C21.091672937852746,22.64850834772345,21.118652807852744,22.74109901872345,21.127648397852745,22.83667480872345C21.261054317852746,24.288233558723448,21.043707887852744,25.66661585872345,20.998739107852746,27.10622755872345C20.953770327852745,28.54583945872345,20.839851427852746,30.782911458723447,22.754003307852745,30.98302185872345C23.143729707852746,32.00896845872345,21.529366507852746,31.17118655872345,21.219084067852744,30.84861955872345C19.928493307852744,29.50159655872345,20.561047777852746,26.01009215872345,20.628499787852746,24.28225875872345C20.625501287852746,23.91787545872345,20.435137049852745,23.15476172872345,20.496592007852744,22.83816736872345C20.532567487852745,22.64701579472345,20.880321247852745,22.53053289672345,21.058695957852745,22.56039989782345Z" fill="#FFFFFF" fill-opacity="0.800000011920929"/><path d="M21.898144920852744,21.0341642063797C21.694288472852744,20.6862081063797,22.635624992852744,19.9380290463797,22.899438232852745,19.7647972063797C24.080606732852743,18.9882436173797,26.303538332852746,18.8598134363797,27.580639332852744,19.4243083263797C27.863939732852746,19.5497510763797,28.468013732852747,19.9365341663797,27.938887132852745,20.1366478063797C27.409760032852745,20.3367617063797,26.613821032852744,20.0336049163797,26.014243632852747,19.9798433163797C25.101387232852744,19.8977073463797,24.184031932852744,19.941016436379698,23.376101332852745,20.4278551063797C22.848472522852745,20.7459444063797,22.512710492852744,21.6016465063797,21.898144920852744,21.0341642063797Z" fill="#FFFFFF" fill-opacity="0.800000011920929"/><path d="M28.313747317227744,13.5090571641922C28.280770317227745,13.6628744141922,28.565568817227746,13.9018138941922,28.568567217227745,13.9272020441922C28.654008217227744,14.7575170641922,28.177342717227745,16.9602423641922,27.738153387227744,17.6770621641922C27.588258967227745,17.9234682641922,27.158062827227745,18.3789468641922,26.984184801227745,17.9384022641922C26.831291891227746,17.5486312641922,26.945213087227746,17.2454770641922,27.059131997227745,16.8870671641922C27.301960157227747,16.1314209641922,27.582264227227746,15.2607841641922,27.660207677227746,14.4095620541922C27.672199477227746,14.284119304192199,27.594253767227745,14.1467280341922,27.621235947227746,13.9839509441922C27.682693227227745,13.6016478461922,28.031947517227746,13.6240475241922,28.312249017227746,13.5090583035453L28.313747317227744,13.5090571641922Z" fill="#FFFFFF" fill-opacity="0.800000011920929"/><path d="M37.077861804727746,32.54057923216095C36.79006479472775,32.42708363216095,36.359868634727746,32.68095653216095,36.132028497727745,32.51220453216095C35.99262780672775,32.40916173216095,36.162006921727745,31.40412223216095,36.17250062572774,31.18160863216095C36.17849539472775,31.048698532160948,36.11853855072774,30.90533373216095,36.12753184872774,30.75151653216095C36.162006921727745,30.19448900216095,36.17100021272775,29.64791393216095,36.54423810472775,29.21334183216095C37.28771530472775,29.495589222160948,37.10334360472775,30.27214273216095,37.113837204727744,30.87845193216095C37.11683570472775,31.02480173216095,37.17229590472775,31.17563393216095,37.16929740472774,31.31899653216095C37.16180230472774,31.72220643216095,37.10184540472775,32.13885913216095,37.076363604727746,32.54206903216095L37.077861804727746,32.54057923216095Z" fill="#FFFFFF" fill-opacity="0.800000011920929"/><path d="M5.288399208477745,35.04047767083282L4.356056198477745,35.11663877083282C4.475971598477745,34.229574770832826,4.748779608477745,33.36789807083282,5.054564278477745,32.52713054083282C5.071052778477745,32.480836270832825,5.156492518477745,32.486808780832824,5.172981008477745,32.433047290832825C5.2599200484777455,32.12840021083282,5.157991748477745,31.550463273832825,5.690116698477745,31.634091804732826C6.289694198477745,31.728175030832826,5.835514398477745,32.606276750832826,5.759067998477745,32.966180370832824C5.676626198477745,33.360430570832825,5.634655498477745,33.79799047083282,5.538723098477745,34.19074597083282C5.507245398477745,34.317683370832825,5.324374068477745,35.013593570832825,5.288399208477745,35.04047767083282Z" fill="#FFFFFF" fill-opacity="0.800000011920929"/><path d="M24.119435776602746,34.21019701341095C24.207872876602746,34.31025274341095,24.293313476602744,34.29532036341095,24.146415176602744,34.51335156341095C23.903587276602746,34.87176013341095,22.611496676602744,35.15998216341095,22.170808976602746,35.18238206341095C21.472300776602744,35.21822366341095,20.229677426602745,35.01363015341095,19.657079916602743,34.60444742341095C19.499690353602745,34.49244439341095,19.262856986602745,34.25051871341095,19.532667296602746,34.12507366341095C19.874426286602745,33.96677649041095,20.147235076602744,34.23558406341095,20.447023776602745,34.31921261341095C21.431830876602746,34.59399271341095,22.280231176602744,34.66567623341095,23.269535076602743,34.33115983341095C23.627782776602743,34.21019701341095,23.816647976602745,33.86522823341095,24.119435776602746,34.21168956341095L24.119435776602746,34.21019701341095Z" fill="#FFFFFF" fill-opacity="0.800000011920929"/><path d="M9.693924873477744,34.34757957552033C9.686429773477744,34.368486775520324,9.512552843477746,34.358034275520325,9.651954673477745,34.64476167552033L9.560519143477745,34.72689787552032C9.253235683477746,34.592495075520326,8.963939443477745,34.84786067552032,8.643165573477745,34.80455387552033C8.727106630477746,34.33862217552033,8.832032243477745,31.658017836520326,9.367155123477746,31.616201293330324C9.442102293477745,31.610228803020323,9.600990103477745,31.755083905520326,9.644459473477745,31.826767445520325C9.668443173477744,31.867089185520324,9.887288773477746,32.42411673552032,9.890286273477745,32.45846360552032C9.915767973477745,32.73772367552032,9.689428273477745,33.50382487552032,9.663945273477745,33.778605075520325C9.654952173477746,33.884635375520325,9.800349773477745,34.041437975520324,9.693924873477744,34.34757957552033Z" fill="#FFFFFF" fill-opacity="0.800000011920929"/><path d="M40.380172772852745,29.379121003489075C40.39366267285274,29.406000613489073,40.483600242852745,29.407495443489076,40.51807753285274,29.519498343489076C40.606514732852744,29.803238213489074,40.649985362852746,30.420002143489075,40.54206125285275,30.682834843489076C40.74891623285274,30.763476043489074,40.637995822852744,31.305571243489076,40.64548872285275,31.544511943489074C40.65148584285274,31.717743743489073,40.720435932852745,31.885000543489074,40.72493253285275,32.05673774348907C40.66197501285274,32.327037943489074,40.065398172852746,32.19711504348908,39.85254612285274,32.28821094348908L39.674171432852745,29.447814823489075C39.96346651285275,28.621979723489076,40.038413722852745,28.686193673489075,40.37867693285275,29.377626183489074L40.380172772852745,29.379121003489075Z" fill="#FFFFFF" fill-opacity="0.800000011920929"/></g></svg>