<svg xmlns="http://www.w3.org/2000/svg" xmlns:xlink="http://www.w3.org/1999/xlink" fill="none" version="1.1" width="18" height="18" viewBox="0 0 18 18"><defs><clipPath id="master_svg0_9_10949"><rect x="0" y="0" width="18" height="18" rx="0"/></clipPath></defs><g clip-path="url(#master_svg0_9_10949)"><path d="M12.305530514379884,6.602512609265137L12.305530514379884,12.867975209265136C12.305406614379883,13.178598409265136,12.557283414379883,13.430475209265136,12.868030514379884,13.430475209265136C13.178729014379883,13.430353209265137,13.430532414379883,13.178547809265137,13.430530514379884,12.867975209265136L13.430530514379884,5.341275099265137C13.466152214379882,5.157794299265137,13.408214614379883,4.9686111192651365,13.275955214379882,4.836543979265136C13.209262814379883,4.769612669265137,13.126710914379883,4.720654309265137,13.035993614379883,4.6942313312651365C12.981621714379882,4.677279233965137,12.924986814379883,4.668687582016137,12.868031514379883,4.668750345706937L5.231250214379883,4.668750345706937C4.920589744379883,4.668750345706937,4.668750164379883,4.920589919265137,4.668750164379883,5.231250349265137C4.668750164379883,5.541910769265137,4.920589744379883,5.793750309265137,5.231250214379883,5.793750309265137L11.523262514379883,5.793750309265137L4.271006194379883,13.046006209265137C4.0513499083798825,13.265662209265138,4.0513499083798825,13.621837609265137,4.271006194379883,13.841493609265136C4.490662484379882,14.061149609265136,4.846837584379883,14.061149609265136,5.066493864379883,13.841493609265136L12.305530514379884,6.602512609265137Z" fill="#FFFFFF" fill-opacity="0.6000000238418579"/></g></svg>