<svg xmlns="http://www.w3.org/2000/svg" xmlns:xlink="http://www.w3.org/1999/xlink" fill="none" version="1.1" width="24" height="24" viewBox="0 0 24 23.999998092651367"><defs><clipPath id="master_svg0_9_10948"><rect x="0" y="0" width="24" height="23.999998092651367" rx="0"/></clipPath></defs><g clip-path="url(#master_svg0_9_10948)"><path d="M12.750073618530273,3.1499998553674318C12.750073618530273,2.7357750853674316,12.414297618530274,2.4000000953674316,12.000073418530274,2.4000000953674316C11.585847818530274,2.4000000953674316,11.250073418530274,2.735774905367432,11.250073418530274,3.1499998553674318L11.250073418530274,4.084805295367431C10.504666318530273,4.154487995367432,9.779240118530273,4.328964695367432,9.073795818530273,4.608204395367432C8.053196418530273,5.012304495367432,7.154845718530273,5.602329495367432,6.378671218530274,6.3785793953674315C5.602496118530274,7.154754595367431,5.012396318530273,8.05310439536743,4.608296118530273,9.073704695367432C4.282367718530273,9.896933095367432,4.099220518530274,10.747314895367431,4.058754118530273,11.624999495367431L3.1499995585302734,11.624999495367431C2.7357746085302734,11.624999495367431,2.3999996185302734,11.960849295367431,2.3999996185302734,12.374999495367431C2.3999996185302734,12.789224095367432,2.7357746085302734,13.124999095367432,3.1499995585302734,13.124999095367432L4.129014118530273,13.124999095367432C4.216312418530274,13.739286095367431,4.3760788185302735,14.339754095367432,4.608295418530274,14.926404095367431C5.012395618530274,15.947004095367431,5.602420518530273,16.845354095367433,6.378670418530273,17.621529095367432C7.154845718530273,18.39770509536743,8.053195518530273,18.987879095367433,9.073795818530273,19.39190509536743C9.779250118530275,19.67114709536743,10.504644418530274,19.845627095367433,11.250073418530274,19.91530609536743L11.250073418530274,20.84999709536743C11.250073418530274,21.264222095367433,11.585848818530273,21.59999709536743,12.000073418530274,21.59999709536743C12.414297618530274,21.59999709536743,12.750073618530273,21.264222095367433,12.750073618530273,20.84999709536743L12.750073618530273,19.915318095367432C13.495530618530273,19.845644095367433,14.221005618530274,19.671162095367432,14.926495618530273,19.39190509536743C15.947094618530274,18.987879095367433,16.845444618530273,18.39770509536743,17.621620618530272,17.621529095367432C18.397795618530274,16.845354095367433,18.987970618530273,15.947004095367431,19.391996618530275,14.926404095367431C19.624212618530272,14.339754095367432,19.783979618530275,13.739286095367431,19.871276618530274,13.124999095367432L20.849996618530273,13.124999095367432C21.264221618530275,13.124999095367432,21.599996618530273,12.789224095367432,21.599996618530273,12.374999495367431C21.599996618530273,11.960849295367431,21.264221618530275,11.624999495367431,20.849996618530273,11.624999495367431L19.941533618530272,11.624999495367431C19.901052618530272,10.747357795367432,19.717855618530272,9.896925895367431,19.391996618530275,9.073704695367432C18.987970618530273,8.053105395367432,18.397795618530274,7.154754595367431,17.621620618530272,6.378580095367432C16.845444618530273,5.602405095367432,15.947094618530274,5.012305295367431,14.926495618530273,4.608205095367431C14.221005618530274,4.328890895367431,13.495530618530273,4.154437295367432,12.750073618530273,4.084781295367431L12.750073618530273,3.1499998553674318ZM11.250073418530274,5.593065495367432L11.250073418530274,6.149999895367431C11.250073418530274,6.564225195367432,11.585848818530273,6.899999595367432,12.000073418530274,6.899999595367432C12.414297618530274,6.899999595367432,12.750073618530273,6.564225195367432,12.750073618530273,6.149999895367431L12.750073618530273,5.593036195367432C13.305284618530273,5.657387695367431,13.846708618530274,5.794010895367432,14.374345618530274,6.002979295367432C15.202421618530273,6.330729495367432,15.931270618530274,6.809454395367432,16.560970618530273,7.439228995367432C17.190746618530273,8.068929695367432,17.669470618530273,8.797854895367433,17.997295618530273,9.625854995367431C18.252907618530273,10.271586895367431,18.400327618530273,10.937969695367432,18.439508618530272,11.624999495367431L17.849997618530274,11.624999495367431C17.435772618530272,11.624999495367431,17.099997618530274,11.960849295367431,17.099997618530274,12.374999495367431C17.099997618530274,12.789224095367432,17.435772618530272,13.124999095367432,17.849997618530274,13.124999095367432L18.352316618530274,13.124999095367432C18.277213618530276,13.549668095367432,18.158868618530274,13.966087095367431,17.997295618530273,14.374255095367431C17.669470618530273,15.202330095367431,17.190746618530273,15.931179095367431,16.560970618530273,16.560879095367433C15.931270618530274,17.190655095367433,15.202419618530273,17.66938009536743,14.374345618530274,17.99720409536743C13.846708618530274,18.206069095367432,13.305284618530273,18.34269609536743,12.750073618530273,18.407061095367432L12.750073618530273,17.849998095367432C12.750073618530273,17.43577309536743,12.414297618530274,17.099998095367432,12.000073418530274,17.099998095367432C11.585847818530274,17.099998095367432,11.250073418530274,17.43577309536743,11.250073418530274,17.849998095367432L11.250073418530274,18.407044095367432C10.694912918530273,18.34267309536743,10.153537318530272,18.206052095367433,9.625946018530273,17.99720409536743C8.797870118530273,17.66938009536743,8.069020718530274,17.190655095367433,7.439245718530273,16.560879095367433C6.809546518530273,15.931179095367431,6.3308213185302735,15.202328095367431,6.0029959185302735,14.374255095367431C5.8414225185302735,13.966087095367431,5.723078218530274,13.549668095367432,5.6479742185302735,13.124999095367432L6.149999418530273,13.124999095367432C6.564224718530274,13.124999095367432,6.899999118530274,12.789224095367432,6.899999118530274,12.374999495367431C6.899999118530274,11.960849295367431,6.564224718530274,11.624999495367431,6.149999418530273,11.624999495367431L5.5607784185302735,11.624999495367431C5.599945518530273,10.93796869536743,5.747330618530274,10.271586895367431,6.003071118530274,9.625854995367431C6.3308213185302735,8.797779095367432,6.809546518530273,8.068929695367432,7.439321018530274,7.439154595367432C8.069020718530274,6.809455395367432,8.797946018530274,6.3307301953674315,9.625946018530273,6.002904895367432C10.153537318530272,5.794058095367431,10.694913818530273,5.657436395367432,11.250073418530274,5.593065495367432ZM10.499999018530273,13.039200095367432C10.499999018530273,13.732049095367431,11.249999018530273,14.165024095367432,11.849999418530274,13.818674095367431L13.649999618530273,12.779400095367432C14.249998618530274,12.432975095367432,14.249998618530274,11.566950295367432,13.649999618530273,11.220600595367431L11.849999418530274,10.18132539536743C11.249999018530273,9.83490039536743,10.499999018530273,10.267950495367431,10.499999018530273,10.960800695367432L10.499999018530273,13.039200095367432Z" fill-rule="evenodd" fill="#FFFFFF" fill-opacity="0.8999999761581421"/></g></svg>