<svg xmlns="http://www.w3.org/2000/svg" xmlns:xlink="http://www.w3.org/1999/xlink" fill="none" version="1.1" width="14" height="14" viewBox="0 0 14 14"><defs><clipPath id="master_svg0_9_11215/5_07893"><rect x="0" y="0" width="14" height="14" rx="0"/></clipPath></defs><g clip-path="url(#master_svg0_9_11215/5_07893)"><path d="M4.28371077734375,5.9533253C4.18269211034375,5.7783251,4.18269211034375,5.6033249,4.28371077734375,5.4283252L5.39609817734375,3.5016627L6.5084857773437506,1.57499996C6.60950497734375,1.399999917,6.76105477734375,1.3125,6.96313617734375,1.3125C7.16521787734375,1.3125,7.31676747734375,1.400000021,7.4177860773437505,1.57499996L9.64256097734375,5.4283247C9.74357937734375,5.6033244,9.74357937734375,5.7783251,9.64256097734375,5.9533248C9.541498177343751,6.1283245,9.38994837734375,6.2158251,9.18786767734375,6.2158251L4.73840451734375,6.2158251C4.53632336734375,6.2158251,4.38477325734375,6.128325,4.28371077734375,5.9533253ZM6.96317957734375,2.5374999000000003L6.15393587734375,3.9391623L5.34464837734375,5.3408251L8.58171037734375,5.3408251L6.96317957734375,2.5374999000000003ZM9.26604847734375,7.4425316C9.66916127734375,7.4425316,9.92186117734375,7.8779755,9.72187997734375,8.2279749L8.59571127734375,10.198782L7.4765424773437505,12.157294C7.27498677734375,12.510006,6.76643607734375,12.510006,6.56488037734375,12.157294L5.44571157734375,10.198782L4.31958693734375,8.2279749C4.11956191034375,7.8779755,4.37226211734375,7.4425316,4.77537423734375,7.4425316L9.26604847734375,7.4425316Z" fill="#FFFFFF" fill-opacity="0.4000000059604645"/></g></svg>