<svg xmlns="http://www.w3.org/2000/svg" xmlns:xlink="http://www.w3.org/1999/xlink" fill="none" version="1.1" width="24" height="24" viewBox="0 0 24 23.999998092651367"><defs><clipPath id="master_svg0_9_10706"><rect x="0" y="0" width="24" height="23.999998092651367" rx="0"/></clipPath></defs><g clip-path="url(#master_svg0_9_10706)"><path d="M14.804550370605469,2.9210999043914794L19.50337637060547,7.93012450439148C19.64582237060547,8.08147550439148,19.758127370605468,8.25858430439148,19.83427637060547,8.451974104391478C19.911092370605466,8.64512610439148,19.95037037060547,8.85115600439148,19.95000037060547,9.05902360439148L19.95000037060547,19.349998704391478C19.95080137060547,19.650972704391478,19.89053537060547,19.94898270439148,19.77285137060547,20.22599870439148C19.660240370605468,20.49338570439148,19.496559370605468,20.73624470439148,19.29097537060547,20.940973704391478C19.08626737060547,21.14658070439148,18.843402370605467,21.31026370439148,18.57600037060547,21.42284670439148C18.298984370605467,21.54053170439148,18.00097437060547,21.60079670439148,17.699999370605468,21.599998704391478L6.374999970605469,21.599998704391478C6.070124970605469,21.599998704391478,5.778149770605468,21.54097270439148,5.4989996706054685,21.42284670439148C5.231617070605469,21.31022570439148,4.988760230605469,21.146545704391478,4.784024710605468,20.940973704391478C4.578436610605468,20.73625070439148,4.414755340605469,20.49338970439148,4.302149770605468,20.22599870439148C4.184485554605469,19.948977704391478,4.124221324925469,19.650972704391478,4.124999880790669,19.349998704391478L4.124999880790669,4.649999604391479C4.124999880790669,4.34519960439148,4.184024929605469,4.053149604391479,4.302149770605468,3.7739996043914794C4.414765360605469,3.506613404391479,4.578445200605469,3.2637558543914795,4.784024710605468,3.0590246343914798C4.9887559406054685,2.8534455043914795,5.231613470605469,2.6897654843914793,5.4989996706054685,2.5771497343914795C5.776024370605469,2.4594960773914796,6.074027370605469,2.3992320299714796,6.374999970605469,2.4000000357623796L13.60117337060547,2.4000000357623796C13.829098670605468,2.4000000357623796,14.047649370605468,2.4453000393914794,14.256824370605468,2.5359000443914796C14.464050370605468,2.6250827743914793,14.65054537060547,2.7562402743914793,14.804550370605469,2.9210999043914794ZM14.099998470605469,4.3625249043914796L14.099998470605469,7.27499940439148C14.099998470605469,7.376999104391479,14.11957357060547,7.474274904391479,14.15864837060547,7.56674930439148C14.196288370605469,7.65599560439148,14.25098637060547,7.737035504391479,14.319673370605468,7.80532430439148C14.46003337060547,7.946413804391479,14.650985370605468,8.02551150439148,14.84999837060547,8.02499940439148L17.53567437060547,8.02499940439148L14.099998470605469,4.3625249043914796ZM6.374999970605469,3.8999997043914796C6.175978670605469,3.8994461043914797,5.985009870605468,3.9785505043914795,5.844674970605469,4.1196748043914795C5.703550370605469,4.26000980439148,5.624445870605468,4.45097830439148,5.6249998706054685,4.649999604391479L5.6249998706054685,19.349998704391478C5.624488470605469,19.54901170439148,5.703586470605469,19.73996470439148,5.844674970605469,19.88032370439148C5.9129861706054685,19.94901870439148,5.994052570605469,20.00371670439148,6.0833250706054685,20.041348704391478C6.175588570605469,20.080402704391478,6.274811270605468,20.10035570439148,6.374999970605469,20.099998704391478L17.699999370605468,20.099998704391478C17.89902937060547,20.10059470439148,18.090014370605466,20.02148270439148,18.23032437060547,19.88032370439148C18.37148437060547,19.74001370439148,18.45059537060547,19.54902870439148,18.449999370605468,19.349998704391478L18.449999370605468,9.52499940439148L14.84999837060547,9.52499940439148C14.54512437060547,9.52499940439148,14.253149370605469,9.46597410439148,13.973999070605469,9.347849104391479C13.70660397060547,9.23524830439148,13.463743170605468,9.07156630439148,13.259023670605469,8.86597420439148C13.053449670605469,8.66123940439148,12.889770470605468,8.418382904391478,12.777149170605469,8.150999804391478C12.659475370605469,7.87398170439148,12.59920887060547,7.575974204391479,12.599998470605469,7.27499940439148L12.599998470605469,3.8999997043914796L6.374999970605469,3.8999997043914796ZM6.899999570605469,9.44999960439148C6.899999570605469,9.03577490439148,7.2357744706054685,8.69999960439148,7.649999570605469,8.69999960439148L11.025000070605468,8.69999960439148C11.43922467060547,8.69999960439148,11.775000070605468,9.03577450439148,11.775000070605468,9.44999960439148C11.775000070605468,9.86422510439148,11.43922467060547,10.19999960439148,11.025000070605468,10.19999960439148L7.649999570605469,10.19999960439148C7.2357744706054685,10.19999960439148,6.899999570605469,9.86422510439148,6.899999570605469,9.44999960439148ZM6.899999570605469,13.04999970439148C6.899999570605469,12.63577570439148,7.2357744706054685,12.299999904391479,7.649999570605469,12.299999904391479L16.42499937060547,12.299999904391479C16.839223370605467,12.299999904391479,17.17499937060547,12.63577570439148,17.17499937060547,13.04999970439148C17.17499937060547,13.46422470439148,16.839223370605467,13.79999970439148,16.42499937060547,13.79999970439148L7.649999570605469,13.79999970439148C7.2357744706054685,13.79999970439148,6.899999570605469,13.46422470439148,6.899999570605469,13.04999970439148ZM6.899999570605469,16.57500170439148C6.899999570605469,16.16077670439148,7.2357744706054685,15.825001704391479,7.649999570605469,15.825001704391479L16.42499937060547,15.825001704391479C16.839223370605467,15.825001704391479,17.17499937060547,16.16077670439148,17.17499937060547,16.57500170439148C17.17499937060547,16.98922570439148,16.839223370605467,17.32500170439148,16.42499937060547,17.32500170439148L7.649999570605469,17.32500170439148C7.2357744706054685,17.32500170439148,6.899999570605469,16.98922570439148,6.899999570605469,16.57500170439148Z" fill="#FFFFFF" fill-opacity="0.8999999761581421"/></g></svg>