<svg xmlns="http://www.w3.org/2000/svg" xmlns:xlink="http://www.w3.org/1999/xlink" fill="none" version="1.1" width="192" height="24" viewBox="0 0 192 24"><defs><clipPath id="master_svg0_28_01479"><rect x="0" y="0" width="24" height="24" rx="0"/></clipPath></defs><g clip-path="url(#master_svg0_28_01479)"><path d="M4.00590445,7.5866312484375C3.0996760500000002,8.2854132484375,2.30252856,9.1085619484375,1.6452601,10.0394821484375C1.601498395,10.1014642484375,1.492359959,10.0479965484375,1.5257907878,9.9798860484375C2.18309772,8.6406922484375,3.00303185,7.4426002484375,3.94346455,6.4177789484375L3.94346455,2.3066350184375C3.94346455,1.9039529284375,4.26990275,1.5775146484375,4.67258475,1.5775146484375L19.32212825,1.5775146484375C19.72480925,1.5775146484375,20.05124825,1.9039529284375,20.05124825,2.3066351984375L20.05124825,7.6341743484375C17.80229225,5.9056787484375,14.97097625,4.968594348437501,11.99743825,4.968594348437501C9.05251405,4.968594348437501,6.24601885,5.8880057484375,4.00590445,7.5866312484375ZM11.99740025,13.7052316484375C13.57019725,13.7052316484375,14.84520025,12.4272906484375,14.84520025,10.8508701484375C14.84520025,10.5579948484375,14.80023425,10.2668876484375,14.71187425,9.9877243484375C14.48190025,10.4756345484375,13.99161625,10.7869682484375,13.45324025,10.7869682484375C12.68444625,10.7869682484375,12.06121625,10.1623029484375,12.06121625,9.3917388484375C12.06121625,8.8519353484375,12.37171125,8.360740648437499,12.85867725,8.130179448437499C12.58013625,8.0415949484375,12.28962825,7.9965081484375,11.99740025,7.9965081484375C10.42460535,7.9965081484375,9.149601449999999,9.2744493484375,9.149601449999999,10.8508701484375C9.149601449999999,12.4272906484375,10.42460535,13.7052316484375,11.99740025,13.7052316484375ZM19.57659725,15.6211136484375C20.71522325,14.5601486484375,21.70302725,13.2622796484375,22.47361525,11.7756956484375C22.50872825,11.7079536484375,22.40293525,11.6424446484375,22.35839425,11.7043986484375C21.68341825,12.6432386484375,20.86520725,13.4705746484375,19.93596825,14.1690466484375C19.93681925,14.1637686484375,19.93766825,14.1584896484375,19.93850925,14.1532096484375C17.73317925,15.8073336484375,14.98593125,16.7114386484375,12.10003625,16.732809648437502C12.09589025,16.7328416484375,12.09174425,16.7328696484375,12.08759825,16.7328966484375C12.05753525,16.733082648437502,12.02745225,16.7331786484375,11.99734925,16.7331786484375C9.075425150000001,16.7331676484375,6.28893045,15.8278286484375,4.05618195,14.1530696484375C4.66503215,17.9707626484375,7.68384075,21.1158006484375,11.72905825,22.3813956484375C11.90429525,22.4362216484375,12.09041825,22.4362216484375,12.26565425,22.3813976484375C15.77907325,21.2821806484375,18.51821525,18.7651956484375,19.57659725,15.6211136484375Z" fill-rule="evenodd" fill="#FFFFFF" fill-opacity="1"/></g><g><path d="M38.7360005,18.128C42.144,18.128,44.672001,15.696,44.672001,12.4C44.672001,9.1039991,42.144,6.6719999,38.7360005,6.6719999C35.2960002,6.6719999,32.76800001,9.1199999,32.76800001,12.4C32.76800001,15.68,35.2960002,18.128,38.7360005,18.128ZM38.7360005,16.704C36.224000000000004,16.704,34.368,14.88,34.368,12.4C34.368,9.9200001,36.224000000000004,8.0959997,38.7360005,8.0959997C41.2160006,8.0959997,43.072001,9.9200001,43.072001,12.4C43.072001,14.88,41.2160006,16.704,38.7360005,16.704ZM51.712,9.4399996C50.464000999999996,9.4399996,49.375999,9.9200001,48.688,10.8640003L48.688,9.5199995L47.216001,9.5199995L47.216001,21.104L48.752001,21.104L48.752001,16.72C49.456001,17.631999999999998,50.512001,18.096001,51.712,18.096001C54.192001000000005,18.096001,56,16.368000000000002,56,13.76C56,11.1679993,54.192001000000005,9.4399996,51.712,9.4399996ZM51.584,16.752000000000002C49.968,16.752000000000002,48.736000000000004,15.568,48.736000000000004,13.76C48.736000000000004,11.9680004,49.968,10.7839994,51.584,10.7839994C53.216,10.7839994,54.448002,11.9680004,54.448002,13.76C54.448002,15.568,53.216,16.752000000000002,51.584,16.752000000000002ZM66.112,13.808C66.112,11.1999998,64.368,9.4399996,61.920002,9.4399996C59.472,9.4399996,57.664001,11.2479992,57.664001,13.76C57.664001,16.288,59.488001,18.096001,62.224001,18.096001C63.632000000000005,18.096001,64.800003,17.616,65.56800100000001,16.72L64.720001,15.728C64.096001,16.416,63.263999999999996,16.752000000000002,62.272001,16.752000000000002C60.592000999999996,16.752000000000002,59.391999999999996,15.76,59.200001,14.271999L66.08000200000001,14.271999C66.096001,14.128,66.112,13.936,66.112,13.808ZM61.920002,10.7360001C63.408001,10.7360001,64.47999999999999,11.7439995,64.639999,13.167999L59.200001,13.167999C59.360001,11.7279997,60.448,10.7360001,61.920002,10.7360001ZM73.08800099999999,9.4399996C71.743999,9.4399996,70.656002,9.935999899999999,70.03200100000001,10.7999992L70.03200100000001,9.5199995L68.560001,9.5199995L68.560001,18L70.096001,18L70.096001,13.632C70.096001,11.7919998,71.152,10.816,72.78399999999999,10.816C74.240002,10.816,75.071999,11.632,75.071999,13.296L75.071999,18L76.608002,18L76.608002,13.12C76.608002,10.6239996,75.152,9.4399996,73.08800099999999,9.4399996ZM89.632,18.128C91.37599900000001,18.128,92.880001,17.52,93.903999,16.368000000000002L92.86399800000001,15.36C92,16.272,90.944,16.704,89.712002,16.704C87.18400199999999,16.704,85.312,14.88,85.312,12.4C85.312,9.9200001,87.18400199999999,8.0959997,89.712002,8.0959997C90.944,8.0959997,92,8.5119991,92.86399800000001,9.4239998L93.903999,8.4159994C92.880001,7.2639999,91.37599900000001,6.6719999,89.648003,6.6719999C86.240002,6.6719999,83.712002,9.0879993,83.712002,12.4C83.712002,15.712,86.240002,18.128,89.632,18.128ZM99.568001,18.096001C102.112,18.096001,103.968002,16.288,103.968002,13.76C103.968002,11.2320004,102.112,9.4399996,99.568001,9.4399996C97.024002,9.4399996,95.152,11.2320004,95.152,13.76C95.152,16.288,97.024002,18.096001,99.568001,18.096001ZM99.568001,16.752000000000002C97.935997,16.752000000000002,96.704002,15.568,96.704002,13.76C96.704002,11.9519997,97.935997,10.7839994,99.568001,10.7839994C101.199997,10.7839994,102.416,11.9519997,102.416,13.76C102.416,15.568,101.199997,16.752000000000002,99.568001,16.752000000000002ZM112.879997,6.1279993L112.879997,10.7999992C112.176003,9.8879995,111.120003,9.4399996,109.919998,9.4399996C107.440002,9.4399996,105.631996,11.1679993,105.631996,13.76C105.631996,16.352,107.440002,18.096001,109.919998,18.096001C111.167999,18.096001,112.255997,17.616,112.944,16.656L112.944,18L114.416,18L114.416,6.1279993L112.879997,6.1279993ZM110.047997,16.752000000000002C108.416,16.752000000000002,107.183998,15.568,107.183998,13.76C107.183998,11.9519997,108.416,10.7839994,110.047997,10.7839994C111.664001,10.7839994,112.895996,11.9519997,112.895996,13.76C112.895996,15.568,111.664001,16.752000000000002,110.047997,16.752000000000002ZM125.312004,13.808C125.312004,11.1999998,123.568001,9.4399996,121.120003,9.4399996C118.672005,9.4399996,116.863998,11.2479992,116.863998,13.76C116.863998,16.288,118.688004,18.096001,121.424004,18.096001C122.832001,18.096001,124,17.616,124.768005,16.72L123.919998,15.728C123.296005,16.416,122.464005,16.752000000000002,121.472,16.752000000000002C119.792,16.752000000000002,118.592003,15.76,118.400002,14.271999L125.279999,14.271999C125.296005,14.128,125.312004,13.936,125.312004,13.808ZM121.120003,10.7360001C122.608002,10.7360001,123.68,11.7439995,123.840004,13.167999L118.400002,13.167999C118.559998,11.7279997,119.648003,10.7360001,121.120003,10.7360001ZM141.84,18L139.18401,14.24C140.752,13.68,141.648,12.431999,141.648,10.7039995C141.648,8.2719994,139.888,6.7999992,136.976,6.7999992L132.608,6.7999992L132.608,18L134.208,18L134.208,14.592L136.976,14.592C137.216,14.592,137.45600000000002,14.576,137.68,14.559999L140.096,18L141.84,18ZM136.928,13.232L134.208,13.232L134.208,8.1919994L136.928,8.1919994C138.976,8.1919994,140.048,9.1039991,140.048,10.7039995C140.048,12.304,138.976,13.232,136.928,13.232ZM152.00001,13.808C152.00001,11.1999998,150.256,9.4399996,147.80801,9.4399996C145.36001,9.4399996,143.55200000000002,11.2479992,143.55200000000002,13.76C143.55200000000002,16.288,145.37601,18.096001,148.11201,18.096001C149.51999999999998,18.096001,150.688,17.616,151.45601,16.72L150.608,15.728C149.98401,16.416,149.15201000000002,16.752000000000002,148.16,16.752000000000002C146.48000000000002,16.752000000000002,145.28001,15.76,145.08801,14.271999L151.96800000000002,14.271999C151.98401,14.128,152.00001,13.936,152.00001,13.808ZM147.80801,10.7360001C149.29601,10.7360001,150.368,11.7439995,150.52801,13.167999L145.08801,13.167999C145.248,11.7279997,146.33601,10.7360001,147.80801,10.7360001ZM160.28801,9.5199995L157.31201,16.32L154.40001,9.5199995L152.80001,9.5199995L156.51201,18L158.08001000000002,18L161.79201,9.5199995L160.28801,9.5199995ZM164.32001,7.8879995C164.92801,7.8879995,165.36002,7.4399996,165.36002,6.8639994C165.36002,6.3199997,164.912,5.887999499999999,164.32001,5.887999499999999C163.72801,5.887999499999999,163.28001,6.3359995,163.28001,6.8959999C163.28001,7.4559994,163.72801,7.8879995,164.32001,7.8879995ZM163.552,18L165.08801,18L165.08801,9.5199995L163.552,9.5199995L163.552,18ZM176.00002,13.808C176.00002,11.1999998,174.25603,9.4399996,171.80801,9.4399996C169.36002,9.4399996,167.55202,11.2479992,167.55202,13.76C167.55202,16.288,169.37602,18.096001,172.11201,18.096001C173.52002,18.096001,174.68802,17.616,175.45602,16.72L174.60802,15.728C173.98402,16.416,173.15202,16.752000000000002,172.16002,16.752000000000002C170.48003,16.752000000000002,169.28001,15.76,169.08801,14.271999L175.96802,14.271999C175.98402,14.128,176.00002,13.936,176.00002,13.808ZM171.80801,10.7360001C173.29602,10.7360001,174.36803,11.7439995,174.52802,13.167999L169.08801,13.167999C169.24802,11.7279997,170.33601,10.7360001,171.80801,10.7360001ZM189.74403,9.5199995L187.21603,16.304000000000002L184.70403,9.5199995L183.40804,9.5199995L180.84804,16.272L178.38403,9.5199995L176.92802,9.5199995L180.08003,18L181.55203,18L184.03203,11.5679998L186.48003,18L187.95203,18L191.12003,9.5199995L189.74403,9.5199995Z" fill="#FFFFFF" fill-opacity="1"/></g></svg>
