<svg xmlns="http://www.w3.org/2000/svg" xmlns:xlink="http://www.w3.org/1999/xlink" fill="none" version="1.1" width="16" height="16" viewBox="0 0 16 16"><defs><clipPath id="master_svg0_6_22560"><rect x="0" y="0" width="16" height="16" rx="0"/></clipPath></defs><g clip-path="url(#master_svg0_6_22560)"><path d="M7.999902248382568,14.000006198883057C11.31360194838257,14.000006198883057,13.999902248382568,11.313705898883057,13.999902248382568,8.000006198883057C13.999902248382568,4.686306498883057,11.31360194838257,2.0000061988830566,7.999902248382568,2.0000061988830566C4.686202048382569,2.0000061988830566,1.9999022483825684,4.686306498883057,1.9999022483825684,8.000006198883057C1.9999022483825684,11.313705898883057,4.6862025483825684,14.000006198883057,7.999902248382568,14.000006198883057ZM12.648852248382568,6.1595062988830565C12.882902248382567,6.750706198883057,12.999902248382568,7.364206298883056,12.999902248382568,8.000006198883057C12.999902248382568,8.635806598883057,12.882902248382567,9.249306198883056,12.648853248382569,9.840455498883056C12.394702248382568,10.482355598883057,12.023602248382568,11.047405698883056,11.535452348382568,11.535555398883057C11.047302748382569,12.023706198883056,10.482252548382569,12.394805198883057,9.840352548382569,12.648956198883056C9.249202248382568,12.883006198883056,8.63570264838257,13.000006198883057,7.999902248382568,13.000006198883057C7.364152448382568,13.000006198883057,6.7506022483825685,12.883006198883056,6.159402348382568,12.648957198883057C5.517551948382568,12.394806198883057,4.952502248382569,12.023706198883056,4.464352148382568,11.535556298883057C3.9762020483825684,11.047406698883057,3.6050522483825684,10.482356498883057,3.3509521483825684,9.840456498883057C3.1169023483825686,9.249306198883056,2.9999022483825684,8.635806598883057,2.9999022483825684,8.000006198883057C2.9999022483825684,7.3642563988830565,3.1169521483825684,6.750706198883057,3.3509521483825684,6.1595062988830565C3.6050522483825684,5.517655898883056,3.9762022483825685,4.952606198883057,4.4644022483825685,4.464456098883057C4.952502248382569,3.9763059988830567,5.517552348382568,3.6051561988830567,6.159402348382568,3.3510560988830567C6.7506022483825685,3.117006298883057,7.364102348382568,3.0000061988830566,7.999902248382568,3.0000061988830566C8.63570264838257,3.0000061988830566,9.249202248382568,3.1170560988830567,9.840351548382568,3.3510560988830567C10.482251648382569,3.6051561988830567,11.047301748382568,3.976306198883057,11.535451448382569,4.464506198883057C12.023602248382568,4.952606198883057,12.39470124838257,5.517656298883057,12.648852248382568,6.1595062988830565ZM10.753549148382568,6.753550098883057C10.847299148382568,6.659800098883057,10.899999148382568,6.532599898883056,10.899999148382568,6.400000098883057C10.899999148382568,6.123849898883057,10.676148848382569,5.900000098883057,10.399999148382568,5.900000098883057C10.267371648382568,5.900000098883057,10.140197248382568,5.952661498883057,10.046449148382568,6.046400498883057L7.199999848382569,8.892900498883057L5.953549848382568,7.646449998883057C5.859783148382569,7.552681398883057,5.732607348382569,7.500001898883057,5.599999948382568,7.499999998883057C5.323849648382568,7.499999998883057,5.099999948382568,7.723850298883057,5.099999948382568,7.999999998883057C5.099999948382568,8.132603598883057,5.152679448382568,8.259778998883057,5.246449948382568,8.353549998883057L6.846449848382568,9.953550298883057C7.041699848382568,10.148800398883056,7.358299748382568,10.148800398883056,7.553549748382569,9.953550298883057L10.753549148382568,6.753550098883057Z" fill-rule="evenodd" fill="#FFFFFF" fill-opacity="0.800000011920929"/></g></svg>