<svg xmlns="http://www.w3.org/2000/svg" xmlns:xlink="http://www.w3.org/1999/xlink" fill="none" version="1.1" width="39.56" height="36.76" viewBox="0 0 54.00108828140719 53.837792500298065"><defs><clipPath id="master_svg0_6_14354"><rect x="29.10250288618363" y="0" width="39.55788803100586" height="36.760772705078125" rx="0"/></clipPath></defs><g transform="matrix(-0.7356940507888794,0.6773139834403992,0.6773139834403992,0.7356940507888794,50.51304112261512,-19.711532157926747)" clip-path="url(#master_svg0_6_14354)"><path d="M56.928119788255586,2.5365176013916018C64.43170978825557,7.488858201391602,70.44241378825558,19.6726338013916,68.17440778825558,28.890824801391602C67.26217278825558,32.5996268013916,64.77169778825558,35.5957548013916,60.97443378825558,36.1498928013916C59.512334788255586,36.3636948013916,57.07503378825558,36.1324408013916,55.80321678825558,35.3019618013916C55.72626278825558,35.2525078013916,55.21837878825558,34.833631801391604,55.19878578825558,34.7987268013916C55.15961078825558,34.727456801391604,55.17360178825558,34.5180228013916,55.21417878825558,34.4438418013916C55.330306788255584,34.2373138013916,55.61433278825558,34.3856678013916,55.77103278825558,34.4176658013916C55.84378978825558,34.4322068013916,55.93613078825558,34.382760801391605,55.97391178825558,34.3958528013916C56.056457788255585,34.4234828013916,56.04946378825558,34.5412918013916,56.074649788255584,34.558744801391605C56.084442788255586,34.5660188013916,56.20056778825558,34.5034768013916,56.302709788255584,34.5311108013916C56.41324078825558,34.5601938013916,56.51397678825558,34.6881928013916,56.60212378825558,34.7187288013916C56.94351578825558,34.836541801391604,57.396835788255586,34.883084801391604,57.77600078825559,34.9645328013916C58.027847788255585,35.018342801391604,58.25031078825558,35.2583258013916,58.50915178825558,35.0547048013916L58.57211478825558,35.1826958013916C58.80856678825558,34.9979838013916,58.899509788255585,35.2830488013916,58.98905778825558,35.2975978013916C59.02823278825558,35.303411801391604,59.23110578825558,35.1492448013916,59.39480578825558,35.2946838013916L59.456369788255586,35.1783348013916C60.01602578825558,35.2248748013916,60.63864378825558,35.1637818013916,61.17870778825558,35.077974801391605C61.49911178825558,35.027066801391605,61.81531978825558,34.8554478013916,62.13012678825558,34.9339848013916L62.06996178825558,34.8132688013916C62.327407788255584,34.7347278013916,62.59463478825558,34.6460098013916,62.84788578825558,34.5500168013916C62.93183178825558,34.5180188013916,63.001792788255585,34.4292968013916,63.070346788255584,34.4103908013916C63.14729678825558,34.3885748013916,63.242435788255584,34.4540238013916,63.246639788255585,34.4467488013916C63.25923178825558,34.4278428013916,63.222850788255585,34.3245758013916,63.25923178825558,34.2794898013916C63.27601678825558,34.257676801391604,63.56563978825558,34.1602268013916,63.65098978825558,34.1020528013916C63.93361278825558,33.9071558013916,64.27220578825558,33.4824618013916,64.59540578825559,33.5275478013916L64.63038278825559,33.3428328013916C64.84165978825558,33.3399298013916,64.90601778825558,32.9021398013916,65.13407878825558,32.7668818013916C65.20962878825557,32.7217918013916,65.33695278825559,32.7508788013916,65.35933678825558,32.7276098013916C65.38171778825559,32.704339801391605,65.35933678825558,32.5632568013916,65.39431778825559,32.4905338013916C65.44048378825559,32.3989088013916,65.56081378825559,32.387269801391604,65.60278378825558,32.333459801391605C66.54300378825559,31.129188801391603,67.54758878825558,28.1737838013916,67.65672278825558,26.6422638013916C67.67631578825558,26.376102801391603,67.63293478825558,25.963046801391602,67.65672278825558,25.6765208013916C67.66091578825558,25.6328888013916,67.77564678825559,25.6648848013916,67.78404278825559,25.5485328013916C67.79663478825557,25.384181801391602,67.71968478825559,25.2241918013916,67.71548878825558,25.0598408013916C67.69589978825559,24.1551838013916,67.75046578825558,23.3901558013916,67.65252278825558,22.4927708013916C67.33911578825558,19.6144508013916,66.53881078825557,16.928115801391602,65.38591378825558,14.266503801391602C64.65556378825559,12.582271801391602,63.32777778825558,10.1431908013916,62.187480788255584,8.720753701391601C62.110526788255584,8.6247625013916,61.967815788255585,8.6000366013916,61.89506178825558,8.467683801391601C61.83069678825558,8.349874501391602,61.90345778825558,8.224794401391602,61.889465788255585,8.207341201391602C61.87407278825558,8.186979301391602,61.58305378825558,8.042988801391601,61.47671878825558,7.928089101391602C60.95624178825558,7.368133501391601,60.42176678825558,6.624918501391601,59.86071578825558,6.126048601391601C59.70540678825559,5.987877401391602,59.27587578825558,5.3653803013916015,59.22830078825558,5.3392000013916014C59.165342788255586,5.302839801391602,59.052011788255584,5.350835801391602,59.01423078825558,5.3173838013916015C58.95127278825558,5.260661101391602,58.68543478825558,4.873782601391602,58.51753978825558,4.735611001391602C56.63010078825558,3.1924589013916016,54.31032378825558,1.6987574013916016,51.87582278825558,1.1475275013916015C42.228760788255585,-1.0413850986083983,34.040995788255586,6.610381601391602,31.19234748825558,15.5900448013916C30.87614188825558,16.586332801391602,30.57112968825558,17.770238801391603,30.38224578825558,18.815972801391602C30.352863788255583,18.975959801391603,30.390640588255582,19.306115801391602,30.350065588255582,19.476283801391602C30.33887238825558,19.525733801391603,30.232537988255583,19.515554801391602,30.232537988255583,19.551913801391603C30.18916448825558,21.1357918013916,29.96670131825558,22.7531188013916,30.063242008255582,24.3689938013916C30.15978258825558,25.984868801391602,30.484382988255582,27.760730801391603,31.04543788825558,29.164256801391602C31.158768188255582,29.447871801391603,31.50855298825558,30.0005508013916,31.563119688255583,30.2230818013916C31.58970358825558,30.3336178013916,31.528141288255583,30.4499738013916,31.535136688255584,30.4601518013916C31.54213238825558,30.4717888013916,31.690441388255582,30.518333801391602,31.76459548825558,30.6186868013916C32.74679158825558,31.9625858013916,33.246284688255585,32.937051801391604,34.75455688825558,33.8242588013916C35.09454848825558,34.024964801391604,35.668195488255584,34.1485958013916,35.96201438825558,34.3303968013916C36.026375088255584,34.369668801391605,36.059953888255585,34.4263898013916,36.059953888255585,34.5034768013916L36.15089868825558,34.3769478013916C36.27122468825558,34.3609408013916,36.70076108825558,34.592195801391604,36.85466648825558,34.618379801391605C37.359754788255586,34.7056408013916,38.32096308825558,34.5718328013916,38.76169318825558,34.468568801391605C38.95757318825558,34.4220298013916,39.23180378825558,34.4016668013916,39.395502788255584,34.336217801391605C39.67253278825558,34.224225801391604,40.682710788255584,33.611909801391604,40.935954788255586,33.7791688013916C41.210185788255586,34.3100378013916,40.21539778825558,34.8772638013916,39.82643778825558,35.077974801391605C36.45311238825558,36.8232938013916,32.654448688255584,34.157315801391604,30.916717288255583,31.1335578013916C30.526357388255583,30.452882801391603,30.168177688255582,29.5758588013916,29.945714458255583,28.8879128013916C29.76662449825558,28.3308698013916,29.517577668255583,27.720004801391603,29.59033291825558,27.1338688013916L29.407045648255583,27.0626008013916C29.325895578255583,26.550641801391603,29.323097288255582,26.0226838013916,29.264333428255583,25.509265801391603C29.24474546825558,25.3361888013916,29.117423762255584,25.071485801391603,29.12302031525558,24.9274918013916C29.13701171025558,24.579883801391603,29.151003103255583,24.6366098013916,29.120222037255584,24.248275801391603C29.079646991255583,23.7304978013916,29.12302031525558,22.9843728013916,29.13281429725558,22.444778801391603C29.16219622625558,20.7125508013916,29.43362928825558,18.389825801391602,29.90933679825558,16.832130801391603C30.07723359825558,16.2808988013916,30.183568088255583,15.441692801391602,30.42282098825558,14.785743801391602C30.468992688255582,14.659206801391601,30.835567088255583,14.494856801391602,30.648082588255583,14.132703801391601L30.82577338825558,14.132703801391601C30.725035188255582,13.939263801391602,30.95729228825558,13.7894578013916,30.88033968825558,13.555293801391601L31.06082878825558,13.5203888013916L31.007661588255583,13.302222801391602C31.273497788255582,13.203321801391601,30.940502888255583,12.8964378013916,31.304279088255583,12.871711801391601C31.298682488255583,12.662273801391601,31.364442088255583,12.541556801391602,31.45258808825558,12.361205801391602C31.75480178825558,11.747435801391601,32.093393988255585,10.986768801391602,32.483753888255585,10.314819801391602C33.13715198825558,9.186180101391601,33.84931348825558,8.069175701391602,34.73776788825558,7.099070501391601C34.76155258825558,7.072891201391601,34.71957848825558,6.917266401391601,34.82311458825558,6.816911201391601C34.93924398825558,6.703465501391602,35.02599068825558,6.622017401391601,35.12672878825558,6.521660801391602C35.49190398825558,6.155144701391602,35.84308788825558,5.808988601391602,36.19427228825558,5.4410181013916015C36.307602588255584,5.321754501391601,36.28521608825558,5.100681301391601,36.59302638825558,5.137042001391602L36.532863888255584,4.953783001391602L36.69796158825558,4.940694301391601C36.70076108825558,4.7138019013916015,36.94840838825558,4.661443701391602,37.09391858825558,4.526180701391602L37.18066528825558,4.648353101391602C37.10511228825558,4.264382801391601,37.46189238825558,4.315288501391602,37.61020108825558,4.162572901391601C38.27898998825558,3.4760809013916014,39.184232788255585,2.8521295013916017,40.00692678825558,2.3590770013916016C45.185144788255585,-0.7461352386083985,51.74151278825558,-0.8915784986083984,56.93092178825558,2.5336089013916014L56.928119788255586,2.5365176013916018Z" fill="#FFFFFF" fill-opacity="0.800000011920929"/><path d="M48.91254121794308,12.2752299638916L50.32147621794308,14.052545563891602C51.79616721794308,15.428437663891602,53.60805321794308,16.7388810638916,55.620018217943084,17.006495463891603C55.65779321794308,17.010859463891602,55.646601217943086,17.077763063891602,55.98379521794308,17.085036263891602C56.54624721794308,17.0981244638916,57.10870021794308,17.1301226638916,57.65856721794308,16.978861363891603C59.18083021794308,16.559985663891602,60.48342921794308,16.149836063891602,61.83779521794308,17.3453774638916C63.66787021794308,18.959797863891602,63.827370217943084,21.4614198638916,62.53316521794308,23.5136228638916C62.09523821794308,24.2073878638916,61.63212021794308,24.425552863891603,61.069664217943085,24.928783863891603C60.68630221794308,25.273483863891602,60.15882921794308,25.644363863891602,59.71949421794308,25.9701588638916C59.62855321794308,26.037062863891602,59.43127321794309,26.057426863891603,59.39209721794308,26.121419863891603C59.35711921794308,26.1766868638916,59.33613421794308,26.589744863891603,59.29135921794308,26.7511878638916C59.270374217943086,26.8239098638916,59.18222621794308,26.8733598638916,59.16823421794308,26.919904863891603C58.54002221794308,29.0288258638916,57.02195521794308,31.857698863891603,55.45072421794308,33.4648458638916C54.66021021794308,34.2749638638916,53.74797121794308,34.9454558638916,52.80214921794308,35.5446818638916C52.67622921794308,35.2028908638916,52.63705421794308,35.5883138638916,52.57968721794308,35.6494028638916C52.51392921794309,35.7206688638916,51.15956321794308,36.258807863891604,50.96088421794308,36.3228058638916C48.25914421794308,37.1896498638916,45.49584411794308,36.7387718638916,43.103314117943086,35.2276168638916C38.40360451794308,32.2591208638916,35.652895317943084,25.2458548638916,36.234937432943084,19.608475663891603C36.24613080494308,19.502303163891604,36.446207307943084,18.8216276638916,36.482585237943084,18.7954492638916C36.64768372794308,18.6732768638916,37.56691861794308,18.603463163891604,37.81036841794308,18.555467563891604C38.19373251794308,18.4798364638916,38.62187001794308,18.334394463891602,38.94367171794308,18.206402763891603C39.12556001794308,18.1336822638916,39.212306017943085,17.937333563891602,39.46974851794308,18.1118650638916C39.45016051794308,17.914062463891604,39.69920701794308,17.754074563891603,39.85311241794308,17.7104415638916C39.958047417943085,17.6798987638916,40.023807517943084,17.850066663891603,40.14973041794308,17.5664534638916C40.42676041794308,17.7148051638916,40.33021951794308,17.4820957638916,40.49531771794308,17.3715600638916C40.76255391794308,17.1926641638916,41.29982301794308,16.903232563891603,41.600638117943085,16.7592444638916C41.68178871794308,16.7199754638916,41.60903281794308,16.568714163891602,41.823101317943085,16.703976663891602L41.768534917943086,16.5265350638916C41.92663791794308,16.3403687638916,42.33798481794308,16.2778277638916,42.45411371794308,16.1992883638916C42.47370171794308,16.1861991638916,42.64299701794308,15.972397363891602,42.75492881794308,15.872041263891601C42.87805241794308,15.761503663891602,43.29779461794308,15.288813563891601,43.36075611794308,15.2480892638916C43.38174321794308,15.235000563891601,43.47548651794308,15.3222660638916,43.56083411794308,15.245181563891602C43.646180417943086,15.1680970638916,43.643382817943085,15.006654763891602,43.730129517943084,14.926660563891602C43.81687611794308,14.846666763891601,43.95818921794308,14.859756463891602,44.01975131794308,14.813215263891601C44.154068217943085,14.711405263891603,44.54023191794308,14.1281781638916,44.70812721794308,13.937647563891602C44.843844617943084,13.783478463891601,45.03692551794308,13.527497763891601,45.234204517943084,13.584220663891601L45.11667751794308,13.432959563891602C45.15865161794308,13.350057163891602,45.29716611794308,13.3660559638916,45.33494301794308,13.322422763891602C45.63995571794308,12.979176563891603,45.84842701794308,12.542846963891602,46.14084841794308,12.141423463891602C46.518616217943084,11.623646163891602,46.87399621794308,10.921155513891602,47.09506121794308,10.383016223891602C47.21398921794308,10.095038268891601,47.201396217943085,9.965593933891602,47.598753217943084,10.116854965891601C47.928949217943085,10.243390933891602,48.205978217943084,11.066598763891601,48.40186021794308,11.424388763891601C48.558562217943084,11.712366563891601,48.722261217943085,12.006161363891602,48.905551217943085,12.2781405638916L48.91254121794308,12.2752299638916ZM47.65331521794308,11.075323863891601C47.51759821794308,11.0462356238916,47.55957321794308,11.0927774638916,47.52179521794308,11.153863263891601C47.38048321794308,11.383663763891601,47.31332321794308,11.7836325638916,47.194397217943084,12.035248563891601C45.71130961794308,15.178275563891601,41.53767561794308,18.5307407638916,38.308461917943085,19.4383058638916C37.87752651794308,19.559022863891602,37.38502991794308,19.620109563891603,36.94150231794308,19.669559463891602C36.772206537943084,19.775732063891603,36.81418071794308,21.1196278638916,36.825373517943085,21.387241863891603C37.113596487943084,28.2899738638916,41.54187371794308,36.5336948638916,49.13080621794308,35.7526628638916C49.44281421794308,35.7206668638916,49.65828221794308,35.6843028638916,49.973089217943084,35.6668508638916C50.009466217943086,35.665395863891604,49.999673217943084,35.5635868638916,50.05144021794308,35.54904586389161C53.95364021794308,34.3738628638916,56.82047821794308,31.050485863891602,58.11468321794308,27.1177028638916C58.30916621794309,26.528657863891603,58.388918217943086,25.805804863891602,58.60158321794308,25.206577863891603C58.89680121794308,25.274936863891604,59.24099421794308,24.944779863891604,59.51802121794309,24.784795863891603C61.134027217943085,23.8510508638916,62.48140021794308,22.767498863891603,62.54576121794308,20.6527548638916C62.593327217943084,19.099420563891602,61.39147021794308,17.490819963891603,59.85801121794309,17.3846459638916C59.68031921794308,17.373010663891602,58.77927421794308,17.4500946638916,58.640759217943085,17.5126356638916C58.55541421794308,17.550451263891603,58.55401421794308,17.652260263891602,58.46726821794309,17.7017121638916C58.38051621794308,17.751162963891602,57.785887217943085,17.9736914638916,57.73551821794308,17.9867806638916C56.70295021794308,18.2500324638916,55.271633217943084,18.0304145638916,54.33281121794308,17.7162556638916C51.982255217943084,16.9264998638916,49.55055121794308,14.749215163891602,48.29972021794308,12.513753463891602C48.050673217943086,12.068697463891601,47.80722321794308,11.564009563891602,47.651918217943084,11.075320463891602L47.65331521794308,11.075323863891601Z" fill="#FFFFFF" fill-opacity="0.800000011920929"/><path d="M43.692497444505584,21.1500989545166C43.74706364450558,21.1079212545166,44.06187004450558,20.780674054516602,44.12063384450558,20.709406134516602C44.247956044505585,20.5552366345166,44.55436684450558,19.938556614516603,44.59214424450558,19.915285184516602C44.957319944505585,19.6811215095166,45.28751734450558,20.190172794516602,45.03007534450558,20.6774083945166C44.77263284450558,21.1646441545166,44.10944004450558,21.864225354516602,43.64352674450558,22.1100249545166C42.06949414450558,22.944869754516603,40.38353006150558,21.462803054516602,40.42270580874558,19.772753659516603L40.70813049450558,19.7291202545166C41.23001020450558,21.0395629545166,42.32833464450558,22.1987454545166,43.69109674450558,21.1515546545166L43.692497444505584,21.1500989545166Z" fill="#FFFFFF" fill-opacity="0.800000011920929"/><path d="M47.40556957731808,25.6477666232666C47.45034307731808,25.7292146232666,47.42096037731808,25.970651123266602,47.39297797731808,26.0695510232666C47.35520047731808,26.2048125232666,47.24326917731808,26.193179123266603,47.213888377318085,26.248445523266604C47.11175157731808,26.4433388232666,47.248866777318085,26.5611472232666,46.80533967731808,26.546604623266603C46.237289277318084,26.5262422232666,45.50833670731808,25.8775649232666,45.32644920431808,25.3321528232666C44.971067627318085,24.268963823266603,45.734997677318084,23.022514923266602,46.300250277318085,22.180400013266603C46.39958907731808,22.032047393266602,46.84451547731808,21.3586469732666,46.917271077318084,21.293195769266603C47.057185277318084,21.1681145502666,47.28944297731808,21.249562369266602,47.274052377318085,21.4182769832666C46.94245597731808,22.3883825232666,45.635659977318085,23.8544500232666,46.072191887318084,24.922002523266602C46.32823467731808,25.5474081232666,47.28384727731808,25.429599723266602,47.402772877318085,25.6477647232666L47.40556957731808,25.6477666232666Z" fill="#FFFFFF" fill-opacity="0.800000011920929"/><path d="M50.20405635544308,21.5762055951416C50.95539375544308,22.1594318951416,51.987959655443085,21.9587218951416,52.568601855443085,21.231505895141602C52.75608585544308,20.9958885951416,53.12545895544308,19.942879051141603,53.38709945544308,20.0112375351416C53.40948605544308,20.0170542751416,53.67812135544308,20.3355752851416,53.69071265544308,20.3704824451416C53.79284885544308,20.6904569851416,53.59417125544308,20.971163495141603,53.445862555443085,21.2256890951416C52.43008805544308,22.9739172951416,50.19146455544308,22.956462095141603,49.19527553544308,21.1893282951416C49.08614279544308,20.994434995141603,48.68738711544308,20.040327955141603,48.89585970744308,19.891975261141603C49.18408216544308,19.6868998251416,49.45131837544308,20.6017387551416,49.54645888544308,20.7631807951416C49.65279268544308,20.9435309951416,50.05294675544308,21.4598527951416,50.20405415544308,21.577663695141602L50.20405635544308,21.5762055951416Z" fill="#FFFFFF" fill-opacity="0.800000011920929"/><path d="M49.46249788981808,29.4420555201416C50.24041958981808,29.2718872551416,50.10750168981808,30.006375725141602,49.53105658981808,30.3699836751416C48.642602189818085,30.9299407951416,46.98881978981808,31.3110011951416,45.99263183981808,30.941574295141603C45.54210859981808,30.7743154951416,45.60507054281808,30.249265615141603,46.15213368981808,30.2856264151416C46.983223189818084,30.339439685141603,47.34979818981808,30.3699836751416,48.182285989818084,30.0703711551416C48.55585618981808,29.9351099751416,49.15328958981808,29.5104139971416,49.46249788981808,29.4435113701416L49.46249788981808,29.4420555201416Z" fill="#FFFFFF" fill-opacity="0.800000011920929"/></g></svg>