<svg viewBox="0 0 1024 1024" width="64" height="64" xmlns="http://www.w3.org/2000/svg"><path fill="#FFFFFF" fill-opacity="0.8" d="M809.6 486.4c0 176.7296-143.2704 320-320 320S169.6 663.1296 169.6 486.4 312.8704 166.4 489.6 166.4s320 143.2704 320 320z m-64 0a253.728 253.728 0 0 0-17.9744-94.2336c-13.0112-32.864-32.0128-61.792-57.0048-86.784-24.9952-24.9952-53.9232-44-86.7872-57.008A253.7664 253.7664 0 0 0 489.6 230.4a253.7536 253.7536 0 0 0-94.2336 17.9744c-32.864 13.0112-61.792 32.0128-86.784 57.0048-24.9952 24.9952-44 53.9232-57.008 86.7872A253.7536 253.7536 0 0 0 233.6 486.4a253.7664 253.7664 0 0 0 17.9744 94.2336c13.0112 32.864 32.0128 61.792 57.0048 86.7872 24.9952 24.992 53.9232 43.9936 86.7872 57.0048A253.728 253.728 0 0 0 489.6 742.4a253.7408 253.7408 0 0 0 94.2336-17.9744c32.864-13.0112 61.792-32.0128 86.7872-57.0048 24.992-24.9952 43.9936-53.9232 57.0048-86.7872A253.7408 253.7408 0 0 0 745.6 486.4z"/><path fill="#FFFFFF" fill-opacity="0.8" d="M822.0608 867.3376l-148.688-148.7104a32 32 0 0 1 45.2544-45.2544l148.6912 148.7104a32 32 0 1 1-45.2576 45.2544z"/></svg>
