<svg xmlns="http://www.w3.org/2000/svg" xmlns:xlink="http://www.w3.org/1999/xlink" fill="none" version="1.1" width="16" height="16" viewBox="0 0 16 16"><defs><clipPath id="master_svg0_9_10612"><rect x="0" y="0" width="16" height="16" rx="0"/></clipPath></defs><g clip-path="url(#master_svg0_9_10612)"><path d="M4.549999952316284,2.925048828125C4.549999952316284,2.648898838125,4.326149652316284,2.425048828125,4.049999952316284,2.425048828125C3.7738499623162842,2.425048828125,3.549999952316284,2.648898838125,3.549999952316284,2.925048828125L3.549999952316284,4.104357828125Q3.532659832316284,4.111922628125,3.515549662316284,4.119999928125Q3.487799642316284,4.133099528125,3.460749622316284,4.147599728125Q3.433699612316284,4.162049728125,3.407349582316284,4.177849728125Q3.381049632316284,4.193649728125,3.355549572316284,4.210649928125Q3.3299996823162843,4.227699728125,3.305349592316284,4.245999828125Q3.2807495623162843,4.264249828125,3.257049562316284,4.283749628125Q3.2332994923162843,4.303199728125,3.2105495923162843,4.323799628125Q3.187799452316284,4.344399928125,3.1660995523162843,4.366099828125Q3.144399642316284,4.387799728125,3.123799562316284,4.4105496281250005Q3.103249552316284,4.433299528125,3.083749532316284,4.456999828124999Q3.0642495123162843,4.480749628125,3.045999522316284,4.505349628125Q3.027699472316284,4.530049828125,3.010649442316284,4.555549628125Q2.9935994123162843,4.5810494281250005,2.977849482316284,4.607349428125Q2.962099312316284,4.633699428125,2.947599412316284,4.6607494281249995Q2.933149342316284,4.687799428125,2.9199993623162843,4.715549428125Q2.906899452316284,4.743299528125,2.895149469316284,4.771649328125Q2.883399486316284,4.7999992281249995,2.873049497316284,4.828899428125Q2.862749576316284,4.857799528125,2.853799581316284,4.887149328125Q2.844899654316284,4.916499628125,2.837499618316284,4.946249528125Q2.829999685316284,4.976049928125001,2.8239996433162844,5.006099728125Q2.8179996013162842,5.036249628125001,2.8134996893162842,5.066599828125Q2.808999776816284,5.096950028125001,2.805999755816284,5.1275000281250005Q2.802999734916284,5.1580000281250005,2.801499843616284,5.1886501281249995Q2.799999952316284,5.219299828125,2.799999952316284,5.250000028125Q2.799999952316284,5.280700228125,2.8015005588162842,5.311349828125Q2.803000450116284,5.342000028125,2.8060004711162843,5.372499928125Q2.8090004921162843,5.403049928125,2.8135004043162843,5.433400128125Q2.8180003163162843,5.463750328125,2.824000358316284,5.493850228125Q2.830000162316284,5.523950528125,2.837450266316284,5.5537004281249995Q2.844900369316284,5.5835008281250005,2.853800296316284,5.612850628125Q2.862750292316284,5.642200428124999,2.8730502133162843,5.671100628125Q2.883400201316284,5.700000728125,2.895150184316284,5.728350628125Q2.906900172316284,5.756700528125,2.920000072316284,5.784450528124999Q2.933100222316284,5.812200528125,2.947600122316284,5.839250528125Q2.9620502023162842,5.866300628125,2.9778502023162843,5.892650628125001Q2.9936502023162843,5.918950528125,3.010650162316284,5.944450428125Q3.027700182316284,5.970000228125,3.046000242316284,5.994650328125Q3.0642502323162844,6.019249928124999,3.083750252316284,6.042950128125Q3.103200192316284,6.066700428124999,3.1238002823162843,6.089450328125Q3.1444001223162843,6.112199828125,3.1661002623162844,6.133900128125Q3.1878004123162844,6.1556005281249995,3.2105503123162844,6.176200428125Q3.2333002123162844,6.196750628125001,3.2570002123162842,6.216250428125Q3.280750272316284,6.235750228125,3.3053503023162842,6.254000228124999Q3.3300502323162844,6.272299728125001,3.355550292316284,6.289350028125Q3.3810503523162843,6.306400328125,3.407350302316284,6.322150228125Q3.4337003223162843,6.337900128125,3.460750342316284,6.352400328125Q3.487800362316284,6.366849928125,3.515550372316284,6.380000128124999Q3.532663762316284,6.388078728125,3.549999952316284,6.395641828125L3.549999952316284,13.050048828125C3.549999952316284,13.326198828125,3.7738497223162843,13.550048828125,4.049999952316284,13.550048828125C4.326150152316284,13.550048828125,4.549999952316284,13.326198828125,4.549999952316284,13.050048828125L4.549999952316284,6.395642528125Q4.567336152316284,6.388079428125,4.584450752316284,6.380000128124999Q4.6122007523162845,6.366900428125,4.6392507523162845,6.352400328125Q4.6663007523162845,6.337950228125,4.692650752316284,6.322150228125Q4.718950752316284,6.306350228125,4.744450552316284,6.289350028125Q4.7700004523162844,6.272300228125,4.794650552316284,6.254000228124999Q4.819250152316284,6.235750228125,4.842950352316285,6.216250428125Q4.866700652316284,6.196800228124999,4.889450552316284,6.176200428125Q4.912199952316284,6.155600028125,4.933900352316284,6.133900128125Q4.955600752316284,6.112200228124999,4.976200552316284,6.089450328125Q4.996750852316284,6.066700428124999,5.016250652316284,6.043000228125Q5.035750352316285,6.019250428125,5.054000352316284,5.994650328125Q5.072299952316284,5.9699502281250005,5.089350252316285,5.944450428125Q5.106400452316285,5.918950528125,5.1221504523162835,5.892650628125001Q5.137900352316285,5.866300628125,5.152400452316284,5.839250528125Q5.166850052316285,5.812200528125,5.180000352316284,5.784450528124999Q5.193099952316285,5.756700528125,5.2048501523162845,5.728350628125Q5.216599952316284,5.700000728125,5.2269501523162845,5.671100628125Q5.237249852316284,5.642200428124999,5.246150052316285,5.612850628125Q5.255099752316284,5.583500428124999,5.262499852316284,5.553750528125001Q5.269999952316285,5.523950128125,5.276000052316284,5.493900328125Q5.281999552316284,5.463750328125,5.286499952316284,5.433400128125Q5.291000352316284,5.403049928125,5.2940001523162845,5.372499928125Q5.296999952316284,5.342000028125,5.2985000523162835,5.311349828125Q5.300000152316285,5.280700228125,5.300000152316285,5.250000028125Q5.300000152316285,5.219300728125,5.2985000523162835,5.188650628125Q5.296999952316284,5.158000428125,5.2940001523162845,5.127500528125Q5.2909998523162844,5.096950528124999,5.286499952316284,5.066600328125Q5.282000052316285,5.036250128124999,5.276000052316284,5.006150228125Q5.269999952316285,4.976049928125001,5.262549852316284,4.946300028125Q5.255100252316284,4.916499628125,5.246150052316285,4.8871498281250005Q5.237250352316284,4.857800028125,5.2269501523162845,4.8288998281249995Q5.216600452316284,4.799999728125,5.2048501523162845,4.771649828125Q5.193100452316284,4.7432999281249995,5.180000352316284,4.715549928125Q5.166900652316285,4.687799928125,5.152400452316284,4.660749928125Q5.137950452316284,4.633699928125,5.1221504523162835,4.607349828125Q5.106350452316285,4.581049928125,5.089350252316285,4.555550128125001Q5.072300452316284,4.530000228125,5.054000352316284,4.505350128125Q5.035750352316285,4.480750528125,5.016250652316284,4.457050328125Q4.996800452316284,4.433300028125,4.976200552316284,4.410550128125Q4.955600252316284,4.387800728125,4.933900352316284,4.366100328125Q4.912200452316284,4.344399928125,4.889450552316284,4.323800128125Q4.866700652316284,4.303249828125,4.843000452316284,4.2837500281250005Q4.819250552316284,4.264250328125,4.794650552316284,4.246000328125Q4.769950352316284,4.227700728125,4.744450552316284,4.210650428125Q4.718950752316284,4.193600128125,4.692650752316284,4.177850228125Q4.6663007523162845,4.162100328125,4.6392507523162845,4.147600128125Q4.6122007523162845,4.133150528125,4.584450752316284,4.120000328125Q4.567339852316284,4.111923028125,4.549999952316284,4.1043583281250005L4.549999952316284,2.925048828125ZM8.499999752316285,2.925048828125C8.499999752316285,2.648898838125,8.276149552316284,2.425048828125,7.999999752316284,2.425048828125C7.723849552316284,2.425048828125,7.499999752316284,2.648898838125,7.499999752316284,2.925048828125L7.499999752316284,8.904358828125Q7.482663852316284,8.911921928125,7.4655511523162845,8.920000028125Q7.437801152316284,8.933100728125,7.410751152316284,8.947600328124999Q7.383701052316284,8.962049528125,7.357351052316284,8.977849928125Q7.331050652316284,8.993649528125001,7.305551252316284,9.010649728125Q7.280050952316284,9.027699428125,7.255350852316284,9.045999528125Q7.2307517523162845,9.064250028124999,7.2070510523162845,9.083749728125Q7.183300752316284,9.103199028125001,7.160550852316284,9.123799328125Q7.137801852316284,9.144399628125,7.116101052316284,9.166099528124999Q7.094401152316284,9.187799428125,7.073800752316284,9.210549328125001Q7.053251052316284,9.233299228125,7.033751252316284,9.256999028125Q7.014251452316284,9.280749328125001,6.996001052316284,9.305349328125Q6.977701952316284,9.330050428125,6.960651152316284,9.355549828125Q6.943601352316284,9.381049128125,6.927851452316284,9.407349628125Q6.912101552316284,9.433699628125,6.897600852316284,9.460749628125Q6.883151752316285,9.487799628125,6.8700015523162845,9.515549628125001Q6.856901852316284,9.543299628125,6.845151652316284,9.571649528125Q6.833401452316284,9.599999428124999,6.823051252316284,9.628899528125Q6.812751552316284,9.657799728125,6.803801252316284,9.687150028125Q6.794901352316284,9.716500328125,6.787501352316284,9.746250128125Q6.780001152316284,9.776049628125,6.774001152316284,9.806099928125Q6.768001552316284,9.836250328125,6.763501152316284,9.866600028125Q6.759000752316284,9.896949728125,6.756000952316285,9.927499728125Q6.753001252316285,9.957999228125,6.751501052316284,9.988649328125Q6.7500009523162845,10.019299528125,6.7500009523162845,10.049999228125Q6.7500009523162845,10.080698928124999,6.751501052316284,10.111349128125Q6.753001252316285,10.141998328125,6.756000952316285,10.172498728125Q6.759001252316285,10.203048728125001,6.763501152316284,10.233398428125Q6.768001052316285,10.263748128125,6.774001152316284,10.293848028125Q6.780001152316284,10.323947928125001,6.787451252316284,10.353697728124999Q6.794900852316284,10.383497228125,6.803801252316284,10.412847528124999Q6.812750552316285,10.442197828125,6.823051252316284,10.471097928125Q6.833400452316284,10.499998128125,6.845150752316284,10.528347928125Q6.856900952316284,10.556697828125,6.870000552316284,10.584447828125Q6.883100252316284,10.612197828125,6.897600852316284,10.639247928125Q6.912050952316284,10.666297928125,6.927850452316284,10.692647928125Q6.943650952316284,10.718947428125,6.960651152316284,10.744447728125Q6.977700952316284,10.769948028125,6.996001052316284,10.794597628125Q7.014250552316284,10.819248228125,7.033750252316284,10.842947928125Q7.053200452316284,10.866698228125,7.073800752316284,10.889448128125Q7.094401152316284,10.912198028125,7.116101052316284,10.933897928125Q7.137800952316284,10.955597828125,7.160550852316284,10.976198228125Q7.183300752316284,10.996747928125,7.207000452316284,11.016247728125Q7.230750752316284,11.035747528125,7.255350852316284,11.053998028125Q7.280050952316284,11.072298028125,7.305550352316284,11.089347828125Q7.331050652316284,11.106397628125,7.357350152316284,11.122147528125Q7.383700152316284,11.137897528125,7.410750152316284,11.152397128125Q7.437800152316284,11.166847228125,7.465550152316284,11.179997428125Q7.482651452316285,11.188070328125,7.499999752316284,11.195638628125L7.499999752316284,13.050048828125C7.499999752316284,13.326198828125,7.723850052316284,13.550048828125,7.999999752316284,13.550048828125C8.276149552316284,13.550048828125,8.499999752316285,13.326198828125,8.499999752316285,13.050048828125L8.499999752316285,11.195639628125Q8.517348052316283,11.188071228125,8.534449352316283,11.179998428125Q8.562199352316284,11.166897728125,8.589249352316283,11.152398128125Q8.616299352316284,11.137949028125,8.642649452316284,11.122148528125Q8.668948852316284,11.106349028125,8.694449152316285,11.089348828125Q8.719949452316285,11.072299028125,8.744599152316283,11.053998928125Q8.769249652316283,11.035748528125,8.792949452316284,11.016248728125Q8.816699752316284,10.996799428125,8.839449652316283,10.976199128125Q8.862199552316284,10.955598828125,8.883899452316285,10.933898928125Q8.905599352316283,10.912199028125,8.926199652316285,10.889449128125Q8.946749452316284,10.866699228125,8.966249252316285,10.842999428125Q8.985749052316283,10.819249128125,9.003999452316284,10.794599528125Q9.022299552316284,10.769948928125,9.039349352316284,10.744449628125Q9.056399152316285,10.718950228125,9.072149052316284,10.692649828125Q9.087898952316284,10.666299828125,9.102398652316285,10.639249828125Q9.116848752316283,10.612199828125,9.129998952316285,10.584449728125Q9.143098552316285,10.556699728125,9.154848852316285,10.528349828125Q9.166599052316284,10.500000028125,9.176949252316284,10.471099828125Q9.187249852316285,10.442199728125,9.196149552316285,10.412849428125Q9.205099852316284,10.383499128124999,9.212499352316284,10.353749228125Q9.220000052316284,10.323949828125,9.225999552316285,10.293899528125Q9.232000152316285,10.263749128125,9.236499552316285,10.233399428125Q9.240998952316284,10.203049628125001,9.243999252316284,10.172499628125Q9.246999452316285,10.142000228125,9.248499652316283,10.111350028124999Q9.249999752316285,10.080699928125,9.249999752316285,10.050000228125Q9.249999752316285,10.019299528125,9.248499652316283,9.988649328125Q9.246999452316285,9.958000228125,9.243999252316284,9.927499728125Q9.240999952316283,9.896949728125,9.236499552316285,9.866600028125Q9.231999152316284,9.836250328125,9.225999552316285,9.806150428125001Q9.220000052316284,9.776050528125001,9.212549952316284,9.746300728125Q9.205099852316284,9.716501228125,9.196200152316283,9.687150928125Q9.187249852316285,9.657800628124999,9.176950252316285,9.628900528125001Q9.166599952316284,9.600000428125,9.154849752316284,9.571650528125Q9.143099552316285,9.543300628125,9.129999852316285,9.515550628125Q9.116899252316284,9.487800628125001,9.102399552316285,9.460750628125Q9.087949552316285,9.433700528125,9.072149952316284,9.407350528125Q9.056350452316284,9.381051028125,9.039350252316284,9.355550728125Q9.022300452316284,9.330050428125,9.004000452316284,9.305350328125Q8.985749952316283,9.280750228125001,8.966250152316285,9.257050528125Q8.946800952316284,9.233300228125,8.926200652316284,9.210550328124999Q8.905600352316284,9.187800428125,8.883900452316285,9.166100528125Q8.862200452316284,9.144400628125,8.839450552316285,9.123800228124999Q8.816700652316285,9.103250528124999,8.793000952316284,9.083750728125Q8.769250652316284,9.064250928125,8.744601052316284,9.046000528124999Q8.719950452316283,9.027700428125,8.694451052316285,9.010650628125Q8.668951752316284,8.993600828125,8.642651352316285,8.977850928125001Q8.616301252316283,8.962101028125,8.589251252316284,8.947601328125Q8.562201252316285,8.933151228125,8.534451252316284,8.920001028125Q8.517345152316285,8.911926228125001,8.499999752316285,8.904358828125L8.499999752316285,2.925048828125ZM12.450000552316284,2.925048828125C12.450000552316284,2.648898838125,12.226150252316284,2.425048828125,11.950000552316284,2.425048828125C11.673850752316284,2.425048828125,11.450000552316284,2.648898838125,11.450000552316284,2.925048828125L11.450000552316284,4.104358528125Q11.432661752316283,4.111922728125,11.415551852316284,4.119999928125Q11.387801852316285,4.133099528125,11.360751852316284,4.147599728125Q11.333701852316285,4.162049728125,11.307351852316284,4.177849728125Q11.281052352316284,4.193649728125,11.255552052316284,4.210649928125Q11.230051752316283,4.227699728125,11.205351552316284,4.245999828125Q11.180751552316284,4.264249828125,11.157051752316285,4.283749628125Q11.133301452316283,4.303199728125,11.110551552316284,4.323799628125Q11.087801652316283,4.344399928125,11.066101752316284,4.366099828125Q11.044401852316284,4.387799728125,11.023801552316284,4.4105496281250005Q11.003251752316284,4.433299528125,10.983752052316284,4.456999828124999Q10.964252252316284,4.480749628125,10.946001752316285,4.505349628125Q10.927701752316285,4.530049828125,10.910651952316284,4.555549628125Q10.893602152316284,4.5810494281250005,10.877852152316285,4.607349428125Q10.862102252316284,4.633699428125,10.847602652316285,4.6607494281249995Q10.833152552316283,4.687799428125,10.820002352316283,4.715549428125Q10.806902652316284,4.743299528125,10.795152452316284,4.771649328125Q10.783402252316284,4.7999992281249995,10.773051952316283,4.828899428125Q10.762752252316284,4.857799528125,10.753802052316285,4.887149328125Q10.744901452316284,4.916499628125,10.737501852316285,4.946249528125Q10.730001252316285,4.976049928125001,10.724001652316284,5.006099728125Q10.718001152316283,5.036249628125001,10.713501652316285,5.066599828125Q10.709002252316285,5.096950028125001,10.706001952316285,5.1275000281250005Q10.703001752316284,5.1580000281250005,10.701501652316285,5.1886501281249995Q10.700001452316284,5.219299828125,10.700001452316284,5.250000028125Q10.700001452316284,5.2806997281250005,10.701501652316285,5.311349828125Q10.703001752316284,5.342000028125,10.706001952316285,5.372499928125Q10.709001352316285,5.403049928125,10.713501652316285,5.433400128125Q10.718002052316283,5.463750328125,10.724001652316284,5.493850228125Q10.730001252316285,5.523950528125,10.737451352316285,5.5537004281249995Q10.744901452316284,5.5835008281250005,10.753801152316285,5.612850628125Q10.762751352316284,5.642200428124999,10.773051052316283,5.671100628125Q10.783401252316285,5.700000728125,10.795151452316285,5.728350628125Q10.806901652316284,5.756700528125,10.820001352316284,5.784450528124999Q10.833101952316284,5.812200528125,10.847601652316284,5.839250528125Q10.862050752316284,5.866300628125,10.877851252316285,5.892650628125001Q10.893650752316285,5.918950528125,10.910650952316285,5.944450428125Q10.927700752316284,5.970000228125,10.946000852316285,5.994650328125Q10.964251252316284,6.019249928124999,10.983751052316284,6.042950128125Q11.003200252316285,6.066700428124999,11.023800652316284,6.089450328125Q11.044400952316284,6.112199828125,11.066100852316284,6.133900128125Q11.087800752316284,6.1556005281249995,11.110550652316284,6.176200428125Q11.133300552316284,6.196750628125001,11.157000352316285,6.216250428125Q11.180750652316284,6.235750228125,11.205350652316284,6.254000228124999Q11.230051752316283,6.272299728125001,11.255551052316283,6.289350028125Q11.281050452316284,6.306400328125,11.307350852316285,6.322150228125Q11.333700852316284,6.337900128125,11.360750952316284,6.352400328125Q11.387800952316285,6.366849928125,11.415550952316284,6.380000128124999Q11.432658952316284,6.388076328125,11.450000552316284,6.395641528125L11.450000552316284,13.050048828125C11.450000552316284,13.326198828125,11.673850752316284,13.550048828125,11.950000552316284,13.550048828125C12.226150252316284,13.550048828125,12.450000552316284,13.326198828125,12.450000552316284,13.050048828125L12.450000552316284,6.395641528125Q12.467336452316284,6.388078728125,12.484449152316284,6.380000128124999Q12.512199152316285,6.366900428125,12.539249152316284,6.352400328125Q12.566299152316285,6.337950228125,12.592649252316285,6.322150228125Q12.618948652316284,6.306350228125,12.644448952316283,6.289350028125Q12.669949252316284,6.272300228125,12.694598952316284,6.254000228124999Q12.719249452316284,6.235750228125,12.742949252316285,6.216250428125Q12.766699552316284,6.196800228124999,12.789449452316283,6.176200428125Q12.812198952316285,6.155600028125,12.833898952316284,6.133900128125Q12.855598952316285,6.112200228124999,12.876199952316284,6.089450328125Q12.896748952316285,6.066700428124999,12.916248952316284,6.043000228125Q12.935748952316285,6.019250428125,12.953998952316285,5.994650328125Q12.972298952316285,5.9699502281250005,12.989348952316284,5.944450428125Q13.006398952316284,5.918950528125,13.022148952316284,5.892650628125001Q13.037898952316285,5.866300628125,13.052397952316284,5.839250528125Q13.066848952316285,5.812200528125,13.079998952316284,5.784450528124999Q13.093097952316285,5.756700528125,13.104848952316285,5.728350628125Q13.116598952316284,5.700000728125,13.126948952316285,5.671100628125Q13.137249952316283,5.642200428124999,13.146148952316285,5.612850628125Q13.155099952316284,5.583500428124999,13.162498952316284,5.553750528125001Q13.169999952316283,5.523950128125,13.175998952316284,5.493900328125Q13.181999952316284,5.463750328125,13.186498952316285,5.433400128125Q13.190998952316285,5.403049928125,13.193998952316285,5.372499928125Q13.196998952316283,5.342000028125,13.198498952316283,5.311349828125Q13.199999952316285,5.280700228125,13.199999952316285,5.250000028125Q13.199998952316284,5.219300728125,13.198498952316283,5.188650628125Q13.196997952316284,5.158000428125,13.193997952316284,5.127500528125Q13.190998952316285,5.096950528124999,13.186497952316284,5.066600328125Q13.181997952316284,5.036250128124999,13.175997952316283,5.006150228125Q13.169998952316284,4.976049928125001,13.162548952316284,4.946300028125Q13.155098952316283,4.916499628125,13.146198952316285,4.8871498281250005Q13.137248952316284,4.857800028125,13.126948952316285,4.8288998281249995Q13.116598952316284,4.799999728125,13.104848952316285,4.771649828125Q13.093097952316285,4.7432999281249995,13.079998952316284,4.715549928125Q13.066897952316284,4.687799928125,13.052397952316284,4.660749928125Q13.037947952316284,4.633699928125,13.022148952316284,4.607349828125Q13.006348952316284,4.581049928125,12.989348952316284,4.555550128125001Q12.972298952316285,4.530000228125,12.953998952316285,4.505350128125Q12.935748952316285,4.480750528125,12.916248952316284,4.457050328125Q12.896799952316284,4.433300028125,12.876199952316284,4.410550128125Q12.855598952316285,4.387800728125,12.833898952316284,4.366100328125Q12.812198952316285,4.344399928125,12.789449452316283,4.323800128125Q12.766699552316284,4.303249828125,12.742999752316285,4.2837500281250005Q12.719249452316284,4.264250328125,12.694599852316284,4.246000328125Q12.669949252316284,4.227700728125,12.644449952316284,4.210650428125Q12.618950652316284,4.193600128125,12.592650152316285,4.177850228125Q12.566300152316284,4.162100328125,12.539250152316285,4.147600128125Q12.512200152316284,4.133150528125,12.484450052316284,4.120000328125Q12.467338352316284,4.111922728125,12.450000552316284,4.104358828125L12.450000552316284,2.925048828125Z" fill-rule="evenodd" fill="#FFFFFF" fill-opacity="0.800000011920929"/></g></svg>