<svg xmlns="http://www.w3.org/2000/svg" xmlns:xlink="http://www.w3.org/1999/xlink" fill="none" version="1.1" width="18" height="18" viewBox="0 0 18 18"><defs><clipPath id="master_svg0_9_10702"><rect x="0" y="0" width="18" height="18" rx="0"/></clipPath></defs><g clip-path="url(#master_svg0_9_10702)"><path d="M9.00000038801117,1.4048436880111694C4.805324888011169,1.4048436880111694,1.4048436880111694,4.805324888011169,1.4048436880111694,9.00000038801117C1.4048436880111694,13.194731688011169,4.805324888011169,16.59521268801117,9.00000038801117,16.59521268801117C13.194731688011169,16.59521268801117,16.59521268801117,13.194731688011169,16.59521268801117,9.00000038801117C16.59521268801117,4.805324888011169,13.194731688011169,1.4048439562320694,9.00000038801117,1.4048436880111694ZM2.6707499880111696,9.00000038801117C2.6707499880111696,5.504399688011169,5.504343388011169,2.670693788011169,9.00000038801117,2.670693788011169C12.49565668801117,2.670693788011169,15.329249688011169,5.504400088011169,15.329249688011169,8.999943088011168C15.329249688011169,11.848444688011169,13.44768768801117,14.25735168801117,10.859625188011169,15.05171368801117C10.930386888011169,13.77241968801117,10.906144488011169,12.98002468801117,10.78695048801117,12.67447468801117C10.57865658801117,12.14066368801117,10.43409378801117,12.12823168801117,10.43409378801117,12.014269688011169C10.43409378801117,11.938330688011169,10.487531088011169,11.88320668801117,10.594518988011169,11.849118688011169C11.52708768801117,11.64301868801117,12.152418688011169,11.069887488011169,12.470567688011169,10.12972488801117C12.91134268801117,8.82720028801117,12.28213168801117,7.880061988011169,12.02759968801117,7.49683128801117C12.00913168801117,7.469234788011169,11.990925688011169,7.44146378801117,11.97298068801117,7.4135249880111695C11.77498168801117,7.100999188011169,12.03440568801117,6.340443988011169,12.344062688011169,5.731818588011169C11.29095018801117,5.52071178801117,10.888762788011169,6.01003108801117,10.658081388011169,6.290605388011169C10.563863188011169,6.405243288011169,10.498276088011169,6.485005688011169,10.42858158801117,6.46807418801117C10.18839398801117,6.409574388011169,9.87727488801117,6.13799938801117,9.00011288801117,6.13799938801117C8.12390598801117,6.13799938801117,7.569112688011169,6.47071878801117,7.5675376880111695,6.46807418801117C7.1438630880111695,5.87761868801117,6.54221288801117,5.63219968801117,5.762531688011169,5.731818588011169C5.977294288011169,6.589911788011169,5.993438088011169,7.150443388011169,5.81096298801117,7.4135249880111695C5.53730668801117,7.808006188011169,5.024250588011169,8.72572508801117,5.422499988011169,10.12972488801117C5.820750088011169,11.53383768801117,7.27070608801117,11.849118688011169,7.54666888801117,11.849118688011169C7.5468929880111695,11.84923068801117,7.547512388011169,11.849343688011169,7.548525188011169,11.84956868801117C7.570462088011169,11.85429368801117,7.773524688011169,11.89811168801117,7.71254958801117,12.069729688011169C7.6621497880111695,12.26182368801117,7.682962788011169,12.746811688011169,7.400250288011169,12.87708668801117C7.11748108801117,13.00736168801117,6.4937814880111695,13.078461688011169,6.232893788011169,12.91589968801117C5.97200618801117,12.75328068801117,5.93167528801117,12.05791768801117,5.104687288011169,11.80254368801117C4.27775608801117,11.54716768801117,4.32956228801117,11.884837688011169,4.5360000880111695,11.967693688011169C4.742381488011169,12.05049368801117,5.2535246880111695,12.109106688011169,5.483812688011169,12.47956868801117C5.71410028801117,12.850143688011169,5.97363798801117,13.375856688011169,6.232893788011169,13.54634968801117C6.40575058801117,13.65997468801117,6.820031488011169,13.70548068801117,7.47568168801117,13.68286968801117C7.447162988011169,14.301842688011169,7.43191948801117,14.78525668801117,7.430006888011169,15.13310568801117C4.693894788011169,14.434762688011169,2.6706941880111694,11.95363168801117,2.6707499880111696,9.00000038801117Z" fill="#FFFFFF" fill-opacity="0.8999999761581421"/></g></svg>