<svg xmlns="http://www.w3.org/2000/svg" xmlns:xlink="http://www.w3.org/1999/xlink" fill="none" version="1.1" width="16" height="16" viewBox="0 0 16 16"><defs><clipPath id="master_svg0_6_31098"><rect x="0" y="0" width="16" height="16" rx="0"/></clipPath></defs><g clip-path="url(#master_svg0_6_31098)"><path d="M2.53943443,5.510125184744263C2.51620501,5.561104584744262,2.49362683,5.6125125847442625,2.47169995,5.664349284744263C2.27848127,6.121235084744263,2.14461629,6.591316984744263,2.070116557,7.074629584744263C2.023156939,7.377420684744263,1.99960365143,7.684111784744263,2.0000050811354,7.991989884744263L2,7.999999284744263C2,8.813549284744262,2.1572001,9.592099384744262,2.47169995,10.335599184744263C2.77535009,11.053499484744263,3.2038998999999997,11.689199684744263,3.7573499999999997,12.242649284744262C3.9883883,12.473666284744263,4.2337399,12.682922284744263,4.4934082,12.870416284744262C4.5975044,12.945742284744263,4.7039275,13.017312284744262,4.8125038,13.085353284744263C5.0822794,13.254544284744263,5.366226,13.402193284744262,5.664350000000001,13.528299284744262C6.1049948,13.714649284744263,6.5579143,13.845791284744262,7.0231495,13.921713284744262C7.3452835,13.974582284744264,7.6720185,14.000922284744263,8.000074399999999,14.000073284744262C8.2802167,14.000073284744262,8.556166600000001,13.981407284744263,8.827952400000001,13.944076284744263C9.274946199999999,13.882768284744262,9.7107148,13.771046284744262,10.1352501,13.608899284744263L10.134511,13.608707284744263C10.2015343,13.583087284744263,10.2682762,13.556210284744262,10.3347416,13.528073284744263C11.0480242,13.227682284744263,11.6958904,12.791091284744263,12.242075,12.242740284744263C12.790354,11.696751784744263,13.22694,11.049117284744263,13.527409,10.336073184744263C13.555762,10.269339784744263,13.582867,10.202149584744262,13.608715,10.134537984744263L13.6089,10.135249384744263C13.76476,9.727174084744263,13.874029,9.308719384744263,13.936719,8.879885484744262C13.979527,8.589280884744262,14.000807,8.295213484744263,14.000074,8.000074184744264C14.000074,7.696620184744263,13.978173,7.397991384744262,13.934371,7.104223484744263C13.860823,6.610485784744263,13.725462,6.130527784744262,13.5283,5.664349284744263C13.401759,5.365196484744263,13.253527,5.0803193847442625,13.083603,4.809714084744263C13.016085,4.702104284744262,12.945099,4.596612184744263,12.870741,4.493407484744263C12.683024,4.233857584744262,12.473723,3.9884433847442624,12.24265,3.7573492847442624C11.9942493,3.5089484847442627,11.7292795,3.2857076847442626,11.4477463,3.0876270847442626L11.4477463,3.0876270847442626C11.2723885,2.9640828947442626,11.0903578,2.8504711347442626,10.9027452,2.7469695247442627C10.7197695,2.645986314744263,10.5307207,2.5542294347442627,10.3355999,2.471699234744263C9.8773212,2.277878404744263,9.405726,2.1437817947442626,8.9208374,2.0694210607442627C8.619451,2.0229180807442626,8.314213299999999,1.9995988200542627,8.0078006,2.0000040455697627L8.0000486,1.9999992847442627C7.2318187,1.9999992847442627,6.4948778,2.1401391047442626,5.7891862,2.4205026047442626C5.4473803,2.555718894744263,5.117266900000001,2.722657264744263,4.8033543000000005,2.9200195047442628L4.7843213,2.9324322947442627C4.543536899999999,3.0853447847442625,4.3141274,3.2555451847442627,4.0960896,3.443033184744263C3.9804496,3.542340884744263,3.8685638,3.6460711847442626,3.7606888,3.7540132847442624C3.7595755,3.7551246847442625,3.7584625000000003,3.756236784744263,3.7573499999999997,3.7573492847442624C3.7567741999999997,3.7579249847442626,3.7561986000000003,3.7585008847442625,3.7556231,3.7590769847442624C3.5212865,3.9926046847442627,3.3073777,4.244712584744263,3.1158068,4.512567484744263C2.89244205,4.8245319847442625,2.7003181,5.157048984744263,2.53943443,5.510125184744263ZM10.1405144,3.4797631847442627C10.2338247,3.523937584744263,10.3257675,3.5709592847442626,10.416213,3.620763284744263C10.8256845,3.8464916847442625,11.1987848,4.127720384744263,11.5355501,4.464449184744263C11.7674408,4.696340584744263,11.9730101,4.945488684744262,12.15226,5.211887584744263C12.177444,5.2494623847442625,12.202281,5.287385684744263,12.226582,5.325715284744263C12.253856,5.368734884744263,12.280457,5.412266284744263,12.306376,5.456131684744262C12.314985,5.470706484744262,12.323522,5.485328884744263,12.331985,5.499999284744263L10.4701185,5.499999284744263C10.3907595,5.091223484744263,10.2931147,4.710616384744263,10.1771841,4.3581893847442625L10.1771841,4.3581893847442625C10.1671572,4.3272921847442625,10.1568184,4.296736284744263,10.1463432,4.266356984744263C10.1168547,4.180338584744263,10.0862465,4.096049584744263,10.0545177,4.013487084744263C10.0431385,3.9836824847442625,10.0316391,3.954081284744263,10.0200205,3.924685884744263C9.9735785,3.8075412847442625,9.9232111,3.6920225847442625,9.869009,3.5783240847442626C9.8243227,3.4839595847442624,9.7782874,3.3936625847442627,9.730903099999999,3.307432484744263C9.756849800000001,3.3170307847442624,9.782710999999999,3.326839784744263,9.808486,3.336858184744263C9.8545032,3.3547585847442627,9.9003577,3.373372084744263,9.9460506,3.392698984744263C10.0116949,3.4204647847442624,10.0765162,3.449486184744263,10.1405144,3.4797631847442627ZM8.5136232,3.297827984744263Q8.503521,3.2867728847442628,8.493354799999999,3.2760194847442627L8.493354799999999,3.2760194847442627C8.3191924,3.0919290847442626,8.1546121,3.0000193847442627,8.000021,3.0000193847442627C7.8725753,3.0000193847442627,7.7383394,3.0624855847442625,7.5976872,3.1874178847442627C7.5677505,3.214027384744263,7.5375209,3.243471184744263,7.5069985,3.275749184744263C7.3445168,3.4475949847442626,7.1929941,3.6786738847442626,7.0524912,3.9690265847442627C7.0032067,4.070921384744263,6.9552722,4.180137384744263,6.9086876,4.296685884744263C6.765357,4.655347384744262,6.6460247,5.056673984744263,6.5506921,5.499999284744263L9.449517700000001,5.499999284744263C9.3542852,5.056433884744262,9.234913800000001,4.655322084744263,9.091446900000001,4.296599184744263C8.9176526,3.862163084744263,8.7250891,3.5292703847442626,8.5136232,3.297827984744263ZM6.332128,7.071478084744263C6.3457971,6.880660284744263,6.3637638,6.690125684744262,6.3860211,6.500019284744263L8.0360212,6.500019284744263L9.6141424,6.499999284744263C9.671412499999999,6.983338084744263,9.7000475,7.4833318847442625,9.7000475,7.999999284744263C9.7000475,8.081499384744262,9.6993475,8.162598884744263,9.697897900000001,8.243249184744263L9.698790599999999,8.242854784744264C9.6913009,8.662951684744263,9.6630392,9.082537884744262,9.6140747,9.500074184744264L8.3400002,9.499999284744263L6.3859553,9.499999284744263C6.3373494,9.089777684744263,6.3093696,8.667556484744264,6.3020153,8.233358584744263L6.30198,8.231273384744263C6.3006926,8.154553684744263,6.3000488,8.077463384744263,6.3000488,7.999999284744263C6.3000488,7.684271584744263,6.3107419,7.374759884744263,6.332128,7.071478084744263ZM3.0000043,8.009001484744264L3.0000210000000003,8.000019284744262C3.0000210000000003,7.4826857847442625,3.076021,6.982686284744263,3.2286878000000003,6.500019284744263L5.3793545,6.500019284744263C5.3260212,6.985352784744263,5.3000212,7.485352784744263,5.3000212,8.000019284744262C5.3000212,8.079826084744262,5.3006694,8.159269584744262,5.3019607,8.238355384744263C5.3089023,8.669158184744262,5.3347461,9.089712384744264,5.379501100000001,9.499999284744263L3.2283137,9.499999284744263C3.0769876,9.020082284744262,3.0008856,8.523075784744263,3.0000043,8.009001484744264ZM3.668021,10.500019284744262L4.0360208,10.500019284744262L5.5299847,10.499999284744263C5.6036719999999995,10.879574084744263,5.6931212,11.234849184744263,5.7983239,11.565825684744263L6.1644802,12.490935284744262C6.1987114,12.560543284744263,6.2336969,12.627812284744262,6.2694082,12.692741284744264C5.9328117,12.567903284744263,5.6104863,12.407803284744263,5.3077927,12.215177284744263C5.0050726,12.021597284744262,4.7239553999999995,11.795053684744262,4.4644499,11.535548484744263C4.2152233,11.286295184744263,3.9964002,11.017137784744262,3.8079804,10.728059984744263C3.7644083,10.661115884744262,3.7224212000000003,10.593167584744263,3.682096,10.524235984744262C3.6773854,10.516179284744263,3.6726979,10.508106484744262,3.668021,10.500019284744262ZM5.0085101000000005,3.9922052847442626C5.1166412999999995,3.911252284744263,5.228025199999999,3.834755784744263,5.342381,3.762905684744263C5.5677292000000005,3.6214338847442624,5.8049202,3.498031584744263,6.0539498,3.3926992847442627Q6.1606531,3.3475665847442624,6.2685418,3.3076185847442625C6.1659288,3.4942161847442628,6.0693116,3.7007927847442628,5.9793544,3.925352684744263C5.79269,4.393347284744262,5.6420245,4.918007184744263,5.5293584,5.499999284744263L3.6680325,5.499999284744263C3.8869399,5.1213898847442625,4.154798700000001,4.773287284744263,4.4646878,4.464686184744263C4.5115194,4.417611084744262,4.559249599999999,4.371522884744262,4.607846,4.3264433847442625C4.7364042,4.207408684744262,4.8699591,4.095995884744262,5.0085101000000005,3.9922052847442626ZM10.6205969,6.499999284744263L10.8641491,6.499999284744263L12.771407,6.500074184744263C12.819992,6.653677184744263,12.860811,6.809035984744263,12.893888,6.966150084744263C12.964629,7.302736084744263,13,7.647354884744263,13,7.999999284744263C13.000035,8.028452684744263,12.99983,8.056901184744262,12.999383,8.085340284744262C12.998383,8.146964784744263,12.996295,8.208341384744262,12.993119,8.269468984744263C12.982185,8.478347084744263,12.958243,8.686428284744263,12.921484,8.892587884744263C12.884529,9.098045584744263,12.834519,9.300540684744263,12.771407,9.500074184744264L10.6207409,9.500074184744264C10.6740742,9.014740684744263,10.7000742,8.514740684744263,10.7000742,8.000074184744264C10.7000742,7.913207784744262,10.6993093,7.826762884744262,10.6977844,7.740735284744263C10.6903534,7.317215684744263,10.664628,6.903650984744263,10.6205969,6.499999284744263ZM6.5505776,10.499999284744263L6.8641491,10.499999284744263L9.4494076,10.500073684744264C9.3640671,10.910523684744263,9.2443104,11.313056184744262,9.091407799999999,11.703406584744263C8.941751,12.077825284744263,8.778166299999999,12.376568284744263,8.6005983,12.599950284744263C8.566568400000001,12.642908284744262,8.5307016,12.684380284744263,8.4930983,12.724250284744263C8.3192482,12.908100284744263,8.1548986,13.000000284744262,8.0000486,13.000000284744262C7.9226236,13.000000284744262,7.842824,12.977025284744263,7.7606492,12.931068284744264C7.7355213,12.917016284744262,7.7101712,12.900814284744262,7.6845989,12.882463284744263C7.6265435,12.840802284744262,7.5673437,12.788066284744263,7.506999,12.724250284744263C7.2874489,12.492100284744263,7.0880489,12.151850284744263,6.908649,11.703399884744263C6.9032259,11.689841484744262,6.8978372,11.676223084744263,6.8924837,11.662544484744263C6.8555388,11.567288684744263,6.8206582,11.471269884744263,6.7878633,11.374555784744263C6.6967902,11.104116684744262,6.6176896,10.812597484744263,6.5505776,10.499999284744263ZM9.9467411,12.607408284744263C9.8754005,12.637493284744263,9.8033819,12.665945284744263,9.7307415,12.692740284744263C9.8334084,12.506074284744262,9.930074699999999,12.299407284744262,10.0200748,12.074740284744262C10.2067413,11.607407784744263,10.3574085,11.082074384744264,10.4700747,10.500073684744264L12.332075,10.500073684744264C12.113165,10.878690984744262,11.8453026,11.226800184744263,11.535408,11.535407284744263C11.0803614,11.992669384744262,10.5405073,12.356799284744262,9.9460745,12.607408284744263L9.9467411,12.607408284744263ZM5.8552477,11.738069784744262C5.886879,11.829897184744263,5.9196484,11.919701784744262,5.9535561,12.007283284744263C5.9195123,11.919511084744263,5.8867433,11.829774184744263,5.8552477,11.738069784744262Z" fill-rule="evenodd" fill="#FFFFFF" fill-opacity="0.8999999761581421"/></g></svg>