<svg xmlns="http://www.w3.org/2000/svg" xmlns:xlink="http://www.w3.org/1999/xlink" fill="none" version="1.1" width="24" height="24" viewBox="0 0 24 23.999998092651367"><defs><clipPath id="master_svg0_9_10704"><rect x="0" y="0" width="24" height="23.999998092651367" rx="0"/></clipPath></defs><g clip-path="url(#master_svg0_9_10704)"><path d="M11.245605729043579,13.241769265625Q10.201405729043579,12.278984265625,8.476825029043578,11.977687865625C8.434194329043578,11.970237765625,8.391000029043578,11.966490765625,8.347724229043578,11.966490765625C7.933593029043579,11.966490765625,7.597873929043579,12.302211265625,7.597873929043579,12.716341265625C7.597873929043579,13.080663265625,7.859740529043579,13.392268265625,8.21862242904358,13.454994265625Q9.77033352904358,13.726352265625,10.50772692904358,14.643038265625Q11.04724712904358,15.313736265625,11.16493912904358,15.771099265625Q11.22560622904358,16.006860265625,11.245605729043579,16.594694265625L11.245605729043579,17.280211265625C11.24561902904358,17.318207265625,11.248458129043579,17.355543265625002,11.253922729043579,17.392021265625Q11.226620929043579,18.537039265625,10.708367629043579,19.270693265625Q9.998131029043579,20.276123265625,8.347994529043579,20.276123265625Q7.072348329043579,20.276123265625,6.442496529043579,19.238468265625Q5.897732529043579,18.340992265625,5.754001329043579,16.702137265624998Q6.0383484290435785,16.836014265625,6.345592729043579,16.962644265625002C6.436229929043579,17.000004265625,6.533313029043579,17.019227265625,6.631347929043579,17.019227265625C7.045479029043579,17.019227265625,7.381198129043579,16.683508265625,7.381198129043579,16.269377265625C7.381198129043579,15.965620265625,7.197941029043579,15.691869265625,6.917160729043579,15.575972265625Q3.7229004290435794,14.259340265625,3.7229010290435793,12.259459265625Q3.7229010290435793,10.257939365625,6.284245729043579,9.193117665625L6.746338129043579,9.001012765625L6.746338129043579,5.838226365625Q6.746338129043579,5.034048765625,7.411011929043579,4.322292065625Q8.074717729043579,3.6115724656249997,8.85424972904358,3.6115721656249997Q9.693331029043579,3.6115721656249997,10.45068862904358,4.387370365624999Q11.245605729043579,5.201642265625,11.245605729043579,6.203063965625L11.245605729043579,13.241769265625ZM12.765380629043579,16.594694265625Q12.78538062904358,16.006860265625,12.846047629043579,15.771099265625Q12.963739629043578,15.313736265625,13.50325962904358,14.643038265625Q14.24065362904358,13.726352265625,15.792364629043579,13.454994265625C16.15124762904358,13.392268265625,16.41311362904358,13.080663265625,16.41311362904358,12.716341265625C16.41311362904358,12.302211265625,16.07739462904358,11.966490765625,15.66326262904358,11.966490765625C15.619986629043579,11.966490765625,15.57679162904358,11.970237765625,15.534161629043579,11.977687865625Q13.809580629043579,12.278984265625,12.765380629043579,13.241769265625L12.765380629043579,6.203063965625Q12.765380629043579,5.201642265625,13.56029862904358,4.387370365624999Q14.317654629043579,3.6115721656249997,15.156736629043579,3.6115721656249997Q15.936267629043579,3.6115724656249997,16.59997362904358,4.322292065625Q17.264648629043577,5.034048765625,17.264648629043577,5.838226365625L17.264648629043577,9.001012765625L17.72674062904358,9.193117665625Q20.28808662904358,10.257939365625,20.28808662904358,12.259459265625Q20.28808662904358,14.259340265625,17.09382562904358,15.575972265625C16.81304562904358,15.691869265625,16.62978962904358,15.965620265625,16.62978962904358,16.269377265625C16.62978962904358,16.683508265625,16.96550862904358,17.019227265625,17.37963862904358,17.019227265625C17.47767262904358,17.019227265625,17.574756629043577,17.000004265625,17.665393629043578,16.962644265625002Q17.97264362904358,16.836012265625,18.25698462904358,16.702137265624998Q18.113253629043577,18.340992265625,17.568491629043578,19.238468265625Q16.93863762904358,20.276123265625,15.662992629043579,20.276123265625Q14.01285562904358,20.276123265625,13.30261962904358,19.270693265625Q12.78436562904358,18.537039265625,12.757063629043579,17.392021265625C12.76252862904358,17.355543265625002,12.76536762904358,17.318207265625,12.765380629043579,17.280211265625L12.765380629043579,16.594694265625ZM19.80469762904358,15.798926265625Q21.78808662904358,14.343072265625,21.78808662904358,12.259459265625Q21.788084629043578,9.463166265625,18.764648629043577,8.014293665625L18.764648629043577,5.838226365625Q18.764648629043577,4.442565165625,17.69627362904358,3.298512065625Q16.58785062904358,2.111572265625,15.156736629043579,2.111572265625Q13.685740629043579,2.111572265625,12.486957629043578,3.339543365625Q12.21622392904358,3.616868565625,12.00549242904358,3.9119195656250003Q11.794762829043579,3.616868565625,11.524029029043579,3.339543365625Q10.32524612904358,2.111572265625,8.85424972904358,2.111572265625Q7.423135029043579,2.111572265625,6.3147118290435795,3.298512065625Q5.246338129043579,4.442565165625,5.246338129043579,5.838226365625L5.246338129043579,8.014293665625Q2.222900629043579,9.463166265625,2.222900629043579,12.259459265625Q2.222900629043579,14.343072265625,4.206288829043579,15.798926265625Q4.261771429043579,18.536623265625,5.1602313290435795,20.016796265625Q6.228133429043579,21.776123265625,8.347994529043579,21.776123265625Q10.77503612904358,21.776123265625,11.933520529043578,20.136139265625Q11.970336229043578,20.084020265625,12.005493429043579,20.030824265625Q12.04065062904358,20.084020265625,12.07746622904358,20.136139265625Q13.235950629043579,21.776123265625,15.662992629043579,21.776123265625Q17.782854629043577,21.776123265625,18.85075562904358,20.016796265625Q19.74921462904358,18.536623265625,19.80469762904358,15.798926265625Z" fill="#FFFFFF" fill-opacity="0.8999999761581421"/></g></svg>