<svg xmlns="http://www.w3.org/2000/svg" xmlns:xlink="http://www.w3.org/1999/xlink" fill="none" version="1.1" width="24" height="24" viewBox="0 0 24 23.999998092651367"><defs><clipPath id="master_svg0_9_10705"><rect x="0" y="0" width="24" height="23.999998092651367" rx="0"/></clipPath></defs><g clip-path="url(#master_svg0_9_10705)"><path d="M5.475000056948852,14.699999856948853L5.475000056948852,12.225000656948852L4.649999756948852,12.225000656948852C4.339349926948852,12.225000656948852,4.074149906948852,12.115200256948853,3.8544748769488524,11.895526156948852C3.6347998269488526,11.675850156948853,3.5249998569488525,11.410650056948853,3.5249998569488525,11.100000156948852L3.5249998569488525,8.325000056948852C3.5249998569488525,8.014350156948852,3.6347998269488526,7.749150056948853,3.8544748769488524,7.529474956948852C4.074225006948852,7.309875056948853,4.339349926948852,7.200000256948853,4.649999756948852,7.200000256948853L5.474999656948853,7.200000256948853L5.474999656948853,4.6499998569488525C5.474999656948853,4.339349986948853,5.584874656948852,4.074149966948853,5.804474556948852,3.8544749069488526C6.024224756948852,3.6347998369488526,6.2893500569488525,3.5249998569488525,6.599999856948853,3.5249998569488525L17.399998856948855,3.5249998569488525C17.71064885694885,3.5249998569488525,17.97584885694885,3.6347998369488526,18.195523856948853,3.8544749069488526C18.415198856948855,4.074225066948853,18.524998856948855,4.339349986948853,18.524998856948855,4.6499998569488525L18.524998856948855,7.200000256948853L19.350000856948853,7.200000256948853C19.660650856948852,7.200000256948853,19.92584985694885,7.309875056948853,20.145524856948853,7.529474956948852C20.365199856948852,7.749224856948852,20.475000856948853,8.014349656948852,20.475000856948853,8.325000056948852L20.475000856948853,11.100000156948852C20.475000856948853,11.410650056948853,20.365199856948852,11.675850156948853,20.145524856948853,11.895525256948853C19.92584985694885,12.115200256948853,19.66064685694885,12.224999656948853,19.349997856948853,12.224999656948853L18.524998856948855,12.224999656948853L18.524998856948855,14.699998856948852C18.524998856948855,15.010648856948853,18.415198856948855,15.275848856948853,18.195523856948853,15.495523856948852C17.97584885694885,15.715200856948853,17.71064885694885,15.825000856948853,17.399998856948855,15.825000856948853L14.774999856948853,15.825000856948853L14.774999856948853,17.249998856948853L15.374998856948853,17.249998856948853C15.685647856948853,17.249998856948853,15.950847856948853,17.359799856948854,16.170522856948853,17.579474856948853C16.390197856948852,17.79914985694885,16.499997856948852,18.06434985694885,16.499997856948852,18.374998856948853L16.499997856948852,20.399999856948853C16.499997856948852,20.71064985694885,16.390197856948852,20.97584985694885,16.170522856948853,21.195524856948854C15.950847856948853,21.415199856948853,15.685647856948853,21.524999856948853,15.374998856948853,21.524999856948853L8.700000056948852,21.524999856948853C8.389350156948852,21.524999856948853,8.124149556948852,21.415199856948853,7.9044744569488525,21.195524856948854C7.684874756948853,20.97584985694885,7.575000056948853,20.71064985694885,7.575000056948853,20.399999856948853L7.575000056948853,18.374998856948853C7.575000056948853,18.06434985694885,7.684874756948853,17.79914985694885,7.9044744569488525,17.579474856948853C8.124224856948853,17.359799856948854,8.389349256948853,17.249998856948853,8.700000056948852,17.249998856948853L9.224999656948853,17.249998856948853L9.224999656948853,15.825000856948853L6.599999856948853,15.825000856948853C6.2893500569488525,15.825000856948853,6.024149656948852,15.715200856948853,5.804475056948853,15.495524856948853C5.584874656948852,15.275849856948852,5.475000056948852,15.010649856948852,5.475000056948852,14.699999856948853ZM6.974999856948853,5.0249998569488525L6.974999856948853,14.324998856948852L17.024998856948855,14.324998856948852L17.024998856948855,5.0249998569488525L6.974999856948853,5.0249998569488525ZM8.399999356948854,9.712499856948853C8.399999356948854,9.029025356948853,8.954024556948852,8.475000156948852,9.637499056948853,8.475000156948852C10.320973656948851,8.475000156948852,10.874998856948853,9.029025356948853,10.874998856948853,9.712499856948853C10.874998856948853,10.395974356948852,10.320973656948851,10.949999556948853,9.637499056948853,10.949999556948853C8.954024556948852,10.949999556948853,8.399999356948854,10.395974356948852,8.399999356948854,9.712499856948853ZM13.274999856948853,9.712499856948853C13.274999856948853,9.029025356948853,13.829025856948853,8.475000156948852,14.512498856948852,8.475000156948852C15.195973856948852,8.475000156948852,15.749997856948852,9.029025356948853,15.749997856948852,9.712499856948853C15.749997856948852,10.395974356948852,15.195973856948852,10.949999556948853,14.512498856948852,10.949999556948853C13.829025856948853,10.949999556948853,13.274999856948853,10.395974356948852,13.274999856948853,9.712499856948853ZM5.024999756948852,8.700000056948852L5.024999756948852,10.725000156948852L5.474999656948853,10.725000156948852L5.474999656948853,8.700000056948852L5.024999756948852,8.700000056948852ZM18.974997856948853,8.700000056948852L18.524998856948855,8.700000056948852L18.524998856948855,10.725000156948852L18.974997856948853,10.725000156948852L18.974997856948853,8.700000056948852ZM10.724998756948853,15.825000856948853L10.724998756948853,17.249998856948853L13.274997956948852,17.249998856948853L13.274997956948852,15.825000856948853L10.724998756948853,15.825000856948853ZM14.999998856948853,18.749998856948853L9.075000056948852,18.749998856948853L9.075000056948852,20.024999856948853L14.999998856948853,20.024999856948853L14.999998856948853,18.749998856948853Z" fill="#FFFFFF" fill-opacity="0.8999999761581421"/></g></svg>