<svg xmlns="http://www.w3.org/2000/svg" xmlns:xlink="http://www.w3.org/1999/xlink" fill="none" version="1.1" width="53" height="58" viewBox="0 0 53 58"><path d="M45.395741,5.2631326C46.93993,6.4983301,48.230701,7.7210512,49.358246,9.343029C52.231865,13.479068,54.405331,20.649036,51.901119,25.315336C50.958275,27.072479,49.431267,28.255692,47.530548,28.956469C48.484127,30.029467,49.585899,31.189806,49.873684,32.635025C50.722027,36.895836,47.352283,40.582714,43.565895,42.127747C43.561596,42.439663,43.557304,42.732872,43.464951,43.034389C43.329647,43.475235,42.996758,44.013821,42.809906,44.419312C42.745476,44.556557,42.816345,44.710434,42.7691,44.806091C42.625198,45.099293,42.644531,44.812328,42.517811,45.305161C42.427616,45.658665,42.159145,46.178528,42.00666,46.511246C41.620071,47.35342,41.106773,48.339088,40.57629,49.135521C40.453869,49.320583,40.052254,49.919472,39.916946,50.05048C39.637749,50.318722,39.796677,50.010963,39.528214,50.50172C38.752895,51.921986,36.053234,54.290489,34.642193,55.220005C34.384472,55.390522,33.284847,56.093376,33.078671,56.145363C32.958397,56.176556,32.747925,56.078815,32.715706,56.110008C32.696381,56.128727,32.765102,56.28677,32.65987,56.378265C32.56752,56.459362,31.903877,56.694336,31.721325,56.762962C16.730375,62.55217,6.0777831,46.856438,6.2023501,33.851513L6.2023501,31.266747C4.4755988,30.832142,2.9335501,31.25635,2.2312524,32.932392C1.1659932,35.473488,2.334342,38.14143,4.3574758,39.792522L5.568779,40.543201C5.79214,40.757393,5.5795169,41.06723,5.6138797,41.325085C4.7483559,41.460243,3.8978672,40.83849,3.2664435,40.320698C2.4352834,39.640717,1.5031817,38.509491,1.0822324,37.536308C0.90182555,37.11834,0.54960275,36.091084,0.51738721,35.679356C0.49161482,35.325848,0.49591023,35.111664,0.45939931,34.720726C0.30261719,33.088352,1.421569,30.875807,2.9636178,30.133444C3.1461723,30.046106,3.1955693,30.079378,3.427521,29.962929C3.5284626,29.913019,3.7217562,29.977484,3.8098118,29.819443C3.5026903,29.388992,3.6272573,28.941912,3.5885987,28.461557C2.9528792,28.203703,2.3278987,27.922981,1.8231889,27.459259C-0.85284555,25.001341,-0.17632006,20.578339,1.2669345,17.650461C3.805516,12.505883,10.061767,7.1949506,15.982974,6.2716703C18.736326,5.8433027,21.706594,5.9597526,24.176449,7.2968431C24.470686,6.5295238,24.69405,5.7351704,25.048414,4.990725C29.219254,-3.7388351,39.727947,0.72367948,45.395729,5.2506576L45.395741,5.2631326ZM43.877316,5.5105882C41.368805,3.4768794,38.097855,1.8424263,34.897778,1.1270932C30.406939,0.12063585,26.379995,2.4558661,25.402794,6.8372822C25.224537,7.6337142,25.447897,8.7275085,24.698349,9.2224197C24.371901,9.3097563,23.70611,8.5299597,23.403284,8.3220139C19.412859,5.5833697,12.419948,7.8894863,8.8461752,10.463854C5.600997,12.801164,1.7050689,18.107937,1.1681439,22.038113C0.81806868,24.591684,1.8554078,26.866613,4.6087594,27.436384C4.6667471,28.143396,4.460568,28.792192,4.7054067,29.486729C5.1478319,30.744802,6.5202131,29.293341,6.425714,28.476114C5.9532194,28.511463,5.3711929,28.792192,4.9867554,28.422049C5.0511861,27.673445,5.9682546,27.690079,6.449338,27.490454C9.3530293,26.292685,11.971076,25.047091,14.481737,23.28371C14.662145,23.156866,15.218399,22.894852,15.312899,22.795038C15.480417,22.622442,15.188332,22.51639,15.690893,22.535105C18.880228,19.929546,21.236256,16.779171,23.265831,13.244093C23.628794,12.611938,23.985313,11.644991,24.369749,11.075219C25.151514,9.9148817,25.70562,11.11057,26.068583,11.780155C29.217113,17.556885,32.848873,22.882376,39.158813,25.866398C39.672119,26.109694,40.38945,26.278128,40.909191,26.531822C41.246376,26.6961,41.52343,27.014259,41.9272,27.076639C42.021698,27.99576,40.198299,27.261713,40.125278,27.334494C40.185417,28.03319,40.219776,29.062523,41.162621,29.091633C42.105461,29.120747,42.350296,27.979124,42.897961,27.41975C44.596798,27.642256,46.28059,27.989525,47.925728,27.322018C49.570869,26.65451,50.460011,24.972231,50.990494,23.379364C53.039402,17.222094,48.701046,9.4137325,43.881611,5.506434L43.877316,5.5105882ZM25.03339,12.470531C24.850832,12.435181,24.822912,12.553709,24.745596,12.670159C24.429886,13.144276,24.146389,13.965659,23.847857,14.512558C21.554115,18.700583,18.770697,21.853041,14.870473,24.712296C12.780761,26.244854,10.43977,27.507086,7.8904476,28.143396C7.3964772,31.166929,7.220366,34.292355,7.6112466,37.342918C8.4295206,43.731007,11.74557,50.576584,17.389725,54.205231C24.075512,58.503468,31.648306,56.80455,36.867222,51.260723C37.006817,51.113079,37.131386,50.830265,37.258102,50.7159C37.350452,50.632721,37.543747,50.641041,37.580257,50.586979C37.623211,50.522518,37.56522,50.372787,37.618912,50.279221C37.655426,50.214756,37.971138,50.025524,38.046307,49.92363C38.883907,48.773685,39.566875,47.553051,40.271324,46.324085C40.625698,45.70649,41.263561,44.359009,41.525581,43.606239C41.65015,43.244415,42.193516,40.917503,42.307343,40.82185C42.930176,40.796894,43.372608,40.295746,43.913822,40.058685C44.046982,40.000462,44.246712,40.05661,44.34766,39.998383C44.392765,39.973431,44.452896,39.765484,44.592495,39.667747C45.876823,38.754868,46.933491,38.270351,47.839821,36.864643C50.06913,33.414822,47.300747,28.091413,42.83353,29.210161C42.358887,29.328693,41.959415,29.915094,41.514847,29.958767C41.14114,29.996195,40.475357,29.823603,40.168236,29.611498C39.369289,29.058361,39.354252,27.873072,39.231834,27.022575C38.516651,26.689859,37.747772,26.434088,37.047623,26.072262C34.380184,24.689423,32.062813,22.418657,30.138472,20.166605C28.09601,17.775229,26.485233,15.229972,25.035536,12.468454L25.03339,12.470531Z" fill="#FFFFFF" fill-opacity="0.800000011920929"/><path d="M20.735839268945313,4.911704687986756C20.54898881894531,4.749506787986755,19.934746418945313,4.148543687986756,19.85742906894531,3.9655514879867555C19.554602570945313,3.243979687986755,19.466547708945313,1.6032883179867554,20.49099993894531,1.3787069689867553C22.024457968945313,1.0439143479867554,23.585836668945312,2.547361687986755,24.066921268945315,3.8283074879867556C24.50505206894531,5.0011208879867555,24.63391396894531,6.192649687986755,22.92219636894531,5.986783887986755C22.209160068945312,5.901525887986756,21.262023568945313,5.367105887986756,20.735839268945313,4.911704687986756ZM21.027926668945312,2.0046237679867556C20.443751988945312,2.1543447379867553,20.327775958945313,2.4995345879867554,20.448048288945312,3.048511387986755C20.624159578945314,3.855340387986755,22.110367768945313,5.059346287986756,22.932937168945312,5.190352287986755C24.101286868945312,5.377503287986755,23.562213468945313,4.289947187986755,23.24435326894531,3.6661101879867553C22.92649266894531,3.0422733879867554,21.781769968945312,1.8133141079867554,21.030074868945313,2.0067036779867555L21.027926668945312,2.0046237679867556Z" fill="#FFFFFF" fill-opacity="0.800000011920929"/><path d="M34.1890334876709,33.08210882460938C34.2878293876709,33.227670224609376,34.5777663876709,33.23182992460937,34.4145431876709,33.66643572460937C34.4016570876709,33.701786024609376,33.9978885876709,34.08232732460937,33.9356059876709,34.08232732460937C33.8969497876709,34.08232732460937,33.2182755876709,33.955480324609375,33.1731724876709,33.93676612460938C32.874642387670896,33.82239512460937,32.659872487670896,33.45017362460938,32.4193310876709,33.35243892460937C32.249664287670896,33.28381662460937,32.0864362876709,33.32124832460938,31.968312287670898,33.281738024609375C31.850188687670897,33.242228024609375,31.6075000876709,32.79514582460938,31.2681631876709,32.936547524609374C31.3132662876709,33.86606502460938,30.1792778876709,34.68121192460937,29.294426187670897,34.722800524609376C28.409574987670897,34.76438902460937,27.507538287670897,34.22788862460938,27.6686157876709,33.300452424609375C27.9155997876709,33.152809624609375,28.119633887670897,33.22143192460938,28.377357287670897,33.28589482460937C28.2785615876709,32.99269052460937,28.2699725876709,32.79306452460938,28.377357287670897,32.49986012460938C28.224869487670897,32.37301322460937,27.4516992876709,32.763952224609376,27.2648487876709,32.863765224609374C26.7257755876709,33.152809624609375,25.8194457576709,34.232048524609375,25.424269699780897,33.50631642460937C25.413530542670898,33.383629524609375,25.855957897670898,32.81801672460937,25.971933897670898,32.705724624609374C27.5182773876709,31.189801730609375,29.7712158876709,30.771828834609376,31.809381987670896,31.582818984609375C32.215296287670895,31.742938044609375,33.7509011876709,32.51649632460938,34.0301026876709,32.75771092460938C34.1396340876709,32.85336732460937,34.1224526876709,32.98437082460938,34.191180187670895,33.08418712460937L34.1890334876709,33.08210882460938Z" fill="#FFFFFF" fill-opacity="0.800000011920929"/><path d="M20.302005789611815,32.797223095263675C20.546843489611817,32.934467995263674,20.907656689611816,33.31292749526367,20.993564589611815,33.57494119526367C21.073030489611817,33.81823719526367,20.896919289611816,34.01370669526367,21.060143489611818,34.24660489526367C20.772352189611816,34.184220595263675,20.589796089611816,34.46702699526367,20.312742689611817,34.41088059526367C20.164550789611816,34.38176849526367,20.067904989611815,34.234125395263675,19.969110989611817,34.20501329526367C19.311915389611816,34.009543895263675,18.991907089611814,33.82863209526367,18.369074789611815,33.57077809526367C17.638856889611816,33.269257595263674,17.887990489611816,33.68930879526367,17.799934889611816,34.10727859526367C17.668924289611816,34.72903709526367,17.140590689611816,35.417336895263674,16.476952089611817,35.54210259526367C16.382452689611817,35.55873849526367,15.635053889611816,35.54210259526367,15.557736589611817,35.51506849526367C15.123901589611815,35.36950729526367,14.576237689611816,34.60010889526367,14.666440489611816,34.13846899526367C14.778120289611817,33.56245859526367,15.544850789611816,34.06568669526367,15.368737889611817,33.28381209526367C14.382944089611817,33.42521379526367,13.641986589611816,34.11767319526367,12.956870559611817,34.75814629526367C11.842214469611816,34.67496969526367,13.079289439611816,33.48967639526367,13.472318889611817,33.150726995263675C15.351555589611817,31.52667158526367,18.186520589611817,31.61193010526367,20.30415388961182,32.79306012526367L20.302005789611815,32.797223095263675Z" fill="#FFFFFF" fill-opacity="0.800000011920929"/><path d="M27.735196121728514,46.41558837890625C27.990772721728515,46.76285734890625,28.250642821728515,46.98743909890625,28.177620921728515,47.47611267890625C28.074533021728517,48.17688867890625,27.093031921728517,49.74064107890625,26.498119821728515,50.16069247890625C24.352567921728514,51.67869667890625,22.391716521728515,50.59321977890625,21.386594441728516,48.49296707890625C21.126722921728515,47.95022867890625,20.540400031728517,46.76701712890625,21.599216281728516,46.79405107890625C22.151175121728514,47.50938477890625,22.290776121728516,48.41394657890625,22.965153821728517,49.06481767890625C24.320352121728515,50.37487627890625,25.853809321728516,49.42456267890625,26.605506421728514,48.05836137890625C26.923367521728515,47.48027257890625,26.989944921728515,46.58194557890625,27.735196121728514,46.41558837890625Z" fill="#FFFFFF" fill-opacity="0.800000011920929"/><path d="M23.850004171875,36.87711715698242C24.075513571875,37.04971246698242,23.738324871875,39.372465356982424,23.579393671875,39.61992165698242C23.362475371875,39.963030556982424,22.990924371875,39.73013235698242,22.649438871875,39.76340435698242C21.317865471875,39.89856815698242,20.637043381875,41.08386085698242,21.509010671875,42.16725585698242C21.970766571875,42.741185156982425,22.799778971875,42.68504185698242,23.209989071875,43.300559956982426C23.020992071875,43.764277956982426,22.849175471875,43.58544445698242,22.617223271874998,43.666543456982424C22.499098971875,43.70813135698242,22.514132971875,43.87032845698242,22.453997571875,43.87241025698242C22.372385471875,43.87656975698242,22.005129071875,43.75596095698242,21.902038771875,43.712291256982425C19.402115701875,42.64137215698242,19.674872931875,39.091737756982425,22.595746471875,39.06054715698242C22.559236071875,38.66129155698242,22.769709571875,37.27013441698242,23.042468271875,36.999804366982424C23.283011671875002,36.76066806698242,23.553620571875,36.96445397298242,23.852150671875002,36.87711715698242L23.850004171875,36.87711715698242Z" fill="#FFFFFF" fill-opacity="0.800000011920929"/></svg>