<svg xmlns="http://www.w3.org/2000/svg" xmlns:xlink="http://www.w3.org/1999/xlink" fill="none" version="1.1" width="24" height="24" viewBox="0 0 24 23.999998092651367"><defs><clipPath id="master_svg0_9_10709"><rect x="0" y="0" width="24" height="23.999998092651367" rx="0"/></clipPath></defs><g clip-path="url(#master_svg0_9_10709)"><path d="M16.34399909536743,7.799999218530274L19.64399909536743,7.799999218530274C20.471999095367433,7.799999218530274,21.14399909536743,7.127999318530273,21.14399909536743,6.299999218530274L21.14399909536743,3.899999518530273C21.14399909536743,3.0719994885302735,20.471999095367433,2.3999996185302734,19.64399909536743,2.3999996185302734L16.34399909536743,2.3999996185302734C15.515999095367432,2.3999996185302734,14.843999095367431,3.0719994885302735,14.843999095367431,3.899999518530273L14.843999095367431,4.403999318530273L13.308000095367431,4.403999318530273C12.732000095367432,4.403999318530273,12.227999195367431,4.607999318530274,11.820000195367431,5.015999318530273C11.412000195367431,5.4239993185302735,11.207999695367432,5.915999218530273,11.207999695367432,6.503999218530273L11.207999695367432,10.967999418530274L9.144000495367433,10.967999418530274L9.144000495367433,8.927999518530275C9.144000495367433,8.099999418530274,8.472000595367431,7.427999518530274,7.644000495367432,7.427999518530274L3.899999895367432,7.427999518530274C3.0720002053674316,7.427999518530274,2.4000000953674316,8.099999418530274,2.4000000953674316,8.927999518530275L2.4000000953674316,14.183998618530273C2.4000000953674316,15.011999618530274,3.0720002053674316,15.683999618530274,3.899999895367432,15.683999618530274L7.643999595367432,15.683999618530274C8.471999595367432,15.683999618530274,9.143999595367433,15.011999618530274,9.143999595367433,14.183998618530273L9.143999595367433,12.479998618530274L11.207999695367432,12.479998618530274L11.207999695367432,16.907997618530274C11.207999695367432,17.483998618530272,11.412000195367431,17.987998618530273,11.820000195367431,18.395997618530274C12.227999195367431,18.803996618530274,12.720000095367432,19.007995618530273,13.308000095367431,19.007995618530273L14.843999095367431,19.007995618530273L14.843999095367431,19.439996618530273C14.843999095367431,20.267995618530275,15.515999095367432,20.939996618530273,16.34399909536743,20.939996618530273L19.64399909536743,20.939996618530273C20.471999095367433,20.939996618530273,21.14399909536743,20.267995618530275,21.14399909536743,19.439996618530273L21.14399909536743,17.039996618530274C21.14399909536743,16.211995618530274,20.471999095367433,15.539996618530273,19.64399909536743,15.539996618530273L16.34399909536743,15.539996618530273C15.515999095367432,15.539996618530273,14.843999095367431,16.211995618530274,14.843999095367431,17.039996618530274L14.843999095367431,17.50799661853027L13.308000095367431,17.50799661853027C13.13999909536743,17.50799661853027,12.996000095367432,17.447997618530273,12.888000095367431,17.327998618530273C12.777945095367432,17.21519361853027,12.713786095367432,17.065487618530273,12.708001095367432,16.907997618530274L12.708001095367432,12.479998618530274L14.843999095367431,12.479998618530274L14.843999095367431,12.911998618530273C14.843999095367431,13.739998618530274,15.515999095367432,14.411997618530274,16.34399909536743,14.411997618530274L19.64399909536743,14.411997618530274C20.471999095367433,14.411997618530274,21.14399909536743,13.739998618530274,21.14399909536743,12.911998618530273L21.14399909536743,10.511999118530273C21.14399909536743,9.683999018530272,20.471999095367433,9.011999118530273,19.64399909536743,9.011999118530273L16.34399909536743,9.011999118530273C15.515999095367432,9.011999118530273,14.843999095367431,9.683999018530272,14.843999095367431,10.511999118530273L14.843999095367431,10.979998618530274L12.708001095367432,10.979998618530274L12.708001095367432,6.515999318530273C12.708001095367432,6.347999318530274,12.768000095367432,6.203999018530274,12.888000095367431,6.095999018530273C13.008000095367432,5.975999118530273,13.152000095367432,5.915999218530273,13.308000095367431,5.915999218530273L14.843999095367431,5.915999218530273L14.843999095367431,6.311999118530274C14.843999095367431,7.1399989185302735,15.515999095367432,7.811998818530274,16.34399909536743,7.811998818530274L16.34399909536743,7.799999218530274ZM16.34399909536743,3.899999518530273L19.64399909536743,3.899999518530273L19.64399909536743,6.299999218530274L16.34399909536743,6.299999218530274L16.34399909536743,3.899999518530273ZM7.643999595367432,14.171998618530273L3.899999895367432,14.171998618530273L3.899999895367432,8.915998918530274L7.643999595367432,8.915998918530274L7.643999595367432,14.171998618530273ZM16.34399909536743,17.027999618530274L19.64399909536743,17.027999618530274L19.64399909536743,19.427999618530272L16.34399909536743,19.427999618530272L16.34399909536743,17.027999618530274ZM16.34399909536743,10.499999018530273L19.64399909536743,10.499999018530273L19.64399909536743,12.899999618530273L16.34399909536743,12.899999618530273L16.34399909536743,10.499999018530273Z" fill="#FFFFFF" fill-opacity="0.8999999761581421"/></g></svg>