<svg xmlns="http://www.w3.org/2000/svg" xmlns:xlink="http://www.w3.org/1999/xlink" fill="none" version="1.1" width="16" height="16" viewBox="0 0 16 16"><defs><clipPath id="master_svg0_9_10710"><rect x="0" y="0" width="16" height="16" rx="0"/></clipPath></defs><g clip-path="url(#master_svg0_9_10710)"><path d="M13.160650171875,2.8393499853674316C13.024167171875,2.7022912453674315,12.862261171875,2.593170405367432,12.684000171875,2.5181000253674317C12.497900171875,2.4393501283674315,12.303250271875,2.4000000953674316,12.100000371875,2.4000000953674316L5.999999971875,2.4000000953674316C5.723849771875,2.4000000953674316,5.499999971875,2.6238501053674317,5.499999971875,2.9000000953674316C5.499999971875,3.1761500853674316,5.7238502718749995,3.4000000953674316,5.999999971875,3.4000000953674316L12.100000371875,3.4000000953674316C12.232676471875,3.399658675367432,12.359977771875,3.4523908953674316,12.453550171875,3.5464500953674314C12.547671171875,3.6399812953674315,12.600414171875,3.7673103953674314,12.600000171875,3.9000000953674316L12.600000171875,9.999999995367432C12.600000171875,10.27614979536743,12.823850171875,10.500000495367432,13.100000171875,10.500000495367432C13.376150171875,10.500000495367432,13.600000171875,10.27614979536743,13.600000171875,9.999999995367432L13.600000171875,3.9000000953674316C13.600527171875,3.6993503953674316,13.560349171875,3.5006787953674317,13.481900171875,3.315999985367432C13.406821171875,3.1377434753674316,13.297701171875,2.975838665367432,13.160650171875,2.8393499853674316ZM2.772152901875,4.672153495367432C2.665636061875,4.778211095367432,2.582235101875,4.905176595367432,2.527202844875,5.045053495367432C2.475702762875,5.175103195367432,2.4499528408051,5.3100528953674315,2.4499528408051,5.449953095367432L2.4499528408051,12.449953095367432C2.449709892275,12.588601095367432,2.475911140875,12.726023095367431,2.527152537875,12.854853095367432C2.582178111875,12.994746095367432,2.665599111875,13.121714095367432,2.772152661875,13.227753095367431C2.878206731875,13.334275095367431,3.005173201875,13.417677095367432,3.145052671875,13.472704095367432C3.275102611875,13.524203095367431,3.4100527718749998,13.549954095367431,3.5499527718749997,13.549954095367431L10.549953471875,13.549954095367431C10.688604371875,13.550185095367432,10.826026871875,13.523966095367431,10.954853071875,13.472702095367431C11.094730371875,13.417673095367432,11.221696871875,13.334271095367432,11.327753071875,13.227753095367431C11.434291871875,13.121714095367432,11.517696371875,12.994744095367432,11.572702371875,12.854853095367432C11.624202771875,12.724802095367432,11.649951971875,12.589802095367432,11.649951971875,12.449953095367432L11.649951971875,5.449953095367432C11.650188471875,5.311302195367432,11.623970071875,5.173878695367431,11.572702371875,5.045052995367431C11.517675371875,4.905173295367431,11.434274671875,4.778206395367432,11.327753071875,4.672152995367432C11.221710171875,4.565617995367432,11.094739871875,4.482214495367431,10.954853071875,4.427203195367431C10.824802371875,4.3757032953674315,10.689802171875,4.349953195367432,10.549953471875,4.349953195367432L3.5499527718749997,4.349953195367432C3.4113054318750002,4.349709495367431,3.273883821875,4.375910795367432,3.145052911875,4.4271535953674315C3.005171541875,4.482200195367431,2.878205541875,4.565617995367432,2.772152901875,4.672153495367432ZM10.549953471875,12.549954095367431L3.5499527718749997,12.549954095367431C3.522352671875,12.549954095367431,3.4987528718750003,12.540203095367431,3.479252771875,12.520653095367432C3.459702771875,12.501105095367432,3.4499528718750003,12.477555095367432,3.4499528718750003,12.449953095367432L3.4499528718750003,5.449953595367432C3.4499528718750003,5.422353295367431,3.4597527718750003,5.398753195367432,3.479252771875,5.3792533953674315C3.4987528718750003,5.359703095367432,3.522352671875,5.349953195367432,3.5499527718749997,5.349953195367432L10.549953471875,5.349953195367432C10.576553371875,5.349545995367432,10.602138471875,5.360149395367431,10.620653171875,5.379252895367431C10.640201571875,5.398753195367432,10.649951971875,5.422353295367431,10.649951971875,5.449953095367432L10.649951971875,12.449953095367432C10.649951971875,12.477553095367432,10.640203471875,12.501103095367432,10.620653171875,12.520653095367432C10.601102871875,12.540203095367431,10.577552771875,12.549954095367431,10.549953471875,12.549954095367431Z" fill-rule="evenodd" fill="#FFFFFF" fill-opacity="0.4000000059604645"/></g></svg>