<svg xmlns="http://www.w3.org/2000/svg" xmlns:xlink="http://www.w3.org/1999/xlink" fill="none" version="1.1" width="16" height="16" viewBox="0 0 16 16"><defs><clipPath id="master_svg0_9_10613"><rect x="0" y="0" width="16" height="16" rx="0"/></clipPath></defs><g clip-path="url(#master_svg0_9_10613)"><path d="M13.70826375,6.791677005859375C13.87493075,6.333343505859375,13.91659775,5.875010505859375,13.87493075,5.416677005859375C13.83326375,4.958343505859375,13.66659775,4.500010205859375,13.45826375,4.083343505859375C13.08326375,3.458343505859375,12.54159775,2.958343505859375,11.91659775,2.666676905859375C11.24993135,2.375010205859375,10.54159735,2.291676875859375,9.83326335,2.458343505859375C9.49993035,2.125010195859375,9.12493035,1.833343505859375,8.70826335,1.625010195859375C8.291596850000001,1.416676841859375,7.79159685,1.333343505859375,7.33326335,1.333343505859375C6.62493035,1.333343505859375,5.91659685,1.541676845859375,5.33326335,1.958343505859375C4.74993015,2.375010205859375,4.33326335,2.958343505859375,4.12493015,3.625010205859375C3.62492995,3.750010205859375,3.20826325,3.958343505859375,2.79159665,4.208343505859375C2.41659677,4.500010205859375,2.12493008,4.875010205859375,1.87493008,5.250010205859375C1.499936745,5.875010505859375,1.374936737,6.583343505859375,1.458270073,7.291677005859375C1.54160341,8.000010505859375,1.8332633999999999,8.666677005859375,2.29159677,9.208343505859375C2.12493008,9.666677505859376,2.0832634,10.125010505859375,2.12493008,10.583343505859375C2.16659677,11.041677505859376,2.3332634,11.500010505859375,2.54159675,11.916677505859376C2.91659665,12.541677505859376,3.45826335,13.041677505859376,4.08326335,13.333343505859375C4.74993015,13.625010505859375,5.45826335,13.708343505859375,6.16659685,13.541677505859376C6.49993035,13.875010505859375,6.87493035,14.166677505859376,7.29159685,14.375010505859375C7.70826335,14.583343505859375,8.20826335,14.666677505859376,8.666596850000001,14.666677505859376C9.37493035,14.666677505859376,10.08326335,14.458343505859375,10.66659735,14.041677505859376C11.24993135,13.625010505859375,11.66659775,13.041677505859376,11.87493175,12.375010505859375C12.33326375,12.291677505859376,12.79159775,12.083343505859375,13.16659775,11.791677505859376C13.54159775,11.500010505859375,13.87493075,11.166677505859376,14.08326375,10.750010505859375C14.45826375,10.125010505859375,14.58326375,9.416677505859376,14.49993075,8.708343505859375C14.41659775,8.000010505859375,14.16659775,7.333343505859375,13.70826375,6.791677005859375ZM8.70826335,13.791677505859376C8.041596850000001,13.791677505859376,7.54159685,13.583343505859375,7.08326335,13.208343505859375C7.08326335,13.208343505859375,7.12493035,13.166677505859376,7.16659685,13.166677505859376L9.83326335,11.625010505859375C9.91659735,11.583343505859375,9.95826335,11.541677505859376,9.99993035,11.458343505859375C10.04159735,11.375010505859375,10.04159735,11.333343505859375,10.04159735,11.250010505859375L10.04159735,7.500010505859375L11.16659735,8.166677005859375L11.16659735,11.250010505859375C11.20826435,12.708343505859375,10.04159735,13.791677505859376,8.70826335,13.791677505859376ZM3.33326325,11.500010505859375C3.04159665,11.000010505859375,2.91659665,10.416677505859376,3.04159665,9.833343505859375C3.04159665,9.833343505859375,3.08326325,9.875010505859375,3.1249299500000003,9.875010505859375L5.79159685,11.416677505859376C5.87493035,11.458343505859375,5.91659685,11.458343505859375,5.99993035,11.458343505859375C6.08326335,11.458343505859375,6.16659685,11.458343505859375,6.20826335,11.416677505859376L9.45826335,9.541677505859376L9.45826335,10.833343505859375L6.74993035,12.416677505859376C6.16659685,12.750010505859375,5.49993035,12.833343505859375,4.87493015,12.666677505859376C4.20826335,12.500010505859375,3.66659665,12.083343505859375,3.33326325,11.500010505859375ZM2.62493015,5.708343505859375C2.91659665,5.208343505859375,3.3749299500000003,4.833343505859375,3.91659665,4.625010205859375L3.91659665,4.708343505859375L3.91659665,7.791677005859375C3.91659665,7.875010505859375,3.91659665,7.958343505859375,3.95826335,8.000010505859375C3.99992995,8.083343505859375,4.04159665,8.125010505859375,4.12493015,8.166677005859375L7.37493035,10.041677505859376L6.24993035,10.708343505859375L3.58326335,9.166677005859375C2.9999299500000003,8.833343505859375,2.58326335,8.291677005859375,2.41659677,7.666677005859375C2.24993008,7.041677005859375,2.29159677,6.291677005859375,2.62493015,5.708343505859375ZM11.83326475,7.833343505859375L8.58326335,5.958343505859375L9.70826335,5.291677005859375L12.37493075,6.833343505859375C12.79159775,7.083343505859375,13.12493075,7.416677005859375,13.33326375,7.833343505859375C13.54159775,8.250010505859375,13.66659775,8.708343505859375,13.62493075,9.208343505859375C13.58326375,9.666677505859376,13.41659775,10.125010505859375,13.12493075,10.500010505859375C12.83326375,10.875010505859375,12.45826375,11.166677505859376,11.99993175,11.333343505859375L11.99993175,8.166677005859375C11.99993175,8.083343505859375,11.99993175,8.000010505859375,11.95826475,7.958343505859375C11.95826475,7.958343505859375,11.91659775,7.875010505859375,11.83326475,7.833343505859375ZM12.95826375,6.166677005859375C12.95826375,6.166677005859375,12.91659775,6.125010505859375,12.87493075,6.125010505859375L10.20826335,4.583343505859375C10.12493035,4.541677005859375,10.08326335,4.541677005859375,9.99993035,4.541677005859375C9.91659735,4.541677005859375,9.83326335,4.541677005859375,9.79159735,4.583343505859375L6.54159685,6.458343505859375L6.54159685,5.166677005859375L9.24993035,3.583343505859375C9.66659735,3.333343505859375,10.12493035,3.250010205859375,10.62493035,3.250010205859375C11.08326435,3.250010205859375,11.54159775,3.416677005859375,11.95826475,3.708343505859375C12.33326375,4.000010205859375,12.66659775,4.375010205859375,12.83326375,4.791677005859375C12.99993075,5.208343505859375,13.04159775,5.708343505859375,12.95826375,6.166677005859375ZM5.95826335,8.500010505859375L4.83326335,7.833343505859375L4.83326335,4.708343505859375C4.83326335,4.250010205859375,4.95826335,3.750010205859375,5.20826335,3.375010205859375C5.45826335,2.958343505859375,5.83326335,2.666676905859375,6.24993035,2.458343505859375C6.66659685,2.250010195859375,7.16659685,2.166676875859375,7.62493035,2.250010195859375C8.08326335,2.291676875859375,8.541596850000001,2.500010205859375,8.916596850000001,2.791676905859375C8.916596850000001,2.791676905859375,8.87493035,2.833343505859375,8.83326335,2.833343505859375L6.16659685,4.375010205859375C6.08326335,4.416677005859375,6.04159685,4.458343505859375,5.99993035,4.541677005859375C5.95826335,4.625010205859375,5.95826335,4.666677005859375,5.95826335,4.750010205859375L5.95826335,8.500010505859375ZM6.54159685,7.166677005859375L7.99993035,6.333343505859375L9.45826335,7.166677005859375L9.45826335,8.833343505859375L7.99993035,9.666677505859376L6.54159685,8.833343505859375L6.54159685,7.166677005859375Z" fill="#FFFFFF" fill-opacity="0.800000011920929"/></g></svg>