<svg xmlns="http://www.w3.org/2000/svg" xmlns:xlink="http://www.w3.org/1999/xlink" fill="none" version="1.1" width="16" height="16" viewBox="0 0 16 16"><defs><clipPath id="master_svg0_9_10040"><rect x="0" y="0" width="16" height="16" rx="0"/></clipPath></defs><g clip-path="url(#master_svg0_9_10040)"><path d="M3.57914423125,10.39772129375L6.44074393125,8.79292199375L6.48954393125,8.65372179375L6.44074393125,8.57612179375L6.30154423125,8.57612179375L5.82234433125,8.547321793750001L4.18634463125,8.50332119375L2.76794433125,8.444121393749999L1.3943444512499998,8.37052159375L1.04794448125,8.29692169375L0.72314453125,7.86972239375L0.75674453725,7.65612219375L1.04794454125,7.46172239375L1.46394455125,7.49772219375L2.38554453125,7.56012199375L3.76634453125,7.65612169375L4.76794483125,7.71532149375L6.25274463125,7.86972139375L6.48874423125,7.86972139375L6.52234413125,7.77452139375L6.44074443125,7.71532149375L6.37834453125,7.65612169375L4.94874433125,6.68812179375L3.40154483125,5.66492179375L2.59194473125,5.07532169375L2.1527447312500003,4.77772139375L1.93194473125,4.49772139375L1.83594463125,3.88652159375L2.23354463125,3.44892139375L2.76794433125,3.48492189375L2.90474443125,3.52172179375L3.44634463125,3.93772149375L4.60314443125,4.83292149375L6.11354353125,5.94412139375L6.33514313125,6.12812189375L6.42314343125,6.06572199375L6.43434333125,6.02172179375L6.33514313125,5.85532139375L5.51354363125,4.37212159375L4.63674383125,2.86252119375L4.24634383125,2.2369211937499998L4.14314393125,1.86172119375C4.10394333125,1.71772122375,4.08234353125,1.56892120375,4.07994363125,1.42012113375L4.53354363125,0.80572112675L4.78394413125,0.72412109375L5.38794373125,0.80572112675L5.64234353125,1.02652114375L6.01834343125,1.88412119375L6.62554313125,3.23532109375L7.56794353125,5.07212159375L7.84474373125,5.61692139375L7.99194333125,6.12172129375L8.04714343125,6.27612109375L8.14314313125,6.27612109375L8.14314313125,6.18732119375L8.22074313125,5.15292119375L8.36474373125,3.88252069375L8.50394343125,2.2489208937500003L8.55274343125,1.78812089375L8.78074363125,1.23612088375L9.23354343125,0.93772094375L9.58794303125,1.10732093375L9.87914373125,1.52252090375L9.83834363125,1.79132089375L9.66474343125,2.91372089375L9.32554343125,4.67372059375L9.10474303125,5.85132069375L9.23354343125,5.85132069375L9.38074303125,5.70492079375L9.97754283125,4.91292049375L10.97914353125,3.66172049375L11.42154353125,3.16492029375L11.93674253125,2.6169205937499997L12.26874253125,2.35532059375L12.89514253125,2.35532059375L13.35594153125,3.04012059375L13.14954153125,3.74732039375L12.50474253125,4.564120293749999L11.97034253125,5.25612069375L11.20394253125,6.28652049375L10.72474153125,7.11131999375L10.76874253125,7.17772009375L10.88234253125,7.16571999375L12.61354253125,6.79851959375L13.54874253125,6.62891959375L14.66474253125,6.43771979375L15.16954253125,6.67291979375L15.22474153125,6.91211939375L15.02554153125,7.40172009375L13.83194153125,7.69611979375L12.43194153125,7.97611999375L10.34714223125,8.46892019375L10.32154183125,8.48732039375L10.35114093125,8.52412029375L11.29034153125,8.612920293750001L11.69194253125,8.63452009375L12.67514153125,8.63452009375L14.50634053125,8.77132029375L14.98554153125,9.08811949375L15.27274153125,9.47531989375L15.22474053125,9.76972009375L14.48794053125,10.14571949375L13.49353953125,9.90972039375L11.17193953125,9.35772039375L10.37673953125,9.15852069375L10.26633933125,9.15852069375L10.26633933125,9.22492029375L10.92873853125,9.87212089375L12.14473853125,10.96972009375L13.66553753125,12.38252109375L13.74233853125,12.73292109375L13.54713853125,13.00892109375L13.34073853125,12.97932109375L12.00393753125,11.97452209375L11.48793753125,11.52172109375L10.31993773125,10.53932189375L10.24233723125,10.53932189375L10.24233723125,10.64252089375L10.51113703125,11.03612009375L11.93273753125,13.17052109375L12.00633753125,13.82492109375L11.90313853125,14.03932009375L11.53433753125,14.16811909375L11.12953853125,14.09452009375L10.29673763125,12.92732009375L9.43913843125,11.61372109375L8.74633793125,10.43532179375L8.661538131250001,10.48412129375L8.25273803125,14.88252109375L8.061537731249999,15.10652109375L7.61993833125,15.27612009375L7.25193833125,14.99692009375L7.05673833125,14.54412009375L7.25193833125,13.64891909375L7.48793793125,12.48251909375L7.67913823125,11.55451909375L7.85273793125,10.40252019375L7.95593783125,10.01931949375L7.94873813125,9.99372009375L7.86393833125,10.00491999375L6.99433803125,11.19771909375L5.67273803125,12.98331909375L4.6263377312500005,14.10171909375L4.37513783125,14.20091909375L3.94073773125,13.97691809375L3.98153803125,13.57531809375L4.22473813125,13.21851809375L5.67273803125,11.37771809375L6.54553843125,10.23691849375L7.10953853125,9.57851889375L7.10553833125,9.48251919375L7.07193853125,9.48251919375L3.22633863125,11.97771809375L2.5415384312500002,12.06651809375L2.24633853125,11.78971809375L2.2831384312500003,11.33771809375L2.42313833125,11.19051809375L3.57993813125,10.39531899375L3.57593873125,10.39931969375L3.57914423125,10.39772129375Z" fill="#FFFFFF" fill-opacity="0.800000011920929"/></g></svg>