<svg xmlns="http://www.w3.org/2000/svg" xmlns:xlink="http://www.w3.org/1999/xlink" fill="none" version="1.1" width="34.99" height="38.77" viewBox="0 0 50.537878229487205 51.62110291880367"><defs><clipPath id="master_svg0_6_14367"><rect x="21.29829928836557" y="0" width="34.99104690551758" height="38.77407455444336" rx="0"/></clipPath></defs><g transform="matrix(0.8356302976608276,0.549292266368866,-0.549292266368866,0.8356302976608276,3.5007951143592564,-11.698991085908728)" clip-path="url(#master_svg0_6_14367)"><path d="M53.19951167937967,8.768244958666992C53.16003667937967,8.812239658666993,53.06893667937967,8.825438058666993,53.03097767937967,8.882631258666992L53.03097767937967,8.942757558666992C53.413590679379666,9.250720958666992,53.80531767937967,9.554285558666992,54.10594667937967,9.941439658666992C56.09645167937967,12.499003458666992,55.15813567937967,15.471583358666992,54.49766667937967,18.315114258666995C57.08335567937967,20.259683258666993,56.69922367937967,23.80273025866699,54.43693667937967,25.847023258666994C53.67929567937967,26.531875258666993,52.73187367937967,27.196195258666993,51.78292767937967,27.600948258666993C51.73889467937967,27.84438725866699,51.73889467937967,28.095155258666992,51.64475867937967,28.329796258666992C51.61287367937967,28.40752025866699,51.57643567937967,28.45738025866699,51.52329167937967,28.59376525866699C51.350207679379665,29.033714258666993,51.12245867937967,29.45313025866699,51.01314067937967,29.827087258666992C50.761101679379664,30.68645125866699,50.02319967937967,31.913904258666992,49.491789679379664,32.66621625866699C47.88085867937967,34.945146258666995,46.66620667937967,36.16673425866699,44.106331679379664,37.489511258666994C37.85391867937967,40.717264258666994,31.43600867937967,37.496845258666994,28.098754779379668,31.853782258666993C25.90630997937967,28.14501925866699,25.43259607937967,24.370268258666993,25.312649079379668,20.170231258666995C25.30961217937967,20.073441258666993,25.37641847937967,19.988385258666995,25.37793667937967,19.89306325866699C24.89207607937967,19.827072258666995,24.57930387937967,19.756681258666994,24.08585197937967,19.847603258666993C23.33732347937967,19.986919258666994,22.813505479379668,20.38434025866699,22.537172579379668,21.066257258666994C21.74916774937967,23.013761258666992,22.72392507937967,25.081518258666993,24.42443567937967,26.21071625866699C24.79186777937967,26.454155258666994,25.13652497937967,26.338300258666994,24.91788757937967,26.973293258666992C24.75542817937967,27.043684258666993,24.54286437937967,27.053949258666993,24.377368079379668,27.00115625866699C23.323658579379668,26.66679525866699,21.858486269379668,24.989126258666992,21.570006819379667,23.964050258666994C21.54115887937967,23.862861258666992,21.60796463937967,23.73967725866699,21.59885478937967,23.72501025866699C21.58822658937967,23.70741225866699,21.47435310937967,23.71034625866699,21.430321999379668,23.61355825866699C21.310375244379667,23.35105725866699,21.27393573137967,22.113336258666994,21.31189356637967,21.793640258666994C21.415138869379668,20.918143258666994,21.97691485937967,19.766947258666992,22.73455317937967,19.285935258666992C22.97140997937967,19.13488625866699,23.31758577937967,19.048364258666993,23.58936367937967,18.966242258666995C23.41475777937967,18.463236258666992,23.228005179379668,17.955827258666993,23.092875179379668,17.44108925866699C22.468848279379667,15.049240158666992,22.162149049379668,11.978402658666992,24.034229379379667,10.055829958666992C24.864746379379667,9.202331058666992,26.31321747937967,8.639197858666993,27.51875867937967,8.972091658666992C27.69791967937967,9.021952358666992,28.21262777937967,9.299119958666992,28.19137177937967,9.494163058666992C27.702474479379667,9.907714358666993,27.048081779379668,9.730268458666991,26.501488579379668,9.783062458666993C25.598091979379667,9.869585058666992,24.94218047937967,10.416587358666991,24.43961887937967,11.066243658666991C23.773079479379668,11.928541158666992,23.59391867937967,13.002014658666992,23.58784517937967,14.066688558666993C23.58025367937967,15.493584658666991,23.824701879379667,16.760637258666993,24.30297077937967,18.190468258666993C24.36673987937967,18.379644258666993,24.343965379379668,18.579087258666995,24.51553477937967,18.782930258666994L25.397674879379668,18.96477725866699C25.59505497937967,18.900250258666993,25.60720187937967,18.12300925866699,25.64971427937967,17.90596725866699C26.273741579379667,14.747142758666993,27.427659879379668,12.007733358666993,29.41057767937967,9.447236558666992C29.65958007937967,9.126074758666991,29.92983997937967,8.841574658666993,30.22135627937967,8.560008258666992C30.257796179379667,8.425091058666993,29.82659517937967,7.697710058666992,29.752198079379667,7.4924014586669925C29.67780007937967,7.287092758666992,29.40450367937967,6.351470048666992,29.519896379379666,6.223885358666992C29.62162197937967,6.110965278666992,30.10748367937967,5.971648338666992,30.21376407937967,6.152026888666992C30.27297867937967,6.251748498666992,30.38837127937967,6.955664958666992,30.46732317937967,7.172705958666992C31.45270767937967,9.887184158666992,35.71309767937967,12.425684958666992,38.52045667937967,13.026945158666992C44.44643267937967,14.295462558666992,49.39765467937967,11.950540058666991,53.02642367937967,7.5701248586669925C53.346787679379666,7.182970758666992,54.25626067937967,5.763405468666992,54.66771767937967,5.653418496666992C54.70567767937967,5.643153089366992,54.74363367937967,5.634353930166992,54.783108679379666,5.6446193363669925C54.98808367937967,5.701812475666992,54.88332067937967,6.471721288666992,54.80132767937967,6.6477006586669924C54.58572867937967,7.115511658666993,53.57908667937967,8.334167758666993,53.19647267937967,8.768249558666993L53.19951167937967,8.768244958666992ZM31.23407257937967,9.739063758666992C31.18700487937967,9.689203758666991,31.10957037937967,9.676004458666991,31.06402097937967,9.624677458666993C30.965329979379668,9.510291058666992,30.770985479379668,9.109938658666993,30.61459907937967,9.189128858666992C30.490097879379668,9.252187958666992,29.97994407937967,9.906243758666992,29.85999757937967,10.066092058666992C26.43468267937967,14.651815458666992,25.43107737937967,20.840417258666992,26.73834597937967,26.322166258666993C27.92414837937967,31.29357925866699,31.62579667937967,36.716669258667,37.18130567937967,37.64056225866699C43.58251267937967,38.70523625866699,48.26954567937967,33.83647725866699,50.29497767937967,28.69348725866699L50.85978967937967,26.61840025866699C51.20748367937967,26.685861258666993,51.63109267937967,26.333902258666992,51.95145867937967,26.163788258666994C53.87516067937967,25.13430825866699,55.56352667937967,23.763139258666993,55.32059567937967,21.353690258666994C55.22190567937967,20.374073258666993,54.32458167937967,19.05862925866699,53.38474767937967,18.658276258666994C52.37203267937967,18.227128258666994,51.458008679379674,18.36057925866699,50.47565967937967,18.755066258666993C50.29801667937967,18.82545825866699,50.16136867937967,18.70813825866699,50.06115967937967,18.969172258666994C49.985243679379664,18.863585258666994,49.82733967937967,18.857719258666993,49.740793679379664,18.78586125866699C49.22456867937967,18.35911225866699,48.38190367937967,16.961543258666993,48.11316367937967,16.348551258666994C47.67133367937967,15.345467558666993,47.33578767937967,14.198672258666992,47.28264467937967,13.109066058666993C46.79223167937967,13.295310458666993,46.268412679379665,13.503553358666991,45.76433267937967,13.645803458666991C40.51704267937967,15.134294558666992,34.86132467937967,13.638470658666993,31.23407257937967,9.739063758666992ZM54.294216679379666,15.437855758666991C54.31699067937967,15.390926358666992,54.23500167937967,15.182684858666992,54.24259267937967,15.055100458666992C54.25626067937967,14.818994558666992,54.40353467937967,14.585823058666993,54.43238167937967,14.368781058666992C54.534107679379666,13.610604258666992,54.44604567937967,12.195438358666992,54.16515767937967,11.490056058666992C54.10594667937967,11.343406158666992,53.228361679379674,9.863714258666992,53.09778667937967,9.961970358666992C52.56030367937967,11.404999758666992,51.369946679379666,13.974294658666992,49.88351567937967,14.660614058666992C49.51304667937967,14.832193358666991,49.194204679379666,14.820461258666992,48.816143679379664,14.931915258666992C48.99530267937967,15.367464058666993,49.08791967937967,15.838207258666992,49.28226767937967,16.267891258666992C49.503943679379674,16.760632258666995,49.844040679379674,17.281235258666992,50.19173667937967,17.671324258666992C50.253986679379665,17.74171725866699,50.26461467937967,17.913296258666993,50.32686667937967,17.923560258666992C50.891678679379666,17.75344625866699,51.506598679379664,17.552538258666992,52.106331679379664,17.543739258666992C52.43125067937967,17.539340258666993,53.62768267937967,17.81797525866699,53.73547867937967,17.766647258666993C53.92071567937967,17.67865625866699,53.81291267937967,17.530541258666993,53.83872267937967,17.420554258666993C53.96777767937967,16.863287258666993,54.16060367937967,16.264957258666993,54.14997567937967,15.732619258666992C54.145424679379666,15.464251558666993,54.27448367937967,15.480381958666992,54.29725367937967,15.436388958666992L54.294216679379666,15.437855758666991Z" fill="#FFFFFF" fill-opacity="0.800000011920929"/><path d="M33.19116250187967,5.006615732416992C33.693723741879666,5.584413762416992,34.06874734187967,6.411516352416992,34.67759144187967,7.056772952416992C37.65500384187967,10.214132752416992,42.26308424187967,11.671825852416992,46.55991124187967,10.277191652416992C46.65860024187967,10.244928852416992,46.74210824187967,10.331452352416992,46.70870524187967,10.148140952416991C46.541689241879666,10.102679752416993,46.41718924187967,10.227331652416993,46.28357724187967,10.249329052416993C44.74704524187967,10.492767852416993,42.54549124187967,10.071883652416993,41.13497624187967,9.391430852416992C40.50032124187967,9.084934252416993,39.64854704187967,8.526200252416992,39.17483314187967,8.017327552416992C38.87420684187967,8.071587352416993,38.92431104187967,7.856013552416992,38.760333441879666,7.675634852416993C38.644940741879665,7.548049952416992,38.36860834187967,7.443928752416992,38.351906641879665,7.426330852416992C38.310912441879665,7.379403152416993,38.37316264187967,7.235686752416992,38.33216894187967,7.193158352416992C38.306357741879665,7.166761352416993,38.00876844187967,6.986382952416992,37.90248614187967,6.839733852416993C37.847826841879666,6.763475852416992,37.74913634187967,6.571365152416992,37.76128274187967,6.483375752416992C37.76735624187967,6.443780452416992,37.87363754187967,6.454045752416992,37.88274844187967,6.417383452416992C37.91159664187967,6.289798752416992,37.76128274187967,5.574150082416992,38.18944724187967,5.8850463524169925L38.31243024187967,5.764793952416992C38.44755964187967,5.839584952416992,38.72844774187967,5.836652352416992,38.833211741879666,5.909977052416992C38.98959764187967,6.0170309524169925,39.23708324187967,6.322061852416992,39.390432241879665,6.449646552416992C41.15623074187967,7.927871952416992,42.95998624187967,8.919220952416993,45.34222124187967,9.139194452416993C47.15053224187967,9.306375552416991,48.40921324187967,9.052671952416993,50.109723241879664,8.407414452416992C50.171975241879665,8.383950752416993,50.30406824187967,8.307692752416992,50.34506324187967,8.388350052416992C49.540356241879664,9.678863552416992,47.86110224187967,10.526496452416993,46.42022224187967,11.011906152416993C44.97934224187967,11.497315852416992,43.49746924187967,11.720222452416992,42.00952134187967,11.629300152416992C38.72844634187967,11.428389552416991,33.91387534187967,8.845896252416992,32.61723559187967,5.835186152416992C32.57168574187967,5.728132252416993,32.44414798387967,5.638676152416992,32.41681829687967,5.536021532416992C32.37126843487967,5.3703075624169925,32.37886046387967,4.720651142416992,32.52765568187967,4.620929849416992C32.90875259187967,4.5461386744169925,32.987704371879666,4.771978732416992,33.18964038187967,5.0051511524169925L33.19116250187967,5.006615732416992Z" fill="#FFFFFF" fill-opacity="0.800000011920929"/><path d="M55.96132385125467,4.601886747729492C56.06760285125467,4.761734947729492,55.70017285125467,4.927448247729492,55.56656385125467,4.9773097477294925C54.491592851254666,5.384994547729492,52.51475185125467,4.887853647729492,51.388161851254665,4.670812147729492C49.97765285125467,4.399510847729492,48.59143185125467,4.072483047729492,47.22039485125467,3.6384010477294924C42.36938385125467,2.102982747729492,37.77496805125467,-0.8344023822705078,32.63395915125467,1.5809115477294922C30.131779051254668,2.757039047729492,27.796613233254668,5.678292747729492,28.65294174125467,8.495425247729493C28.71367446125467,8.697802547729491,28.911055051254667,8.713933947729492,28.77744338125467,9.020430547729493C28.570952691254668,9.495573947729492,28.15948999125467,8.908977547729492,28.06231803125467,8.633276947729492C27.250020721254668,6.347014447729492,28.80325500125467,3.421360747729492,30.64800515125467,2.0061953477294923C36.97329695125467,-2.8434967522705077,44.55423485125467,2.441743647729492,51.219629851254666,3.834912347729492C52.42821185125467,4.087149147729492,53.70510985125467,4.104746847729492,54.907614851254664,4.2939248477294925C55.03667185125467,4.314455547729493,55.93096085125467,4.557893247729492,55.959804851254674,4.601888147729492L55.96132385125467,4.601886747729492Z" fill="#FFFFFF" fill-opacity="0.800000011920929"/><path d="M35.57652454812967,20.40640085460449C35.71924674812967,20.52518641460449,36.00772504812967,20.928471994604493,35.85893094812967,21.10151939460449C35.55982284812967,21.449077594604493,34.24344624812967,20.714365364604493,33.77884254812967,20.692368864604493C33.23680454812967,20.665973004604492,32.67958384812967,20.808220694604493,32.22257144812967,21.07805729460449C32.15121054812967,21.196842794604493,32.333408948129666,21.491609494604493,32.34251844812967,21.65438799460449C32.380476048129665,22.337774294604493,31.74430264812967,24.426059294604492,30.71944180812967,23.832130894604493C29.93295550812967,23.377517494604493,30.17740403112967,22.11193509460449,30.54787221812967,21.465211294604494C31.45886014812967,19.87259968360449,34.09920654812967,19.16868251460449,35.575007248129666,20.40640312460449L35.57652454812967,20.40640085460449Z" fill="#FFFFFF" fill-opacity="0.800000011920929"/><path d="M42.73535733875467,19.601118028159494C43.32598123875467,19.587920127729493,44.25215273875467,19.835757807729493,44.75015963875467,20.14958727772949C45.24816593875467,20.46341663772949,45.94203643875467,21.338913247729494,44.85340343875467,21.160000847729492C44.49963653875467,21.10134194772949,44.29618293875467,20.896031647729494,43.98037373875467,20.77138104772949C43.13011753875467,20.432621597729494,42.21761213875467,20.38129341772949,41.488821138754666,20.972289947729493C41.836514138754666,21.734865647729492,41.75300843875467,22.62795944772949,41.12290723875467,23.227756747729494C40.37589743875467,23.937539147729492,39.75187062095467,23.38907194772949,39.74276111266467,22.516506947729493C39.72454093775467,20.92976034772949,41.12138973875467,19.637780353729493,42.73535733875467,19.602585953429493L42.73535733875467,19.601118028159494Z" fill="#FFFFFF" fill-opacity="0.800000011920929"/><path d="M40.46077146687967,29.262478713041993L40.64145116687967,29.269811603041994C40.44862586687967,30.294891093041993,40.59893876687967,31.47395059304199,41.16375006687967,32.37291169304199C41.31102646687967,32.60755159304199,41.77411306687967,33.00643779304199,41.84091886687967,33.200013593041994C41.90772516687967,33.39358949304199,41.757411366879666,33.63849589304199,41.534219166879666,33.560771893041995C40.95270476687967,33.35692929304199,40.69611056687967,32.62221719304199,40.27857286687967,32.23799469304199C39.13224656687967,32.563555993041994,37.72477066687967,32.89205149304199,36.52985775687967,32.654478093041995C36.28085446687967,32.60461809304199,35.99844813687967,32.51516179304199,36.14572469687967,32.22332859304199C36.67257956687967,32.141205593041995,37.18576896687967,32.17053459304199,37.72173326687967,32.091345093041994C38.21063026687967,32.01948619304199,39.34329186687967,31.771650793041992,39.71679676687967,31.490082293041993C40.07511866687967,31.21877999304199,39.85648116687967,31.16745419304199,39.82004226687967,30.83602519304199C39.75019986687967,30.21276569304199,39.64695436687967,29.589506033041992,39.75930936687967,28.970645755041993C40.07511866687967,28.83426297104199,40.48354416687967,28.85772515804199,40.46380646687967,29.262478713041993L40.46077146687967,29.262478713041993Z" fill="#FFFFFF" fill-opacity="0.800000011920929"/><path d="M38.26991044187967,27.73728604460449C38.39137584187967,27.93966274460449,37.97535734187967,28.193365544604493,37.809861841879666,28.237360944604493C37.53656504187967,28.31068514460449,36.93379574187967,28.137640044604492,36.67720041187967,28.00858834460449C35.73888291187967,27.536377444604494,35.69181559187967,26.67261294460449,36.05772843187967,25.80005014460449C36.142753571879666,25.59767334460449,37.00819264187967,24.131180316604492,37.10536464187967,24.098917288604493C37.24808644187967,24.051988437604493,37.53504754187967,24.071053564104492,37.60792594187967,24.21183787460449C37.63677414187967,24.258766744604493,37.64284754187967,24.30715902460449,37.63829174187967,24.361420814604493C37.62766354187967,24.524201604604492,36.85636014187967,25.66953234460449,36.72882250187967,26.018558344604493C36.54206953187967,26.533296544604493,36.40390358187967,27.033371244604492,37.00363684187967,27.320804844604492C37.27389634187967,27.449857044604492,38.139335441879666,27.52758094460449,38.265354441879666,27.73728844460449L38.26991044187967,27.73728604460449Z" fill="#FFFFFF" fill-opacity="0.800000011920929"/></g></svg>