<svg xmlns="http://www.w3.org/2000/svg" xmlns:xlink="http://www.w3.org/1999/xlink" fill="none" version="1.1" width="20" height="20" viewBox="0 0 20 20"><defs><clipPath id="master_svg0_9_10611"><rect x="0" y="0" width="20" height="20" rx="0"/></clipPath></defs><g clip-path="url(#master_svg0_9_10611)"><path d="M2.2875001430511475,5.274999866213989L2.2875001430511475,14.72499966621399Q2.2875001430511475,15.96243666621399,3.1625000230511473,16.83749866621399Q4.0375001430511475,17.71249866621399,5.2750005430511475,17.71249866621399L14.725001143051147,17.71249866621399Q15.962501143051147,17.71249866621399,16.83750114305115,16.83749866621399Q17.71250114305115,15.96243566621399,17.71250114305115,14.724997666213989L17.71250114305115,5.274999866213989Q17.71250114305115,4.0374997662139895,16.83750114305115,3.1624997262139893Q15.962502143051147,2.2874996662139893,14.725001143051147,2.2874996662139893L5.274999843051147,2.2874996662139893Q4.037499743051147,2.2874996662139893,3.1624997830511474,3.1624997262139893Q2.2874996960163076,4.0374997662139895,2.2875001430511475,5.274999866213989ZM4.0463752430511475,15.95362366621399Q3.537500043051147,15.44468666621399,3.537500043051147,14.72499966621399L3.537500043051147,5.274999866213989Q3.537500043051147,4.55531236621399,4.0463749430511475,4.04637456621399Q4.555312443051148,3.537499866213989,5.274999843051147,3.537499866213989L14.725000143051147,3.537499866213989Q15.444687143051148,3.537499866213989,15.953624143051147,4.046374966213989Q16.462500143051148,4.55531236621399,16.462500143051148,5.274999866213989L16.462500143051148,14.72499966621399Q16.462500143051148,15.44468666621399,15.953625143051147,15.95362366621399Q15.444687143051148,16.46249866621399,14.725001143051147,16.46249866621399L5.274999843051147,16.46249866621399Q4.555312443051148,16.46249866621399,4.0463752430511475,15.95362366621399ZM8.818750143051147,7.86874986621399L6.293750043051148,7.86874986621399L6.293750043051148,9.374999766213989L8.621875543051146,9.374999766213989C8.967062743051148,9.374999766213989,9.246875543051146,9.654874566213989,9.246875543051146,9.999999766213989C9.246875543051146,10.34518746621399,8.967063143051147,10.624999266213988,8.621875543051146,10.624999266213988L6.293750043051148,10.624999266213988L6.293750043051148,12.13124966621399L8.621875543051146,12.13124966621399C8.967062743051148,12.13124966621399,9.246875543051146,12.41106266621399,9.246875543051146,12.75624966621399C9.246875543051146,13.101436666213989,8.967063143051147,13.38124966621399,8.621875543051146,13.38124966621399L5.668750043051148,13.38124966621399C5.323562843051148,13.38124966621399,5.043750043051148,13.10149966621399,5.043750043051148,12.75624966621399L5.043750043051148,7.243750366213989C5.043750043051148,6.898625166213989,5.323562343051147,6.618750366213989,5.668750043051148,6.618750366213989L8.818750143051147,6.618750366213989C9.163937843051148,6.618750366213989,9.443750143051147,6.898625166213989,9.443750143051147,7.243750366213989C9.443750143051147,7.5889370662139894,9.163937843051148,7.86874986621399,8.818750143051147,7.86874986621399ZM10.787500143051147,7.4062502662139895C10.442312943051148,7.4062502662139895,10.162500143051147,7.686063066213989,10.162500143051147,8.03125026621399L10.162500143051147,12.75624966621399C10.162500143051147,13.10142766621399,10.442322443051147,13.38124966621399,10.787500143051147,13.38124966621399C11.132677843051148,13.38124966621399,11.412500143051147,13.10142766621399,11.412500143051147,12.75624966621399L11.412500143051147,10.196874866213989Q11.412500143051147,9.721812966213989,11.748437643051147,9.385938366213988Q12.084312243051148,9.050000466213989,12.559375143051147,9.050000466213989Q13.034439143051147,9.050000466213989,13.370313143051147,9.385938366213988Q13.706252143051147,9.721812966213989,13.706252143051147,10.196874866213989L13.706252143051147,12.75624966621399C13.706252143051147,13.101436666213989,13.986065143051148,13.38124966621399,14.331252143051147,13.38124966621399C14.676439143051148,13.38124966621399,14.956252143051147,13.101436666213989,14.956252143051147,12.75624966621399L14.956252143051147,10.196874866213989Q14.956252143051147,9.204063166213988,14.254252143051147,8.50200006621399Q13.552188143051147,7.799999466213989,12.559374143051148,7.799999466213989Q11.926936843051147,7.799999466213989,11.412499143051148,8.08487536621399L11.412499143051148,8.03125026621399C11.412499143051148,7.686061666213989,11.132686343051148,7.4062502662139895,10.787500143051147,7.4062502662139895Z" fill="#FFFFFF" fill-opacity="1" style="mix-blend-mode:passthrough"/></g></svg>