<svg xmlns="http://www.w3.org/2000/svg" xmlns:xlink="http://www.w3.org/1999/xlink" fill="none" version="1.1" width="24" height="24" viewBox="0 0 24 23.999998092651367"><defs><clipPath id="master_svg0_9_10707"><rect x="0" y="0" width="24" height="23.999998092651367" rx="0"/></clipPath></defs><g clip-path="url(#master_svg0_9_10707)"><path d="M13.901998987139892,5.665199781036376L12.711599787139892,4.976399881036377L12.711599787139892,6.337199881036376C12.711599787139892,6.751413781036376,12.375812987139893,7.087199681036377,11.961599387139891,7.087199681036377C11.547385687139894,7.087199681036377,11.211599387139891,6.751413781036376,11.211599387139891,6.337199881036376L11.211599387139891,4.976399881036377L10.022399387139892,5.666399981036377C9.663855987139893,5.874169381036377,9.204769087139892,5.7519433810363765,8.996998787139892,5.393399981036377C8.789228887139892,5.034856581036377,8.911455587139892,4.5757692810363775,9.269998987139893,4.367999981036377L11.585998987139892,3.026399851036377C11.818659287139893,2.891499758036377,12.105739087139893,2.891499758036377,12.338398487139893,3.026399851036377L14.654398787139893,4.367999981036377C15.023198787139892,4.570834081036377,15.152911787139892,5.037377381036377,14.941734787139893,5.401463781036377C14.730558787139893,5.765550381036377,14.261182787139893,5.884610381036377,13.901998987139892,5.665199781036376ZM19.889999787139892,7.837199681036377L19.889999787139892,10.499999481036376C19.889999787139892,10.914213681036376,19.554212787139893,11.249999481036378,19.139999787139892,11.249999481036378C18.725786787139892,11.249999481036378,18.389999787139892,10.914213681036376,18.389999787139892,10.499999481036376L18.389999787139892,9.139199781036377L17.223599787139893,9.814799781036378C16.865056787139892,10.022569181036378,16.405970787139893,9.900342981036378,16.198200787139893,9.541799581036377C15.990430787139893,9.183256581036378,16.112655787139893,8.724169281036378,16.471199787139895,8.516399881036378L17.643598787139894,7.837199681036377L16.472398787139895,7.159199681036377C16.11385578713989,6.951761281036377,15.991361787139892,6.492943281036377,16.19879978713989,6.1343998810363765C16.40623878713989,5.775856481036377,16.865056787139892,5.653361281036377,17.223599787139893,5.860799581036376L19.51559978713989,7.187999281036377C19.746858787139892,7.322373881036377,19.88905778713989,7.569735081036377,19.888799787139895,7.837199181036377L19.889999787139892,7.837199681036377ZM7.801199887139893,6.524399481036377C7.800782187139893,6.791681981036377,7.658150887139893,7.0385446810363765,7.426799987139892,7.172399981036377L6.279599887139892,7.837199681036377L7.474800087139893,8.529599681036377C7.8336989871398925,8.736874081036376,7.956452587139893,9.195950481036377,7.748901087139893,9.554688881036377C7.541349687139892,9.913428781036377,7.082179087139893,10.035828081036378,6.723599887139892,9.827999581036376L5.533199787139893,9.139199781036377L5.533199787139893,10.499999481036376C5.533199787139893,10.914213681036376,5.197413287139892,11.249999481036378,4.783199787139893,11.249999481036378C4.368986247139892,11.249999481036378,4.033199787139893,10.914213681036376,4.033199787139893,10.499999481036376L4.033199787139893,7.837199681036377C4.033199787139893,7.5695995810363765,4.177199717139892,7.322399581036377,4.407599687139893,7.189199881036377L6.675599787139893,5.875199781036377C7.175148687139893,5.586168481036377,7.800298687139893,5.946062581036377,7.801199887139893,6.523200081036377L7.801199887139893,6.524399481036377ZM13.875601287139892,10.000799681036376C14.234174787139892,9.792682181036376,14.693578787139893,9.914822581036377,14.901447787139892,10.273540481036378C15.109319787139892,10.632258381036376,14.986862787139893,11.091576081036377,14.628000787139893,11.299200581036377L12.711600787139892,12.410400881036377L12.711600787139892,14.639999781036376C12.711600787139892,15.054213781036378,12.375813987139892,15.390000781036377,11.961600787139893,15.390000781036377C11.547386687139893,15.390000781036377,11.211600787139893,15.054213781036378,11.211600787139893,14.639999781036376L11.211600787139893,12.410400881036377L9.270000487139892,11.284800081036376C8.911456587139892,11.077362581036377,8.788961887139893,10.618543181036376,8.996400387139893,10.259999781036377C9.203838787139894,9.901456381036377,9.662657287139893,9.778961681036378,10.021200687139892,9.986400081036377L11.960400587139892,11.110800281036378L13.875601287139892,10.000799681036376ZM5.534399987139892,13.499999781036378L5.534399987139892,14.860799781036377L6.699600187139893,14.186398781036377C7.059886687139892,13.950217781036377,7.544581887139893,14.064792781036378,7.760984687139892,14.437293781036377C7.977387387139892,14.809795781036376,7.836833287139893,15.287604781036377,7.4532000871398925,15.483598781036378L6.280800087139893,16.162797781036375L7.451999887139893,16.840796781036374C7.810702087139893,17.04816378103638,7.933311987139893,17.50709778103638,7.725823387139893,17.86572678103638C7.5183348871398925,18.22435878103638,7.059358787139892,18.346807781036375,6.7007996871398925,18.139197781036376L4.408799887139892,16.810795781036376C4.177449347139893,16.67694078103638,4.034818053239893,16.430079781036376,4.034399986239893,16.162797781036375L4.034399986239893,13.499999781036378C4.034399986239893,13.085786781036377,4.370186447139893,12.749999481036378,4.784399987139892,12.749999481036378C5.198613487139893,12.749999481036378,5.534399987139892,13.085786781036377,5.534399987139892,13.499999781036378ZM19.888799787139895,13.499999781036378L19.888799787139895,15.643198781036377C19.888799787139895,16.277999781036378,19.61520078713989,16.753197781036377,19.066799787139892,17.071197781036375L17.223599787139893,18.139197781036376C16.865004787139892,18.347545781036377,16.405393787139893,18.225463781036375,16.197458787139894,17.866627781036378C15.989520787139893,17.50779578103638,16.11212778713989,17.048326781036376,16.471199787139895,16.840799781036377L17.643598787139894,16.162800781036378L16.472398787139895,15.483598781036378C16.097215787139895,15.284165781036377,15.962467787139893,14.813188781036377,16.175396787139892,14.445497781036376C16.388324787139894,14.077804781036377,16.86388678713989,13.960254781036378,17.223599787139893,14.186398781036377L18.388799787139895,14.860799781036377L18.388799787139895,13.499999781036378C18.388799787139895,13.085786781036377,18.72458678713989,12.749999481036378,19.138799787139895,12.749999481036378C19.553013787139893,12.749999481036378,19.888799787139895,13.085786781036377,19.888799787139895,13.499999781036378ZM12.712801487139892,17.662800781036378L12.712801487139892,19.023599781036378L13.837201587139893,18.371998781036375L13.878000687139892,18.348000781036376C14.236542787139893,18.140559781036377,14.695362787139892,18.263056781036376,14.902800787139892,18.621600781036378C15.110241787139893,18.980140781036376,14.987744787139892,19.438961781036376,14.629201787139893,19.64639878103638L12.337201587139893,20.973598781036376C12.104846487139893,21.108036781036375,11.818356987139893,21.108036781036375,11.586001387139891,20.973598781036376L9.270000887139894,19.63200078103638C8.922192087139893,19.419542781036377,8.807707787139893,18.96821678103638,9.012195087139894,18.615663781036375C9.216682387139892,18.26311178103638,9.665286587139892,18.13838778103638,10.022400887139892,18.334799781036377L11.211600787139893,19.023599781036378L11.211600787139893,17.663998781036376C11.211600787139893,17.249785781036376,11.547386687139893,16.913998781036376,11.961600787139893,16.913998781036376C12.375813987139892,16.913998781036376,12.711600787139892,17.249785781036376,12.711600787139892,17.663998781036376L12.712801487139892,17.662800781036378Z" fill="#FFFFFF" fill-opacity="0.8999999761581421"/></g></svg>