<svg xmlns="http://www.w3.org/2000/svg" xmlns:xlink="http://www.w3.org/1999/xlink" fill="none" version="1.1" width="16" height="16" viewBox="0 0 16 16"><defs><clipPath id="master_svg0_9_10947"><rect x="0" y="0" width="16" height="16" rx="0"/></clipPath></defs><g clip-path="url(#master_svg0_9_10947)"><path d="M2.000000476837158,7.999999C2.000000715255738,4.6862907,4.686291676837158,2,7.999999976837159,2C11.313709776837158,2,14.000000476837158,4.6862907,14.000000476837158,7.999999C14.000000476837158,11.3137083,11.313709776837158,14,7.999999976837159,14C4.686291676837158,14,2.000000715255738,11.3137083,2.000000476837158,7.999999ZM3.000000476837158,7.999999C3.000000476837158,10.7614222,5.238576376837158,12.999998,7.999999976837159,12.999998C10.761423576837158,12.999998,12.999998476837158,10.7614231,13.000000476837158,7.999999C12.999046476837158,5.2392492,10.760750276837157,3.0017253999999998,7.999999976837159,3.0017253999999998C5.239250176837158,3.0017256999999997,3.0009536768371583,5.2392492,3.000000476837158,7.999999ZM7.536000276837158,6.1391993L8.767999676837158,6.8495994L9.999199876837158,7.5591993C10.192657976837157,7.6705608,10.311895876837157,7.8767796,10.311895876837157,8.0999994C10.311893976837158,8.3232193,10.192657976837157,8.529437999999999,9.999199876837158,8.6407995L8.767999676837158,9.3495998L7.5359997768371585,10.0607996C7.3428716768371585,10.1723022,7.104918976837158,10.1722641,6.911826576837158,10.0606995C6.7187337768371584,9.9491348,6.599856376837158,9.7430048,6.599999876837158,9.5199995L6.599999876837158,6.6799994C6.599999876837158,6.1999993,7.119999876837158,5.8991995,7.536000276837158,6.1391993Z" fill="#FFFFFF" fill-opacity="0.800000011920929"/></g></svg>