<svg xmlns="http://www.w3.org/2000/svg" xmlns:xlink="http://www.w3.org/1999/xlink" fill="none" version="1.1" width="16" height="16" viewBox="0 0 16 16"><defs><clipPath id="master_svg0_6_23876"><rect x="0" y="0" width="16" height="16" rx="0"/></clipPath></defs><g clip-path="url(#master_svg0_6_23876)"><path d="M2.9000000953674316,12.599999910736084L13.100001095367432,12.599999910736084C13.376151095367431,12.599999910736084,13.600001095367432,12.823849910736085,13.600001095367432,13.099999910736084C13.600001095367432,13.376149910736084,13.376151095367431,13.599999910736084,13.100001095367432,13.599999910736084L2.9000000953674316,13.599999910736084C2.6238501053674317,13.599999910736084,2.4000000953674316,13.376149910736084,2.4000000953674316,13.099999910736084C2.4000000953674316,12.823849910736085,2.6238501053674317,12.599999910736084,2.9000000953674316,12.599999910736084ZM4.398250095367432,8.051750210736085L9.792900095367433,2.657099960736084C10.183400195367431,2.266599893736084,10.816599395367431,2.266599893736084,11.207100395367432,2.657099960736084L13.328499095367432,4.7785001107360845C13.719000095367432,5.169000110736084,13.719000095367432,5.802150210736084,13.328499095367432,6.192699910736084L7.933750195367431,11.587300810736084C7.710872695367431,11.810168710736084,7.395966095367432,11.914914610736083,7.084000095367432,11.869950810736084L5.2299499953674315,11.602651110736083C4.790992695367432,11.539380510736084,4.446145995367432,11.194554810736085,4.382849695367431,10.755601410736084L4.115599595367431,8.901551210736084C4.070618595367431,8.589569110736084,4.175366395367432,8.274640110736083,4.398250095367432,8.051750210736085ZM5.372650195367432,10.612899310736085L7.226650195367432,10.880198910736084L12.621300095367431,5.4854998107360835L10.500000495367432,3.3642001107360837L5.1053499953674315,8.758850110736084L5.372650195367432,10.612899310736085Z" fill="#FFFFFF" fill-opacity="0.800000011920929"/></g></svg>