<svg xmlns="http://www.w3.org/2000/svg" xmlns:xlink="http://www.w3.org/1999/xlink" fill="none" version="1.1" width="20" height="20" viewBox="0 0 20 20"><defs><clipPath id="master_svg0_6_07228"><rect x="0" y="0" width="20" height="20" rx="0"/></clipPath></defs><g clip-path="url(#master_svg0_6_07228)"><path d="M16.124999000000003,5.125C16.124999000000003,5.47018778,15.845186,5.75,15.499999,5.75L4.5,5.75C4.15481251,5.75,3.875,5.47018778,3.875,5.125C3.875,4.77981222,4.15481251,4.5,4.5,4.5L15.499999,4.5C15.845186,4.5,16.124999000000003,4.77981251,16.124999000000003,5.125ZM15.499999,10.625L9.4375,10.625C9.0923119,10.625,8.8125,10.3451872,8.8125,10C8.8125,9.6548128,9.0923119,9.375,9.4375,9.375L15.499999,9.375C15.845186,9.375,16.124999000000003,9.6548123,16.124999000000003,10C16.124999000000003,10.3451872,15.845186,10.625,15.499999,10.625ZM16.124999000000003,14.874999C16.124999000000003,15.220186,15.845186,15.499999,15.499999,15.499999L4.5,15.499999C4.15481251,15.499999,3.875,15.220186,3.875,14.874999C3.875,14.529812,4.15481251,14.25,4.5,14.25L15.499999,14.25C15.845186,14.25,16.124999000000003,14.529812,16.124999000000003,14.874999ZM7.8091254,9.3173122C8.3136253,9.605124499999999,8.3136253,10.332438,7.8091254,10.620249699999999L6.5135002,11.359436500000001L5.1976879,12.1100616C4.69768775,12.3953738,4.07600027,12.034311299999999,4.07600027,11.458686799999999L4.07600027,8.4788742C4.07600027,7.903249300000001,4.69768775,7.5421865,5.1976879,7.8274364L6.5135002,8.578185999999999L7.8091254,9.3173122Z" fill="#FFFFFF" fill-opacity="0.8999999761581421"/></g></svg>